SplineFontDB: 3.2
FontName: Freebrat
FullName: Freebrat
FamilyName: Freebrat
Weight: Bold
Copyright: (c) 2020 colortab.org
UComments: "Glyphs from Free Monospaced and Bravura Text are combined and adapted to inline text music notation rather than staff."
Version: 1.0
ItalicAngle: 0
UnderlinePosition: -150
UnderlineWidth: 50
Ascent: 800
Descent: 200
InvalidEm: 0
sfntRevision: 0x00010000
woffMajor: 1
woffMinor: 1
LayerCount: 3
Layer: 0 1 "Back" 1
Layer: 1 1 "Fore" 0
Layer: 2 0 "Back 2" 1
XUID: [1021 150 -934141607 19031]
StyleMap: 0x0020
FSType: 0
OS2Version: 3
OS2_WeightWidthSlopeOnly: 0
OS2_UseTypoMetrics: 0
CreationTime: 1203284335
ModificationTime: 1609875608
PfmFamily: 17
TTFWeight: 700
TTFWidth: 5
LineGap: 0
VLineGap: 0
Panose: 5 15 1 9 2 8 5 2 4 4
OS2TypoAscent: 800
OS2TypoAOffset: 0
OS2TypoDescent: -200
OS2TypoDOffset: 0
OS2TypoLinegap: 0
OS2WinAscent: 800
OS2WinAOffset: 0
OS2WinDescent: 200
OS2WinDOffset: 0
HheadAscent: 800
HheadAOffset: 0
HheadDescent: -200
HheadDOffset: 0
OS2SubXSize: 650
OS2SubYSize: 699
OS2SubXOff: 47
OS2SubYOff: 140
OS2SupXSize: 650
OS2SupYSize: 699
OS2SupXOff: -163
OS2SupYOff: 479
OS2StrikeYSize: 49
OS2StrikeYPos: 258
OS2CapHeight: 583
OS2XHeight: 437
OS2FamilyClass: 1285
OS2Vendor: 'GNU '
Lookup: 258 8 0 "Bravura-'kern' Horizontal Kerning lookup 0" { "Bravura-'kern' Horizontal Kerning lookup 0 subtable"  } ['kern' ('DFLT' <'dflt' > ) ]
MarkAttachClasses: 1
DEI: 91125
TtTable: prep
PUSHW_1
 511
SCANCTRL
PUSHB_1
 1
SCANTYPE
SVTCA[y-axis]
MPPEM
PUSHB_1
 8
LT
IF
PUSHB_2
 1
 1
INSTCTRL
EIF
PUSHB_2
 70
 6
CALL
IF
POP
PUSHB_1
 16
EIF
MPPEM
PUSHB_1
 20
GT
IF
POP
PUSHB_1
 128
EIF
SCVTCI
PUSHB_1
 6
CALL
NOT
IF
SVTCA[y-axis]
PUSHB_1
 3
DUP
RCVT
PUSHB_1
 3
CALL
WCVTP
PUSHB_1
 4
DUP
RCVT
PUSHB_3
 3
 75
 2
CALL
PUSHB_1
 3
CALL
WCVTP
SVTCA[x-axis]
PUSHB_1
 5
DUP
RCVT
PUSHB_1
 3
CALL
WCVTP
EIF
PUSHB_1
 20
CALL
EndTTInstrs
TtTable: fpgm
PUSHB_1
 0
FDEF
PUSHB_1
 0
SZP0
MPPEM
PUSHB_1
 42
LT
IF
PUSHB_1
 74
SROUND
EIF
PUSHB_1
 0
SWAP
MIAP[rnd]
RTG
PUSHB_1

StartChar: .notdef
Encoding: 460 -1 0
Width: 600
Flags: W
LayerCount: 3
Fore
SplineSet
154 394 m 128,-1,1
 104 394 104 394 104 460 c 2,2,-1
 104 539 l 1,3,4
 176 574 176 574 218 586 c 128,-1,5
 260 598 260 598 308 598 c 0,6,7
 401 598 401 598 459 545.5 c 128,-1,8
 517 493 517 493 517 409 c 0,9,10
 517 348 517 348 480.5 308 c 128,-1,11
 444 268 444 268 353 228 c 1,12,13
 347 174 347 174 303 174 c 0,14,15
 253 174 253 174 253 240 c 2,16,-1
 253 296 l 1,17,18
 349 333 349 333 383 357.5 c 128,-1,19
 417 382 417 382 417 414 c 0,20,21
 417 451 417 451 387 474.5 c 128,-1,22
 357 498 357 498 309 498 c 0,23,24
 254 498 254 498 204 474 c 1,25,-1
 204 460 l 2,26,0
 204 394 204 394 154 394 c 128,-1,1
311 -15 m 2,27,-1
 294 -15 l 2,28,29
 266 -15 266 -15 246.5 4.5 c 128,-1,30
 227 24 227 24 227 51 c 128,-1,31
 227 78 227 78 246.5 97.5 c 128,-1,32
 266 117 266 117 294 117 c 2,33,-1
 311 117 l 2,34,35
 339 117 339 117 358 98 c 128,-1,36
 377 79 377 79 377 51 c 128,-1,37
 377 23 377 23 358 4 c 128,-1,38
 339 -15 339 -15 311 -15 c 2,27,-1
20 -110 m 1,39,-1
 20 673 l 1,40,-1
 580 673 l 1,41,-1
 580 -110 l 1,42,-1
 20 -110 l 1,39,-1
73 -47 m 1,43,-1
 527 -47 l 1,44,-1
 527 610 l 1,45,-1
 73 610 l 1,46,-1
 73 -47 l 1,43,-1
EndSplineSet
Validated: 1
EndChar

StartChar: exclam
Encoding: 2 33 2
Width: 600
GlyphClass: 2
Flags: W
LayerCount: 3
Fore
SplineSet
379 525 m 2,0,-1
 350 228 l 2,1,2
 345 179 345 179 301 179 c 0,3,4
 280 179 280 179 266.5 192 c 128,-1,5
 253 205 253 205 251 228 c 2,6,-1
 222 525 l 2,7,8
 220 549 220 549 220 558 c 0,9,10
 220 593 220 593 243 615.5 c 128,-1,11
 266 638 266 638 301 638 c 128,-1,12
 336 638 336 638 358.5 615 c 128,-1,13
 381 592 381 592 381 558 c 0,14,15
 381 551 381 551 379 525 c 2,0,-1
309 -15 m 2,16,-1
 292 -15 l 2,17,18
 264 -15 264 -15 244.5 4.5 c 128,-1,19
 225 24 225 24 225 51 c 128,-1,20
 225 78 225 78 244.5 97.5 c 128,-1,21
 264 117 264 117 292 117 c 2,22,-1
 309 117 l 2,23,24
 337 117 337 117 356 98 c 128,-1,25
 375 79 375 79 375 51 c 128,-1,26
 375 23 375 23 356 4 c 128,-1,27
 337 -15 337 -15 309 -15 c 2,16,-1
EndSplineSet
Validated: 1
EndChar

StartChar: quotedbl
Encoding: 3 34 3
Width: 600
GlyphClass: 2
Flags: W
LayerCount: 3
Fore
SplineSet
136 602 m 1,0,-1
 264 602 l 1,1,-1
 233 348 l 2,2,3
 230 328 230 328 223 320 c 128,-1,4
 216 312 216 312 201 312 c 0,5,6
 174 312 174 312 170 347 c 2,7,-1
 136 602 l 1,0,-1
336 602 m 1,8,-1
 464 602 l 1,9,-1
 433 348 l 2,10,11
 430 328 430 328 423 320 c 128,-1,12
 416 312 416 312 401 312 c 0,13,14
 374 312 374 312 370 347 c 2,15,-1
 336 602 l 1,8,-1
EndSplineSet
Validated: 1
EndChar

StartChar: numbersign
Encoding: 4 35 4
Width: 600
GlyphClass: 2
Flags: W
LayerCount: 3
Fore
SplineSet
288 625 m 0,0,1
 288 618 288 618 287.5 606.5 c 128,-1,2
 287 595 287 595 285.5 580 c 128,-1,3
 284 565 284 565 281.5 527.5 c 128,-1,4
 279 490 279 490 276 444 c 1,5,-1
 347 444 l 1,6,-1
 359 612 l 2,7,8
 361 675 361 675 410 675 c 0,9,10
 429 675 429 675 444.5 661 c 128,-1,11
 460 647 460 647 460 630 c 2,12,-1
 460 627 l 1,13,-1
 447 444 l 1,14,-1
 472 444 l 2,15,16
 538 444 538 444 538 394 c 128,-1,17
 538 344 538 344 472 344 c 2,18,-1
 440 344 l 1,19,-1
 432 238 l 1,20,-1
 451 238 l 2,21,22
 518 238 518 238 518 188 c 0,23,24
 518 139 518 139 452 139 c 2,25,-1
 425 139 l 1,26,-1
 414 -29 l 2,27,28
 409 -92 409 -92 362 -92 c 0,29,30
 343 -92 343 -92 328 -77.5 c 128,-1,31
 313 -63 313 -63 313 -44 c 0,32,33
 326 138 326 138 326 139 c 1,34,-1
 254 139 l 1,35,-1
 242 -29 l 1,36,37
 242 -92 242 -92 192 -92 c 0,38,39
 170 -92 170 -92 156 -77.5 c 128,-1,40
 142 -63 142 -63 142 -40 c 0,41,42
 142 -38 142 -38 142.5 -32 c 128,-1,43
 143 -26 143 -26 143 -22 c 2,44,-1
 154 139 l 1,45,-1
 128 139 l 2,46,47
 62 139 62 139 62 189 c 0,48,49
 62 217 62 217 79 227.5 c 128,-1,50
 96 238 96 238 128 238 c 2,51,-1
 161 238 l 1,52,-1
 168 344 l 1,53,-1
 149 344 l 2,54,55
 82 344 82 344 82 394 c 0,56,57
 82 424 82 424 99.5 434 c 128,-1,58
 117 444 117 444 149 444 c 2,59,-1
 175 444 l 1,60,-1
 187 612 l 2,61,62
 189 675 189 675 238 675 c 0,63,64
 259 675 259 675 273.5 660 c 128,-1,65
 288 645 288 645 288 625 c 0,0,1
340 344 m 1,66,-1
 269 344 l 1,67,-1
 261 238 l 1,68,-1
 333 238 l 1,69,-1
 340 344 l 1,66,-1
EndSplineSet
Validated: 1
EndChar

StartChar: dollar
Encoding: 5 36 5
Width: 600
GlyphClass: 2
Flags: W
LayerCount: 3
Fore
SplineSet
302 684 m 0,0,1
 351 684 351 684 351 618 c 2,2,-1
 351 592 l 1,3,4
 385 585 385 585 395 582 c 2,5,-1
 409 577 l 2,6,7
 410 576 410 576 418 574 c 1,8,9
 433 581 433 581 446 581 c 0,10,11
 496 581 496 581 496 515 c 2,12,-1
 496 483 l 2,13,14
 496 451 496 451 485.5 434 c 128,-1,15
 475 417 475 417 446 417 c 0,16,17
 403 417 403 417 394 459 c 0,18,19
 392 473 392 473 366.5 484 c 128,-1,20
 341 495 341 495 310 495 c 0,21,22
 265 495 265 495 238 478 c 128,-1,23
 211 461 211 461 211 433 c 0,24,25
 211 392 211 392 286 377 c 2,26,-1
 351 363 l 2,27,28
 374 358 374 358 387 354.5 c 128,-1,29
 400 351 400 351 428.5 338.5 c 128,-1,30
 457 326 457 326 473 310.5 c 128,-1,31
 489 295 489 295 503 265.5 c 128,-1,32
 517 236 517 236 517 199 c 0,33,34
 517 134 517 134 473 88 c 128,-1,35
 429 42 429 42 351 27 c 1,36,-1
 351 -56 l 2,37,38
 351 -88 351 -88 340.5 -105.5 c 128,-1,39
 330 -123 330 -123 302 -123 c 0,40,41
 272 -123 272 -123 262 -105.5 c 128,-1,42
 252 -88 252 -88 252 -56 c 2,43,-1
 252 27 l 1,44,45
 209 36 209 36 173 52 c 1,46,47
 152 34 152 34 134 34 c 0,48,49
 83 34 83 34 83 101 c 2,50,-1
 83 162 l 2,51,52
 83 229 83 229 133 229 c 0,53,54
 141 229 141 229 147.5 227 c 128,-1,55
 154 225 154 225 158.5 223 c 128,-1,56
 163 221 163 221 167 216.5 c 128,-1,57
 171 212 171 212 173.5 209 c 128,-1,58
 176 206 176 206 178 200.5 c 128,-1,59
 180 195 180 195 181 192.5 c 128,-1,60
 182 190 182 190 183 185 c 2,61,-1
 184 180 l 2,62,63
 190 157 190 157 224.5 140.5 c 128,-1,64
 259 124 259 124 300 124 c 0,65,66
 349 124 349 124 381 146 c 128,-1,67
 413 168 413 168 413 200 c 0,68,69
 413 226 413 226 394 241.5 c 128,-1,70
 375 257 375 257 333 265 c 2,71,-1
 259 280 l 2,72,73
 107 311 107 311 107 435 c 0,74,75
 107 494 107 494 147.5 537.5 c 128,-1,76
 188 581 188 581 252 592 c 1,77,-1
 252 618 l 2,78,79
 252 650 252 650 262.5 667 c 128,-1,80
 273 684 273 684 302 684 c 0,0,1
EndSplineSet
Validated: 1
EndChar

StartChar: percent
Encoding: 6 37 6
Width: 600
GlyphClass: 2
Flags: W
LayerCount: 3
Fore
SplineSet
228 617 m 0,0,1
 287 617 287 617 327.5 576 c 128,-1,2
 368 535 368 535 368 476 c 0,3,4
 368 420 368 420 327 379 c 128,-1,5
 286 338 286 338 229 338 c 0,6,7
 171 338 171 338 130 379 c 128,-1,8
 89 420 89 420 89 478 c 0,9,10
 89 535 89 535 130 576 c 128,-1,11
 171 617 171 617 228 617 c 0,0,1
228 552 m 0,12,13
 198 552 198 552 176 530 c 128,-1,14
 154 508 154 508 154 478 c 0,15,16
 154 447 154 447 176 425 c 128,-1,17
 198 403 198 403 228 403 c 0,18,19
 259 403 259 403 281 425 c 128,-1,20
 303 447 303 447 303 477 c 0,21,22
 303 508 303 508 281.5 530 c 128,-1,23
 260 552 260 552 228 552 c 0,12,13
491 331 m 2,24,-1
 129 213 l 2,25,26
 115 209 115 209 109 209 c 0,27,28
 98 209 98 209 89 218.5 c 128,-1,29
 80 228 80 228 80 241 c 0,30,31
 80 262 80 262 110 272 c 2,32,-1
 472 390 l 2,33,34
 484 394 484 394 492 394 c 0,35,36
 503 394 503 394 512 384.5 c 128,-1,37
 521 375 521 375 521 362 c 0,38,39
 521 341 521 341 491 331 c 2,24,-1
368 264 m 0,40,41
 427 264 427 264 467.5 223 c 128,-1,42
 508 182 508 182 508 123 c 0,43,44
 508 67 508 67 467 26 c 128,-1,45
 426 -15 426 -15 368 -15 c 0,46,47
 311 -15 311 -15 270 26 c 128,-1,48
 229 67 229 67 229 125 c 0,49,50
 229 182 229 182 270 223 c 128,-1,51
 311 264 311 264 368 264 c 0,40,41
368 199 m 0,52,53
 338 199 338 199 316 177 c 128,-1,54
 294 155 294 155 294 125 c 0,55,56
 294 94 294 94 316 72 c 128,-1,57
 338 50 338 50 369 50 c 0,58,59
 399 50 399 50 421 72 c 128,-1,60
 443 94 443 94 443 124 c 0,61,62
 443 156 443 156 421.5 177.5 c 128,-1,63
 400 199 400 199 368 199 c 0,52,53
EndSplineSet
Validated: 1
EndChar

StartChar: ampersand
Encoding: 7 38 7
Width: 600
GlyphClass: 2
Flags: W
LayerCount: 3
Fore
SplineSet
508 50 m 128,-1,1
 508 0 508 0 442 0 c 2,2,-1
 381 0 l 1,3,-1
 370 15 l 1,4,5
 329 -14 329 -14 257 -14 c 0,6,7
 174 -14 174 -14 124.5 29 c 128,-1,8
 75 72 75 72 75 144 c 0,9,10
 75 247 75 247 171 303 c 1,11,12
 137 361 137 361 137 399 c 0,13,14
 137 460 137 460 182.5 505 c 128,-1,15
 228 550 228 550 289 550 c 0,16,17
 322 550 322 550 359 533 c 1,18,19
 380 540 380 540 387 540 c 0,20,21
 406 540 406 540 420.5 524.5 c 128,-1,22
 435 509 435 509 435 490 c 0,23,24
 435 473 435 473 426.5 462.5 c 128,-1,25
 418 452 418 452 394 438 c 2,26,-1
 353 416 l 1,27,28
 315 450 315 450 290 450 c 0,29,30
 268 450 268 450 252.5 435.5 c 128,-1,31
 237 421 237 421 237 400 c 0,32,33
 237 383 237 383 265 343 c 2,34,-1
 365 198 l 1,35,-1
 388 280 l 1,36,-1
 441 280 l 2,37,38
 507 280 507 280 507 229 c 0,39,40
 507 210 507 210 494.5 196 c 128,-1,41
 482 182 482 182 464 180 c 1,42,43
 450 128 450 128 434 100 c 1,44,-1
 442 100 l 2,45,0
 508 100 508 100 508 50 c 128,-1,1
312 100 m 1,46,-1
 228 220 l 1,47,48
 175 196 175 196 175 144 c 0,49,50
 175 86 175 86 257 86 c 0,51,52
 288 86 288 86 312 100 c 1,46,-1
EndSplineSet
Validated: 1
EndChar

StartChar: quotesingle
Encoding: 8 39 8
Width: 600
GlyphClass: 2
Flags: W
LayerCount: 3
Fore
SplineSet
236 602 m 1,0,-1
 364 602 l 1,1,-1
 333 348 l 2,2,3
 330 328 330 328 323 320 c 128,-1,4
 316 312 316 312 301 312 c 0,5,6
 274 312 274 312 270 347 c 2,7,-1
 236 602 l 1,0,-1
EndSplineSet
Validated: 1
EndChar

StartChar: parenleft
Encoding: 9 40 9
Width: 600
GlyphClass: 2
Flags: W
LayerCount: 3
Fore
SplineSet
264 243 m 0,0,1
 264 312 264 312 293 405 c 128,-1,2
 322 498 322 498 363.5 565 c 128,-1,3
 405 632 405 632 437 632 c 0,4,5
 459 632 459 632 473.5 617.5 c 128,-1,6
 488 603 488 603 488 583 c 0,7,8
 488 568 488 568 470.5 536.5 c 128,-1,9
 453 505 453 505 431.5 470 c 128,-1,10
 410 435 410 435 392.5 372.5 c 128,-1,11
 375 310 375 310 375 240 c 0,12,13
 375 94 375 94 476 -70 c 0,14,15
 488 -89 488 -89 488 -104 c 0,16,17
 488 -124 488 -124 473.5 -138.5 c 128,-1,18
 459 -153 459 -153 437 -153 c 0,19,20
 405 -153 405 -153 364 -89 c 128,-1,21
 323 -25 323 -25 293.5 70 c 128,-1,22
 264 165 264 165 264 243 c 0,0,1
EndSplineSet
Validated: 1
EndChar

StartChar: parenright
Encoding: 10 41 10
Width: 600
GlyphClass: 2
Flags: W
LayerCount: 3
Fore
SplineSet
117 -104 m 0,0,1
 117 -89 117 -89 134.5 -57.5 c 128,-1,2
 152 -26 152 -26 173.5 9 c 128,-1,3
 195 44 195 44 212.5 106.5 c 128,-1,4
 230 169 230 169 230 239 c 0,5,6
 230 385 230 385 129 549 c 0,7,8
 117 568 117 568 117 583 c 0,9,10
 117 603 117 603 131.5 617.5 c 128,-1,11
 146 632 146 632 168 632 c 0,12,13
 200 632 200 632 241 568 c 128,-1,14
 282 504 282 504 311.5 409 c 128,-1,15
 341 314 341 314 341 236 c 0,16,17
 341 167 341 167 312.5 74.5 c 128,-1,18
 284 -18 284 -18 242.5 -85.5 c 128,-1,19
 201 -153 201 -153 168 -153 c 0,20,21
 146 -153 146 -153 131.5 -138.5 c 128,-1,22
 117 -124 117 -124 117 -104 c 0,0,1
EndSplineSet
Validated: 1
EndChar

StartChar: asterisk
Encoding: 11 42 11
Width: 600
GlyphClass: 2
Flags: W
LayerCount: 3
Fore
SplineSet
300 622 m 128,-1,1
 350 622 350 622 350 556 c 2,2,-1
 350 467 l 1,3,-1
 436 495 l 2,4,5
 460 502 460 502 469 502 c 0,6,7
 488 502 488 502 502.5 487 c 128,-1,8
 517 472 517 472 517 452 c 0,9,10
 517 415 517 415 467 400 c 2,11,-1
 381 372 l 1,12,-1
 433 301 l 2,13,14
 452 274 452 274 452 258 c 0,15,16
 452 238 452 238 437 223 c 128,-1,17
 422 208 422 208 402 208 c 0,18,19
 386 208 386 208 377 214.5 c 128,-1,20
 368 221 368 221 352 242 c 2,21,-1
 300 314 l 1,22,-1
 248 242 l 2,23,24
 233 221 233 221 223 214.5 c 128,-1,25
 213 208 213 208 198 208 c 0,26,27
 178 208 178 208 163 223 c 128,-1,28
 148 238 148 238 148 258 c 0,29,30
 148 276 148 276 167 301 c 2,31,-1
 219 372 l 1,32,-1
 133 400 l 2,33,34
 105 408 105 408 94 420 c 128,-1,35
 83 432 83 432 83 452 c 128,-1,36
 83 472 83 472 97 487 c 128,-1,37
 111 502 111 502 130 502 c 0,38,39
 140 502 140 502 164 495 c 2,40,-1
 250 467 l 1,41,-1
 250 556 l 2,42,0
 250 622 250 622 300 622 c 128,-1,1
EndSplineSet
Validated: 1
EndChar

StartChar: plus
Encoding: 12 43 12
Width: 600
GlyphClass: 2
Flags: W
LayerCount: 3
Fore
SplineSet
558 280 m 128,-1,1
 558 230 558 230 491 230 c 2,2,-1
 350 230 l 1,3,-1
 350 66 l 2,4,5
 350 0 350 0 300 0 c 128,-1,6
 250 0 250 0 250 66 c 2,7,-1
 250 230 l 1,8,-1
 108 230 l 2,9,10
 42 230 42 230 42 280 c 0,11,12
 42 309 42 309 59 319.5 c 128,-1,13
 76 330 76 330 108 330 c 2,14,-1
 250 330 l 1,15,-1
 250 494 l 2,16,17
 250 560 250 560 300 560 c 0,18,19
 329 560 329 560 339.5 543 c 128,-1,20
 350 526 350 526 350 494 c 2,21,-1
 350 330 l 1,22,-1
 491 330 l 2,23,0
 558 330 558 330 558 280 c 128,-1,1
EndSplineSet
Validated: 1
EndChar

StartChar: comma
Encoding: 13 44 13
Width: 600
GlyphClass: 2
Flags: W
LayerCount: 3
Fore
SplineSet
219 134 m 1,0,-1
 351 134 l 1,1,-1
 210 -134 l 2,2,3
 198 -158 198 -158 178 -158 c 0,4,5
 165 -158 165 -158 156 -149.5 c 128,-1,6
 147 -141 147 -141 147 -130 c 0,7,8
 147 -122 147 -122 150 -111 c 2,9,-1
 219 134 l 1,0,-1
EndSplineSet
Validated: 1
EndChar

StartChar: hyphen
Encoding: 14 45 14
Width: 600
GlyphClass: 2
Flags: W
LayerCount: 3
Fore
SplineSet
558 279 m 0,0,1
 558 229 558 229 492 229 c 2,2,-1
 108 229 l 2,3,4
 42 229 42 229 42 279 c 128,-1,5
 42 329 42 329 108 329 c 2,6,-1
 492 329 l 2,7,8
 525 329 525 329 541.5 318.5 c 128,-1,9
 558 308 558 308 558 279 c 0,0,1
EndSplineSet
Validated: 1
EndChar

StartChar: period
Encoding: 15 46 15
Width: 600
GlyphClass: 2
Flags: W
LayerCount: 3
Fore
SplineSet
309 -15 m 2,0,-1
 291 -15 l 2,1,2
 264 -15 264 -15 244.5 4.5 c 128,-1,3
 225 24 225 24 225 51 c 128,-1,4
 225 78 225 78 244.5 97.5 c 128,-1,5
 264 117 264 117 291 117 c 2,6,-1
 309 117 l 2,7,8
 337 117 337 117 356 98 c 128,-1,9
 375 79 375 79 375 51 c 128,-1,10
 375 23 375 23 356 4 c 128,-1,11
 337 -15 337 -15 309 -15 c 2,0,-1
EndSplineSet
Validated: 1
EndChar

StartChar: slash
Encoding: 16 47 16
Width: 600
GlyphClass: 2
Flags: W
LayerCount: 3
Fore
SplineSet
505 610 m 2,0,-1
 185 -69 l 2,1,2
 174 -94 174 -94 162.5 -103.5 c 128,-1,3
 151 -113 151 -113 133 -113 c 0,4,5
 113 -113 113 -113 98 -98.5 c 128,-1,6
 83 -84 83 -84 83 -65 c 0,7,8
 83 -51 83 -51 95 -27 c 2,9,-1
 416 651 l 2,10,11
 427 676 427 676 438 685.5 c 128,-1,12
 449 695 449 695 467 695 c 0,13,14
 487 695 487 695 502 680.5 c 128,-1,15
 517 666 517 666 517 647 c 0,16,17
 517 634 517 634 505 610 c 2,0,-1
EndSplineSet
Validated: 1
EndChar

StartChar: zero
Encoding: 17 48 17
Width: 600
GlyphClass: 2
Flags: W
LayerCount: 3
Fore
SplineSet
300 638 m 0,0,1
 406 638 406 638 461.5 557 c 128,-1,2
 517 476 517 476 517 359 c 2,3,-1
 517 264 l 2,4,5
 517 189 517 189 494.5 127.5 c 128,-1,6
 472 66 472 66 421.5 25.5 c 128,-1,7
 371 -15 371 -15 300 -15 c 0,8,9
 194 -15 194 -15 138.5 66 c 128,-1,10
 83 147 83 147 83 264 c 2,11,-1
 83 359 l 2,12,13
 83 434 83 434 105.5 495.5 c 128,-1,14
 128 557 128 557 178.5 597.5 c 128,-1,15
 229 638 229 638 300 638 c 0,0,1
183 366 m 2,16,-1
 183 257 l 2,17,18
 183 179 183 179 215 132 c 128,-1,19
 247 85 247 85 300 85 c 128,-1,20
 353 85 353 85 385 132 c 128,-1,21
 417 179 417 179 417 257 c 2,22,-1
 417 366 l 2,23,24
 417 444 417 444 385 491 c 128,-1,25
 353 538 353 538 300 538 c 128,-1,26
 247 538 247 538 215 491 c 128,-1,27
 183 444 183 444 183 366 c 2,16,-1
EndSplineSet
Validated: 1
EndChar

StartChar: one
Encoding: 18 49 18
Width: 600
GlyphClass: 2
Flags: W
LayerCount: 3
Fore
SplineSet
83 50 m 0,0,1
 83 79 83 79 100 89.5 c 128,-1,2
 117 100 117 100 149 100 c 2,3,-1
 250 100 l 1,4,-1
 250 528 l 1,5,-1
 168 470 l 2,6,7
 153 457 153 457 127 457 c 0,8,9
 110 457 110 457 97.5 468 c 128,-1,10
 85 479 85 479 85 497 c 0,11,12
 85 513 85 513 92 523.5 c 128,-1,13
 99 534 99 534 116 546 c 2,14,-1
 251 638 l 1,15,-1
 350 638 l 1,16,-1
 350 100 l 1,17,-1
 451 100 l 2,18,19
 517 100 517 100 517 50 c 128,-1,20
 517 0 517 0 451 0 c 2,21,-1
 149 0 l 2,22,23
 83 0 83 0 83 50 c 0,0,1
EndSplineSet
Validated: 1
EndChar

StartChar: two
Encoding: 19 50 19
Width: 600
GlyphClass: 2
Flags: W
LayerCount: 3
Fore
SplineSet
503 444 m 0,0,1
 503 400 503 400 484.5 367.5 c 128,-1,2
 466 335 466 335 411 281.5 c 128,-1,3
 356 228 356 228 207 100 c 1,4,-1
 408 100 l 1,5,6
 412 154 412 154 458 154 c 0,7,8
 508 154 508 154 508 88 c 2,9,-1
 508 0 l 1,10,-1
 54 0 l 1,11,-1
 54 105 l 1,12,13
 73 121 73 121 122.5 161 c 128,-1,14
 172 201 172 201 194.5 220 c 128,-1,15
 217 239 217 239 257 273.5 c 128,-1,16
 297 308 297 308 317 328 c 128,-1,17
 337 348 337 348 360.5 373 c 128,-1,18
 384 398 384 398 393.5 416 c 128,-1,19
 403 434 403 434 403 448 c 0,20,21
 403 486 403 486 370 512 c 128,-1,22
 337 538 337 538 288 538 c 0,23,24
 251 538 251 538 226.5 526 c 128,-1,25
 202 514 202 514 192 497 c 128,-1,26
 182 480 182 480 174.5 463 c 128,-1,27
 167 446 167 446 155 434 c 128,-1,28
 143 422 143 422 124 422 c 0,29,30
 104 422 104 422 89 436.5 c 128,-1,31
 74 451 74 451 74 470 c 0,32,33
 74 528 74 528 136.5 583 c 128,-1,34
 199 638 199 638 290 638 c 128,-1,35
 381 638 381 638 442 582.5 c 128,-1,36
 503 527 503 527 503 444 c 0,0,1
EndSplineSet
Validated: 1
EndChar

StartChar: three
Encoding: 20 51 20
Width: 600
GlyphClass: 2
Flags: W
LayerCount: 3
Fore
SplineSet
268 85 m 0,0,1
 429 85 429 85 429 183 c 0,2,3
 429 227 429 227 389 255 c 128,-1,4
 349 283 349 283 276 287 c 0,5,6
 224 290 224 290 224 333 c 0,7,8
 224 355 224 355 238.5 369 c 128,-1,9
 253 383 253 383 276 383 c 2,10,-1
 316 383 l 2,11,12
 353 383 353 383 380 406.5 c 128,-1,13
 407 430 407 430 407 462 c 0,14,15
 407 497 407 497 377 517.5 c 128,-1,16
 347 538 347 538 295 538 c 0,17,18
 256 538 256 538 230 528.5 c 128,-1,19
 204 519 204 519 195 507.5 c 128,-1,20
 186 496 186 496 173.5 486.5 c 128,-1,21
 161 477 161 477 144 477 c 0,22,23
 124 477 124 477 109.5 492 c 128,-1,24
 95 507 95 507 95 527 c 0,25,26
 95 570 95 570 158 604 c 128,-1,27
 221 638 221 638 301 638 c 0,28,29
 392 638 392 638 449.5 588 c 128,-1,30
 507 538 507 538 507 464 c 0,31,32
 507 423 507 423 486 392.5 c 128,-1,33
 465 362 465 362 416 333 c 1,34,35
 529 278 529 278 529 182 c 0,36,37
 529 146 529 146 517 114 c 128,-1,38
 505 82 505 82 478 51.5 c 128,-1,39
 451 21 451 21 397.5 3 c 128,-1,40
 344 -15 344 -15 271 -15 c 0,41,42
 179 -15 179 -15 122.5 8.5 c 128,-1,43
 66 32 66 32 66 70 c 0,44,45
 66 91 66 91 80.5 105.5 c 128,-1,46
 95 120 95 120 116 120 c 0,47,48
 126 120 126 120 136.5 114.5 c 128,-1,49
 147 109 147 109 157 102.5 c 128,-1,50
 167 96 167 96 196 90.5 c 128,-1,51
 225 85 225 85 268 85 c 0,0,1
EndSplineSet
Validated: 1
EndChar

StartChar: four
Encoding: 21 52 21
Width: 600
GlyphClass: 2
Flags: W
LayerCount: 3
Fore
SplineSet
243 50 m 128,-1,1
 243 100 243 100 309 100 c 2,2,-1
 347 100 l 1,3,-1
 347 138 l 1,4,-1
 75 138 l 1,5,-1
 75 221 l 1,6,-1
 316 622 l 1,7,-1
 447 622 l 1,8,-1
 447 238 l 1,9,10
 508 238 508 238 508 188 c 0,11,12
 508 140 508 140 447 138 c 1,13,-1
 447 100 l 1,14,15
 508 100 508 100 508 50 c 128,-1,16
 508 0 508 0 441 0 c 2,17,-1
 309 0 l 2,18,0
 243 0 243 0 243 50 c 128,-1,1
347 238 m 1,19,-1
 347 480 l 1,20,-1
 197 238 l 1,21,-1
 347 238 l 1,19,-1
EndSplineSet
Validated: 1
EndChar

StartChar: five
Encoding: 22 53 22
Width: 600
GlyphClass: 2
Flags: W
LayerCount: 3
Fore
SplineSet
487 572 m 0,0,1
 487 522 487 522 421 522 c 2,2,-1
 219 522 l 1,3,-1
 219 407 l 1,4,5
 275 424 275 424 318 424 c 0,6,7
 409 424 409 424 469 361 c 128,-1,8
 529 298 529 298 529 202 c 0,9,10
 529 174 529 174 523.5 147 c 128,-1,11
 518 120 518 120 501.5 89.5 c 128,-1,12
 485 59 485 59 458.5 37 c 128,-1,13
 432 15 432 15 385.5 0 c 128,-1,14
 339 -15 339 -15 278 -15 c 0,15,16
 188 -15 188 -15 127 13.5 c 128,-1,17
 66 42 66 42 66 84 c 0,18,19
 66 104 66 104 81 118.5 c 128,-1,20
 96 133 96 133 116 133 c 0,21,22
 129 133 129 133 140.5 125.5 c 128,-1,23
 152 118 152 118 162.5 109 c 128,-1,24
 173 100 173 100 202.5 92.5 c 128,-1,25
 232 85 232 85 277 85 c 0,26,27
 355 85 355 85 392 113.5 c 128,-1,28
 429 142 429 142 429 201 c 0,29,30
 429 256 429 256 398 290 c 128,-1,31
 367 324 367 324 317 324 c 0,32,33
 276 324 276 324 226 303 c 128,-1,34
 176 282 176 282 169 282 c 0,35,36
 147 282 147 282 133 298 c 128,-1,37
 119 314 119 314 119 338 c 2,38,-1
 119 622 l 1,39,-1
 421 622 l 2,40,41
 453 622 453 622 470 611.5 c 128,-1,42
 487 601 487 601 487 572 c 0,0,1
EndSplineSet
Validated: 1
EndChar

StartChar: six
Encoding: 23 54 23
Width: 600
GlyphClass: 2
Flags: W
LayerCount: 3
Fore
SplineSet
331 -15 m 0,0,1
 279 -15 279 -15 238.5 4.5 c 128,-1,2
 198 24 198 24 173.5 54 c 128,-1,3
 149 84 149 84 133 125 c 128,-1,4
 117 166 117 166 111 205 c 128,-1,5
 105 244 105 244 105 285 c 0,6,7
 105 417 105 417 182 514 c 0,8,9
 283 638 283 638 423 638 c 0,10,11
 476 638 476 638 508 620 c 128,-1,12
 540 602 540 602 540 573 c 0,13,14
 540 552 540 552 525 537 c 128,-1,15
 510 522 510 522 489 522 c 0,16,17
 483 522 483 522 460.5 528.5 c 128,-1,18
 438 535 438 535 429 535 c 0,19,20
 350 535 350 535 287.5 475.5 c 128,-1,21
 225 416 225 416 208 324 c 1,22,23
 244 362 244 362 275.5 378 c 128,-1,24
 307 394 307 394 345 394 c 0,25,26
 424 394 424 394 479.5 334 c 128,-1,27
 535 274 535 274 535 189 c 0,28,29
 535 98 535 98 481 41.5 c 128,-1,30
 427 -15 427 -15 331 -15 c 0,0,1
218 209 m 1,31,32
 229 144 229 144 257 114.5 c 128,-1,33
 285 85 285 85 334 85 c 0,34,35
 381 85 381 85 408 113 c 128,-1,36
 435 141 435 141 435 190 c 0,37,38
 435 233 435 233 407 263.5 c 128,-1,39
 379 294 379 294 338 294 c 0,40,41
 306 294 306 294 272 270 c 128,-1,42
 238 246 238 246 218 209 c 1,31,32
EndSplineSet
Validated: 1
EndChar

StartChar: seven
Encoding: 24 55 24
Width: 600
GlyphClass: 2
Flags: W
LayerCount: 3
Fore
SplineSet
125 468 m 0,0,1
 75 468 75 468 75 534 c 2,2,-1
 75 622 l 1,3,-1
 508 622 l 1,4,-1
 508 523 l 1,5,-1
 349 48 l 2,6,7
 339 21 339 21 327.5 10 c 128,-1,8
 316 -1 316 -1 297 -1 c 0,9,10
 277 -1 277 -1 261.5 13.5 c 128,-1,11
 246 28 246 28 246 47 c 0,12,13
 246 61 246 61 253 81 c 2,14,-1
 403 522 l 1,15,-1
 175 522 l 1,16,17
 170 468 170 468 125 468 c 0,0,1
EndSplineSet
Validated: 1
EndChar

StartChar: eight
Encoding: 25 56 25
Width: 600
GlyphClass: 2
Flags: W
LayerCount: 3
Fore
SplineSet
420 319 m 1,0,1
 517 258 517 258 517 165 c 0,2,3
 517 85 517 85 456.5 35 c 128,-1,4
 396 -15 396 -15 299 -15 c 0,5,6
 203 -15 203 -15 143 35 c 128,-1,7
 83 85 83 85 83 165 c 0,8,9
 83 258 83 258 180 319 c 1,10,11
 92 378 92 378 92 455 c 128,-1,12
 92 532 92 532 152.5 585 c 128,-1,13
 213 638 213 638 300 638 c 0,14,15
 386 638 386 638 447 585 c 128,-1,16
 508 532 508 532 508 457 c 0,17,18
 508 378 508 378 420 319 c 1,0,1
300 538 m 128,-1,20
 252 538 252 538 222 513.5 c 128,-1,21
 192 489 192 489 192 451 c 128,-1,22
 192 413 192 413 222.5 388.5 c 128,-1,23
 253 364 253 364 300 364 c 128,-1,24
 347 364 347 364 377.5 388 c 128,-1,25
 408 412 408 412 408 450 c 0,26,27
 408 489 408 489 378 513.5 c 128,-1,19
 348 538 348 538 300 538 c 128,-1,20
300 263 m 0,28,29
 252 263 252 263 217.5 236.5 c 128,-1,30
 183 210 183 210 183 173 c 0,31,32
 183 135 183 135 216 110 c 128,-1,33
 249 85 249 85 300 85 c 128,-1,34
 351 85 351 85 384 109.5 c 128,-1,35
 417 134 417 134 417 172 c 128,-1,36
 417 210 417 210 383 236.5 c 128,-1,37
 349 263 349 263 300 263 c 0,28,29
EndSplineSet
Validated: 1
EndChar

StartChar: nine
Encoding: 26 57 26
Width: 600
GlyphClass: 2
Flags: W
LayerCount: 3
Fore
SplineSet
315 638 m 0,0,1
 379 638 379 638 426 610 c 128,-1,2
 473 582 473 582 496.5 535 c 128,-1,3
 520 488 520 488 530.5 439.5 c 128,-1,4
 541 391 541 391 541 338 c 0,5,6
 541 206 541 206 464 109 c 0,7,8
 363 -15 363 -15 223 -15 c 0,9,10
 170 -15 170 -15 138 3 c 128,-1,11
 106 21 106 21 106 50 c 0,12,13
 106 71 106 71 121 86 c 128,-1,14
 136 101 136 101 157 101 c 0,15,16
 163 101 163 101 185.5 94.5 c 128,-1,17
 208 88 208 88 217 88 c 0,18,19
 296 88 296 88 358.5 147.5 c 128,-1,20
 421 207 421 207 438 299 c 1,21,22
 372 229 372 229 302 229 c 0,23,24
 223 229 223 229 167 289 c 128,-1,25
 111 349 111 349 111 434 c 0,26,27
 111 525 111 525 165 581.5 c 128,-1,28
 219 638 219 638 315 638 c 0,0,1
428 414 m 1,29,30
 417 479 417 479 389 508.5 c 128,-1,31
 361 538 361 538 312 538 c 0,32,33
 265 538 265 538 238 510 c 128,-1,34
 211 482 211 482 211 433 c 0,35,36
 211 390 211 390 239 359.5 c 128,-1,37
 267 329 267 329 308 329 c 0,38,39
 340 329 340 329 374 353 c 128,-1,40
 408 377 408 377 428 414 c 1,29,30
EndSplineSet
Validated: 1
EndChar

StartChar: colon
Encoding: 27 58 27
Width: 600
GlyphClass: 2
Flags: W
LayerCount: 3
Fore
SplineSet
309 -15 m 2,0,-1
 291 -15 l 2,1,2
 264 -15 264 -15 244.5 4.5 c 128,-1,3
 225 24 225 24 225 51 c 128,-1,4
 225 78 225 78 244.5 97.5 c 128,-1,5
 264 117 264 117 291 117 c 2,6,-1
 309 117 l 2,7,8
 337 117 337 117 356 98 c 128,-1,9
 375 79 375 79 375 51 c 128,-1,10
 375 23 375 23 356 4 c 128,-1,11
 337 -15 337 -15 309 -15 c 2,0,-1
309 304 m 2,12,-1
 291 304 l 2,13,14
 264 304 264 304 244.5 323.5 c 128,-1,15
 225 343 225 343 225 370 c 0,16,17
 225 398 225 398 244.5 417.5 c 128,-1,18
 264 437 264 437 291 437 c 2,19,-1
 309 437 l 2,20,21
 337 437 337 437 356 417.5 c 128,-1,22
 375 398 375 398 375 370 c 128,-1,23
 375 342 375 342 356 323 c 128,-1,24
 337 304 337 304 309 304 c 2,12,-1
EndSplineSet
Validated: 1
EndChar

StartChar: semicolon
Encoding: 28 59 28
Width: 600
GlyphClass: 2
Flags: W
LayerCount: 3
Fore
SplineSet
219 134 m 1,0,-1
 351 134 l 1,1,-1
 210 -134 l 2,2,3
 198 -158 198 -158 178 -158 c 0,4,5
 165 -158 165 -158 156 -149.5 c 128,-1,6
 147 -141 147 -141 147 -130 c 0,7,8
 147 -122 147 -122 150 -111 c 2,9,-1
 219 134 l 1,0,-1
276 437 m 128,-1,11
 310 437 310 437 330.5 419 c 128,-1,12
 351 401 351 401 351 370 c 0,13,14
 351 340 351 340 330.5 322 c 128,-1,15
 310 304 310 304 276 304 c 128,-1,16
 242 304 242 304 221.5 322.5 c 128,-1,17
 201 341 201 341 201 371 c 0,18,19
 201 400 201 400 221.5 418.5 c 128,-1,10
 242 437 242 437 276 437 c 128,-1,11
EndSplineSet
Validated: 1
EndChar

StartChar: less
Encoding: 29 60 29
Width: 600
GlyphClass: 2
Flags: W
LayerCount: 3
Fore
SplineSet
502 501 m 0,0,1
 519 501 519 501 531.5 485.5 c 128,-1,2
 544 470 544 470 544 455 c 0,3,4
 544 429 544 429 512 412 c 2,5,-1
 251 279 l 1,6,-1
 512 143 l 2,7,8
 544 126 544 126 544 100 c 0,9,10
 544 85 544 85 531.5 69.5 c 128,-1,11
 519 54 519 54 502 54 c 0,12,13
 488 54 488 54 472 63 c 2,14,-1
 42 280 l 1,15,-1
 472 492 l 2,16,17
 490 501 490 501 502 501 c 0,0,1
EndSplineSet
Validated: 1
EndChar

StartChar: equal
Encoding: 30 61 30
Width: 600
GlyphClass: 2
Flags: W
LayerCount: 3
Fore
SplineSet
42 372 m 0,0,1
 42 401 42 401 59 411.5 c 128,-1,2
 76 422 76 422 108 422 c 2,3,-1
 492 422 l 2,4,5
 558 422 558 422 558 372 c 128,-1,6
 558 322 558 322 492 322 c 2,7,-1
 108 322 l 2,8,9
 42 322 42 322 42 372 c 0,0,1
42 188 m 0,10,11
 42 217 42 217 59 227.5 c 128,-1,12
 76 238 76 238 108 238 c 2,13,-1
 492 238 l 2,14,15
 558 238 558 238 558 188 c 128,-1,16
 558 138 558 138 492 138 c 2,17,-1
 108 138 l 2,18,19
 42 138 42 138 42 188 c 0,10,11
EndSplineSet
Validated: 1
EndChar

StartChar: greater
Encoding: 31 62 31
Width: 600
GlyphClass: 2
Flags: W
LayerCount: 3
Fore
SplineSet
98 53 m 0,0,1
 81 53 81 53 68.5 68.5 c 128,-1,2
 56 84 56 84 56 100 c 0,3,4
 56 125 56 125 88 142 c 2,5,-1
 349 275 l 1,6,-1
 88 412 l 2,7,8
 56 427 56 427 56 453 c 0,9,10
 56 469 56 469 68.5 484.5 c 128,-1,11
 81 500 81 500 98 500 c 0,12,13
 112 500 112 500 128 491 c 2,14,-1
 558 274 l 1,15,-1
 128 62 l 2,16,17
 110 53 110 53 98 53 c 0,0,1
EndSplineSet
Validated: 1
EndChar

StartChar: question
Encoding: 32 63 32
Width: 600
GlyphClass: 2
Flags: W
LayerCount: 3
Fore
SplineSet
154 394 m 128,-1,1
 104 394 104 394 104 460 c 2,2,-1
 104 539 l 1,3,4
 176 574 176 574 218 586 c 128,-1,5
 260 598 260 598 308 598 c 0,6,7
 401 598 401 598 459 545.5 c 128,-1,8
 517 493 517 493 517 409 c 0,9,10
 517 348 517 348 480.5 308 c 128,-1,11
 444 268 444 268 353 228 c 1,12,13
 347 174 347 174 303 174 c 0,14,15
 253 174 253 174 253 240 c 2,16,-1
 253 296 l 1,17,18
 349 333 349 333 383 357.5 c 128,-1,19
 417 382 417 382 417 414 c 0,20,21
 417 451 417 451 387 474.5 c 128,-1,22
 357 498 357 498 309 498 c 0,23,24
 254 498 254 498 204 474 c 1,25,-1
 204 460 l 2,26,0
 204 394 204 394 154 394 c 128,-1,1
311 -15 m 2,27,-1
 294 -15 l 2,28,29
 266 -15 266 -15 246.5 4.5 c 128,-1,30
 227 24 227 24 227 51 c 128,-1,31
 227 78 227 78 246.5 97.5 c 128,-1,32
 266 117 266 117 294 117 c 2,33,-1
 311 117 l 2,34,35
 339 117 339 117 358 98 c 128,-1,36
 377 79 377 79 377 51 c 128,-1,37
 377 23 377 23 358 4 c 128,-1,38
 339 -15 339 -15 311 -15 c 2,27,-1
EndSplineSet
Validated: 1
EndChar

StartChar: at
Encoding: 33 64 33
Width: 600
GlyphClass: 2
Flags: W
LayerCount: 3
Fore
SplineSet
302 -152 m 0,0,1
 250 -152 250 -152 209 -131 c 128,-1,2
 168 -110 168 -110 144 -78 c 128,-1,3
 120 -46 120 -46 104 -3.5 c 128,-1,4
 88 39 88 39 82 77.5 c 128,-1,5
 76 116 76 116 76 154 c 2,6,-1
 76 323 l 2,7,8
 76 452 76 452 139.5 536 c 128,-1,9
 203 620 203 620 301 620 c 0,10,11
 382 620 382 620 434 566 c 128,-1,12
 486 512 486 512 486 429 c 2,13,-1
 486 148 l 1,14,15
 509 138 509 138 509 113 c 0,16,17
 509 72 509 72 454 72 c 2,18,-1
 407 72 l 1,19,-1
 407 75 l 1,20,21
 384 72 384 72 374 72 c 0,22,23
 310 72 310 72 264 118 c 128,-1,24
 218 164 218 164 218 226 c 0,25,26
 218 296 218 296 270.5 343.5 c 128,-1,27
 323 391 323 391 407 397 c 1,28,-1
 407 429 l 2,29,30
 407 479 407 479 377.5 510 c 128,-1,31
 348 541 348 541 302 541 c 0,32,33
 239 541 239 541 197 477 c 128,-1,34
 155 413 155 413 155 317 c 2,35,-1
 155 161 l 2,36,37
 155 123 155 123 162 85.5 c 128,-1,38
 169 48 169 48 184.5 10 c 128,-1,39
 200 -28 200 -28 231 -51 c 128,-1,40
 262 -74 262 -74 305 -74 c 0,41,42
 339 -74 339 -74 363.5 -66.5 c 128,-1,43
 388 -59 388 -59 398 -49.5 c 128,-1,44
 408 -40 408 -40 418.5 -32.5 c 128,-1,45
 429 -25 429 -25 439 -25 c 0,46,47
 456 -25 456 -25 467.5 -37 c 128,-1,48
 479 -49 479 -49 479 -66 c 0,49,50
 479 -101 479 -101 426.5 -126.5 c 128,-1,51
 374 -152 374 -152 302 -152 c 0,0,1
407 155 m 1,52,-1
 407 316 l 1,53,54
 357 311 357 311 327 286.5 c 128,-1,55
 297 262 297 262 297 225 c 0,56,57
 297 194 297 194 321 173.5 c 128,-1,58
 345 153 345 153 381 153 c 0,59,60
 393 153 393 153 407 155 c 1,52,-1
EndSplineSet
Validated: 1
EndChar

StartChar: A
Encoding: 34 65 34
Width: 600
GlyphClass: 2
Flags: W
LayerCount: 3
Fore
SplineSet
350 50 m 0,0,1
 350 79 350 79 367 89.5 c 128,-1,2
 384 100 384 100 416 100 c 2,3,-1
 439 100 l 1,4,-1
 416 158 l 1,5,-1
 178 158 l 1,6,-1
 155 100 l 1,7,-1
 178 100 l 2,8,9
 244 100 244 100 244 50 c 128,-1,10
 244 0 244 0 178 0 c 2,11,-1
 45 0 l 2,12,13
 -21 0 -21 0 -21 50 c 0,14,15
 -21 80 -21 80 -3.5 90 c 128,-1,16
 14 100 14 100 46 100 c 1,17,-1
 201 483 l 1,18,-1
 138 483 l 2,19,20
 71 483 71 483 71 533 c 0,21,22
 71 563 71 563 88.5 573 c 128,-1,23
 106 583 106 583 138 583 c 2,24,-1
 354 583 l 1,25,-1
 553 100 l 1,26,27
 621 100 621 100 621 50 c 128,-1,28
 621 0 621 0 555 0 c 2,29,-1
 416 0 l 2,30,31
 350 0 350 0 350 50 c 0,0,1
375 258 m 1,32,-1
 297 450 l 1,33,-1
 218 258 l 1,34,-1
 375 258 l 1,32,-1
EndSplineSet
Validated: 1
EndChar

StartChar: B
Encoding: 35 66 35
Width: 600
GlyphClass: 2
Flags: W
LayerCount: 3
Fore
SplineSet
13 50 m 128,-1,1
 13 100 13 100 79 100 c 2,2,-1
 94 100 l 1,3,-1
 94 483 l 1,4,-1
 79 483 l 2,5,6
 13 483 13 483 13 533 c 0,7,8
 13 562 13 562 30.5 572.5 c 128,-1,9
 48 583 48 583 79 583 c 2,10,-1
 332 583 l 2,11,12
 417 583 417 583 472.5 536 c 128,-1,13
 528 489 528 489 528 418 c 0,14,15
 528 354 528 354 465 305 c 1,16,17
 571 252 571 252 571 160 c 0,18,19
 571 88 571 88 517 44 c 128,-1,20
 463 0 463 0 374 0 c 2,21,-1
 79 0 l 2,22,0
 13 0 13 0 13 50 c 128,-1,1
194 342 m 1,23,-1
 307 342 l 2,24,25
 361 342 361 342 394.5 363.5 c 128,-1,26
 428 385 428 385 428 419 c 0,27,28
 428 449 428 449 401 466 c 128,-1,29
 374 483 374 483 327 483 c 2,30,-1
 194 483 l 1,31,-1
 194 342 l 1,23,-1
471 154 m 0,32,33
 471 194 471 194 432 218 c 128,-1,34
 393 242 393 242 329 242 c 2,35,-1
 194 242 l 1,36,-1
 194 100 l 1,37,-1
 369 100 l 2,38,39
 471 100 471 100 471 154 c 0,32,33
EndSplineSet
Validated: 1
EndChar

StartChar: C
Encoding: 36 67 36
Width: 600
GlyphClass: 2
Flags: W
LayerCount: 3
Fore
SplineSet
330 86 m 0,0,1
 377 86 377 86 410.5 97.5 c 128,-1,2
 444 109 444 109 458 122.5 c 128,-1,3
 472 136 472 136 486.5 147.5 c 128,-1,4
 501 159 501 159 514 159 c 0,5,6
 534 159 534 159 549 144 c 128,-1,7
 564 129 564 129 564 109 c 0,8,9
 564 66 564 66 495.5 26 c 128,-1,10
 427 -14 427 -14 327 -14 c 0,11,12
 200 -14 200 -14 116.5 60.5 c 128,-1,13
 33 135 33 135 33 249 c 2,14,-1
 33 315 l 2,15,16
 33 435 33 435 111 516 c 128,-1,17
 189 597 189 597 305 597 c 0,18,19
 375 597 375 597 447 563 c 1,20,-1
 457 559 l 1,21,22
 474 583 474 583 499 583 c 0,23,24
 528 583 528 583 538.5 566 c 128,-1,25
 549 549 549 549 549 517 c 2,26,-1
 549 433 l 2,27,28
 549 367 549 367 499 367 c 0,29,30
 481 367 481 367 469.5 377 c 128,-1,31
 458 387 458 387 455.5 395.5 c 128,-1,32
 453 404 453 404 450 420 c 0,33,34
 444 450 444 450 413.5 468.5 c 128,-1,35
 383 487 383 487 357 492 c 128,-1,36
 331 497 331 497 309 497 c 0,37,38
 233 497 233 497 183 445.5 c 128,-1,39
 133 394 133 394 133 315 c 2,40,-1
 133 251 l 2,41,42
 133 176 133 176 186.5 131 c 128,-1,43
 240 86 240 86 330 86 c 0,0,1
EndSplineSet
Validated: 1
EndChar

StartChar: D
Encoding: 37 68 37
Width: 600
GlyphClass: 2
Flags: W
LayerCount: 3
Fore
SplineSet
80 0 m 2,0,1
 13 0 13 0 13 50 c 0,2,3
 13 74 13 74 29 87 c 128,-1,4
 45 100 45 100 74 100 c 1,5,-1
 74 483 l 1,6,7
 13 483 13 483 13 533 c 0,8,9
 13 563 13 563 30.5 573 c 128,-1,10
 48 583 48 583 80 583 c 2,11,-1
 292 583 l 2,12,13
 401 583 401 583 475.5 503 c 128,-1,14
 550 423 550 423 550 305 c 2,15,-1
 550 258 l 2,16,17
 550 141 550 141 477.5 70.5 c 128,-1,18
 405 0 405 0 284 0 c 2,19,-1
 80 0 l 2,0,1
450 307 m 2,20,21
 450 382 450 382 404.5 432.5 c 128,-1,22
 359 483 359 483 284 483 c 2,23,-1
 174 483 l 1,24,-1
 174 100 l 1,25,-1
 285 100 l 2,26,27
 335 100 335 100 369.5 115 c 128,-1,28
 404 130 404 130 420.5 156 c 128,-1,29
 437 182 437 182 443.5 207 c 128,-1,30
 450 232 450 232 450 261 c 2,31,-1
 450 307 l 2,20,21
EndSplineSet
Validated: 1
EndChar

StartChar: E
Encoding: 38 69 38
Width: 600
GlyphClass: 2
Flags: W
LayerCount: 3
Fore
SplineSet
500 219 m 128,-1,1
 550 219 550 219 550 152 c 2,2,-1
 550 0 l 1,3,-1
 79 0 l 2,4,5
 13 0 13 0 13 50 c 128,-1,6
 13 100 13 100 79 100 c 2,7,-1
 94 100 l 1,8,-1
 94 483 l 1,9,-1
 79 483 l 2,10,11
 13 483 13 483 13 533 c 0,12,13
 13 562 13 562 30 572.5 c 128,-1,14
 47 583 47 583 79 583 c 2,15,-1
 528 583 l 1,16,-1
 528 433 l 2,17,18
 528 366 528 366 478 366 c 128,-1,19
 428 366 428 366 428 433 c 2,20,-1
 428 483 l 1,21,-1
 194 483 l 1,22,-1
 194 342 l 1,23,-1
 279 342 l 1,24,-1
 279 349 l 2,25,26
 279 416 279 416 328 416 c 0,27,28
 378 416 378 416 378 349 c 2,29,-1
 378 236 l 2,30,31
 378 170 378 170 329 170 c 0,32,33
 279 170 279 170 279 236 c 2,34,-1
 279 243 l 1,35,-1
 194 243 l 1,36,-1
 194 100 l 1,37,-1
 450 100 l 1,38,-1
 450 152 l 2,39,0
 450 219 450 219 500 219 c 128,-1,1
EndSplineSet
Validated: 1
EndChar

StartChar: F
Encoding: 39 70 39
Width: 600
GlyphClass: 2
Flags: W
LayerCount: 3
Fore
SplineSet
329 169 m 4,0,1
 279 169 279 169 279 236 c 6,2,-1
 279 243 l 5,3,-1
 194 243 l 5,4,-1
 194 100 l 5,5,-1
 294 100 l 6,6,7
 360 100 360 100 360 50 c 132,-1,8
 360 0 360 0 294 0 c 6,9,-1
 79 0 l 6,10,11
 13 0 13 0 13 50 c 132,-1,12
 13 100 13 100 79 100 c 6,13,-1
 94 100 l 5,14,-1
 94 483 l 5,15,-1
 79 483 l 6,16,17
 13 483 13 483 13 533 c 4,18,19
 13 562 13 562 30 572.5 c 132,-1,20
 47 583 47 583 79 583 c 6,21,-1
 550 583 l 5,22,-1
 550 432 l 6,23,24
 550 366 550 366 500 366 c 132,-1,25
 450 366 450 366 450 432 c 6,26,-1
 450 483 l 5,27,-1
 194 483 l 5,28,-1
 194 342 l 5,29,-1
 279 342 l 5,30,-1
 279 349 l 6,31,32
 279 415 279 415 329 415 c 4,33,34
 378 415 378 415 378 349 c 6,35,-1
 378 236 l 6,36,37
 378 169 378 169 329 169 c 4,0,1
EndSplineSet
Validated: 1
EndChar

StartChar: G
Encoding: 40 71 40
Width: 600
GlyphClass: 2
Flags: W
LayerCount: 3
Fore
SplineSet
525 280 m 2,0,1
 592 280 592 280 592 230 c 0,2,3
 592 192 592 192 550 180 c 1,4,-1
 550 48 l 1,5,6
 483 13 483 13 436 -0.5 c 128,-1,7
 389 -14 389 -14 331 -14 c 0,8,9
 263 -14 263 -14 209 2.5 c 128,-1,10
 155 19 155 19 123 45 c 128,-1,11
 91 71 91 71 70 106.5 c 128,-1,12
 49 142 49 142 41 176 c 128,-1,13
 33 210 33 210 33 246 c 2,14,-1
 33 317 l 2,15,16
 33 434 33 434 112.5 515.5 c 128,-1,17
 192 597 192 597 317 597 c 0,18,19
 398 597 398 597 462 565 c 1,20,21
 478 597 478 597 503 597 c 0,22,23
 530 597 530 597 540 580.5 c 128,-1,24
 550 564 550 564 550 531 c 2,25,-1
 550 453 l 2,26,27
 550 421 550 421 539.5 404 c 128,-1,28
 529 387 529 387 500 387 c 0,29,30
 493 387 493 387 486.5 388.5 c 128,-1,31
 480 390 480 390 476 392.5 c 128,-1,32
 472 395 472 395 468.5 399 c 128,-1,33
 465 403 465 403 462.5 406.5 c 128,-1,34
 460 410 460 410 458 415.5 c 128,-1,35
 456 421 456 421 455 424 c 128,-1,36
 454 427 454 427 452.5 432.5 c 128,-1,37
 451 438 451 438 451 440 c 0,38,39
 443 466 443 466 408 481.5 c 128,-1,40
 373 497 373 497 318 497 c 0,41,42
 234 497 234 497 183.5 447.5 c 128,-1,43
 133 398 133 398 133 317 c 2,44,-1
 133 253 l 2,45,46
 133 86 133 86 325 86 c 0,47,48
 394 86 394 86 450 111 c 1,49,-1
 450 180 l 1,50,-1
 350 180 l 2,51,52
 284 180 284 180 284 230 c 0,53,54
 284 259 284 259 301 269.5 c 128,-1,55
 318 280 318 280 350 280 c 2,56,-1
 525 280 l 2,0,1
EndSplineSet
Validated: 1
EndChar

StartChar: H
Encoding: 41 72 41
Width: 600
GlyphClass: 2
Flags: W
LayerCount: 3
Fore
SplineSet
328 50 m 128,-1,1
 328 100 328 100 394 100 c 2,2,-1
 409 100 l 1,3,-1
 409 241 l 1,4,-1
 195 241 l 1,5,-1
 195 100 l 1,6,-1
 210 100 l 2,7,8
 276 100 276 100 276 50 c 128,-1,9
 276 0 276 0 210 0 c 2,10,-1
 89 0 l 2,11,12
 23 0 23 0 23 50 c 0,13,14
 23 79 23 79 40 89.5 c 128,-1,15
 57 100 57 100 89 100 c 2,16,-1
 95 100 l 1,17,-1
 95 483 l 1,18,19
 43 488 43 488 43 533 c 0,20,21
 43 562 43 562 60 572.5 c 128,-1,22
 77 583 77 583 109 583 c 2,23,-1
 210 583 l 2,24,25
 276 583 276 583 276 533 c 128,-1,26
 276 483 276 483 210 483 c 2,27,-1
 195 483 l 1,28,-1
 195 341 l 1,29,-1
 409 341 l 1,30,-1
 409 483 l 1,31,-1
 394 483 l 2,32,33
 328 483 328 483 328 533 c 0,34,35
 328 562 328 562 345 572.5 c 128,-1,36
 362 583 362 583 394 583 c 2,37,-1
 495 583 l 2,38,39
 561 583 561 583 561 533 c 0,40,41
 561 488 561 488 509 483 c 1,42,-1
 509 100 l 1,43,-1
 515 100 l 2,44,45
 581 100 581 100 581 50 c 128,-1,46
 581 0 581 0 515 0 c 2,47,-1
 394 0 l 2,48,0
 328 0 328 0 328 50 c 128,-1,1
EndSplineSet
Validated: 1
EndChar

StartChar: I
Encoding: 42 73 42
Width: 600
GlyphClass: 2
Flags: W
LayerCount: 3
Fore
SplineSet
451 100 m 2,0,1
 483 100 483 100 500 89.5 c 128,-1,2
 517 79 517 79 517 50 c 0,3,4
 517 0 517 0 451 0 c 2,5,-1
 149 0 l 2,6,7
 83 0 83 0 83 50 c 0,8,9
 83 79 83 79 100 89.5 c 128,-1,10
 117 100 117 100 149 100 c 2,11,-1
 250 100 l 1,12,-1
 250 483 l 1,13,-1
 149 483 l 2,14,15
 83 483 83 483 83 533 c 0,16,17
 83 562 83 562 100 572.5 c 128,-1,18
 117 583 117 583 149 583 c 2,19,-1
 451 583 l 2,20,21
 483 583 483 583 500 572.5 c 128,-1,22
 517 562 517 562 517 533 c 0,23,24
 517 483 517 483 451 483 c 2,25,-1
 350 483 l 1,26,-1
 350 100 l 1,27,-1
 451 100 l 2,0,1
EndSplineSet
Validated: 1
EndChar

StartChar: J
Encoding: 43 74 43
Width: 600
GlyphClass: 2
Flags: W
LayerCount: 3
Fore
SplineSet
613 533 m 128,-1,1
 613 483 613 483 547 483 c 2,2,-1
 490 483 l 1,3,-1
 490 187 l 2,4,5
 490 97 490 97 426.5 41.5 c 128,-1,6
 363 -14 363 -14 269 -14 c 0,7,8
 185 -14 185 -14 54 51 c 1,9,-1
 54 213 l 2,10,11
 54 280 54 280 104 280 c 0,12,13
 134 280 134 280 144 262.5 c 128,-1,14
 154 245 154 245 154 213 c 2,15,-1
 154 117 l 1,16,17
 223 86 223 86 271 86 c 0,18,19
 328 86 328 86 366 122 c 0,20,21
 382 138 382 138 386 151 c 128,-1,22
 390 164 390 164 390 198 c 2,23,-1
 390 483 l 1,24,-1
 271 483 l 2,25,26
 205 483 205 483 205 533 c 0,27,28
 205 562 205 562 222 572.5 c 128,-1,29
 239 583 239 583 271 583 c 2,30,-1
 547 583 l 2,31,0
 613 583 613 583 613 533 c 128,-1,1
EndSplineSet
Validated: 1
EndChar

StartChar: K
Encoding: 44 75 44
Width: 600
GlyphClass: 2
Flags: W
LayerCount: 3
Fore
SplineSet
295 533 m 128,-1,1
 295 483 295 483 229 483 c 2,2,-1
 194 483 l 1,3,-1
 194 334 l 1,4,-1
 372 487 l 1,5,6
 341 499 341 499 341 532 c 0,7,8
 341 583 341 583 407 583 c 2,9,-1
 507 583 l 2,10,11
 573 583 573 583 573 533 c 128,-1,12
 573 483 573 483 511 483 c 1,13,-1
 335 330 l 1,14,15
 432 279 432 279 504 100 c 1,16,-1
 536 100 l 2,17,18
 602 100 602 100 602 50 c 128,-1,19
 602 0 602 0 536 0 c 2,20,-1
 426 0 l 1,21,22
 391 107 391 107 345.5 176 c 128,-1,23
 300 245 300 245 254 259 c 1,24,-1
 194 208 l 1,25,-1
 194 100 l 1,26,-1
 229 100 l 2,27,28
 295 100 295 100 295 50 c 128,-1,29
 295 0 295 0 229 0 c 2,30,-1
 79 0 l 2,31,32
 13 0 13 0 13 50 c 128,-1,33
 13 100 13 100 79 100 c 2,34,-1
 94 100 l 1,35,-1
 94 483 l 1,36,-1
 79 483 l 2,37,38
 13 483 13 483 13 533 c 0,39,40
 13 562 13 562 30 572.5 c 128,-1,41
 47 583 47 583 79 583 c 2,42,-1
 229 583 l 2,43,0
 295 583 295 583 295 533 c 128,-1,1
EndSplineSet
Validated: 1
EndChar

StartChar: L
Encoding: 45 76 45
Width: 600
GlyphClass: 2
Flags: W
LayerCount: 3
Fore
SplineSet
521 259 m 0,0,1
 550 259 550 259 560.5 242 c 128,-1,2
 571 225 571 225 571 192 c 2,3,-1
 571 0 l 1,4,-1
 99 0 l 2,5,6
 33 0 33 0 33 50 c 0,7,8
 33 79 33 79 50 89.5 c 128,-1,9
 67 100 67 100 99 100 c 2,10,-1
 156 100 l 1,11,-1
 156 483 l 1,12,-1
 99 483 l 2,13,14
 33 483 33 483 33 533 c 0,15,16
 33 562 33 562 50 572.5 c 128,-1,17
 67 583 67 583 99 583 c 2,18,-1
 313 583 l 2,19,20
 379 583 379 583 379 533 c 128,-1,21
 379 483 379 483 313 483 c 2,22,-1
 256 483 l 1,23,-1
 256 100 l 1,24,-1
 471 100 l 1,25,-1
 471 192 l 2,26,27
 471 259 471 259 521 259 c 0,0,1
EndSplineSet
Validated: 1
EndChar

StartChar: M
Encoding: 46 77 46
Width: 600
GlyphClass: 2
Flags: W
LayerCount: 3
Fore
SplineSet
361 50 m 0,0,1
 361 79 361 79 378 89.5 c 128,-1,2
 395 100 395 100 427 100 c 2,3,-1
 462 100 l 1,4,-1
 462 389 l 1,5,-1
 351 137 l 1,6,-1
 260 137 l 1,7,-1
 142 388 l 1,8,-1
 142 100 l 1,9,-1
 177 100 l 2,10,11
 210 100 210 100 226.5 89.5 c 128,-1,12
 243 79 243 79 243 50 c 0,13,14
 243 0 243 0 177 0 c 2,15,-1
 48 0 l 2,16,17
 -19 0 -19 0 -19 50 c 128,-1,18
 -19 100 -19 100 42 100 c 1,19,-1
 42 482 l 1,20,21
 -10 487 -10 487 -10 533 c 0,22,23
 -10 553 -10 553 4 568 c 128,-1,24
 18 583 18 583 52 583 c 2,25,-1
 165 583 l 1,26,-1
 303 285 l 1,27,-1
 438 583 l 1,28,-1
 548 583 l 2,29,30
 614 583 614 583 614 533 c 0,31,32
 614 488 614 488 562 483 c 1,33,-1
 562 100 l 1,34,35
 623 100 623 100 623 50 c 128,-1,36
 623 0 623 0 557 0 c 2,37,-1
 427 0 l 2,38,39
 361 0 361 0 361 50 c 0,0,1
EndSplineSet
Validated: 1
EndChar

StartChar: N
Encoding: 47 78 47
Width: 600
GlyphClass: 2
Flags: W
LayerCount: 3
Fore
SplineSet
526 583 m 2,0,1
 592 583 592 583 592 533 c 128,-1,2
 592 483 592 483 531 483 c 1,3,-1
 531 0 l 1,4,-1
 432 0 l 1,5,-1
 173 394 l 1,6,-1
 173 100 l 1,7,-1
 208 100 l 2,8,9
 240 100 240 100 257 89.5 c 128,-1,10
 274 79 274 79 274 50 c 0,11,12
 274 0 274 0 208 0 c 2,13,-1
 79 0 l 2,14,15
 12 0 12 0 12 50 c 128,-1,16
 12 100 12 100 73 100 c 1,17,-1
 73 483 l 1,18,-1
 58 483 l 2,19,20
 -8 483 -8 483 -8 533 c 0,21,22
 -8 562 -8 562 9 572.5 c 128,-1,23
 26 583 26 583 58 583 c 2,24,-1
 173 583 l 1,25,-1
 431 191 l 1,26,-1
 431 483 l 1,27,-1
 396 483 l 2,28,29
 330 483 330 483 330 533 c 0,30,31
 330 562 330 562 347 572.5 c 128,-1,32
 364 583 364 583 396 583 c 2,33,-1
 526 583 l 2,0,1
EndSplineSet
Validated: 1
EndChar

StartChar: O
Encoding: 48 79 48
Width: 600
GlyphClass: 2
Flags: W
LayerCount: 3
Fore
SplineSet
300 597 m 0,0,1
 322 597 322 597 352 590.5 c 128,-1,2
 382 584 382 584 423.5 563 c 128,-1,3
 465 542 465 542 498.5 510 c 128,-1,4
 532 478 532 478 555.5 419.5 c 128,-1,5
 579 361 579 361 579 287 c 0,6,7
 579 164 579 164 496.5 75 c 128,-1,8
 414 -14 414 -14 300 -14 c 0,9,10
 184 -14 184 -14 102.5 75.5 c 128,-1,11
 21 165 21 165 21 292 c 0,12,13
 21 418 21 418 103 507.5 c 128,-1,14
 185 597 185 597 300 597 c 0,0,1
300 497 m 0,15,16
 227 497 227 497 174 436.5 c 128,-1,17
 121 376 121 376 121 292 c 0,18,19
 121 207 121 207 173.5 146.5 c 128,-1,20
 226 86 226 86 300 86 c 0,21,22
 373 86 373 86 426 146 c 128,-1,23
 479 206 479 206 479 289 c 0,24,25
 479 375 479 375 426.5 436 c 128,-1,26
 374 497 374 497 300 497 c 0,15,16
EndSplineSet
Validated: 1
EndChar

StartChar: P
Encoding: 49 80 49
Width: 600
GlyphClass: 2
Flags: W
LayerCount: 3
Fore
SplineSet
529 394 m 0,0,1
 529 367 529 367 523 342 c 128,-1,2
 517 317 517 317 500 290.5 c 128,-1,3
 483 264 483 264 457.5 244.5 c 128,-1,4
 432 225 432 225 389.5 212.5 c 128,-1,5
 347 200 347 200 292 200 c 2,6,-1
 194 200 l 1,7,-1
 194 100 l 1,8,-1
 293 100 l 2,9,10
 359 100 359 100 359 50 c 128,-1,11
 359 0 359 0 293 0 c 2,12,-1
 79 0 l 2,13,14
 13 0 13 0 13 50 c 128,-1,15
 13 100 13 100 79 100 c 2,16,-1
 94 100 l 1,17,-1
 94 483 l 1,18,-1
 79 483 l 2,19,20
 13 483 13 483 13 533 c 0,21,22
 13 562 13 562 30 572.5 c 128,-1,23
 47 583 47 583 79 583 c 2,24,-1
 312 583 l 2,25,26
 407 583 407 583 468 530 c 128,-1,27
 529 477 529 477 529 394 c 0,0,1
194 483 m 1,28,-1
 194 300 l 1,29,-1
 312 300 l 2,30,31
 364 300 364 300 393.5 324.5 c 128,-1,32
 423 349 423 349 423 391 c 0,33,34
 423 434 423 434 393.5 458.5 c 128,-1,35
 364 483 364 483 312 483 c 2,36,-1
 194 483 l 1,28,-1
EndSplineSet
Validated: 1
EndChar

StartChar: Q
Encoding: 50 81 50
Width: 600
GlyphClass: 2
Flags: W
LayerCount: 3
Fore
SplineSet
579 294 m 0,0,1
 579 172 579 172 498.5 82.5 c 128,-1,2
 418 -7 418 -7 289 -7 c 0,3,4
 279 -7 279 -7 271 -6 c 1,5,-1
 267 -30 l 1,6,7
 297 -25 297 -25 318 -25 c 0,8,9
 348 -25 348 -25 390.5 -35 c 128,-1,10
 433 -45 433 -45 443 -45 c 0,11,12
 464 -45 464 -45 488 -29 c 128,-1,13
 512 -13 512 -13 526 -13 c 0,14,15
 548 -13 548 -13 562.5 -27.5 c 128,-1,16
 577 -42 577 -42 577 -63 c 0,17,18
 577 -94 577 -94 532 -119.5 c 128,-1,19
 487 -145 487 -145 444 -145 c 0,20,21
 417 -145 417 -145 382 -131 c 128,-1,22
 347 -117 347 -117 319 -117 c 0,23,24
 284 -117 284 -117 229.5 -130 c 128,-1,25
 175 -143 175 -143 165 -143 c 0,26,27
 146 -143 146 -143 131.5 -127.5 c 128,-1,28
 117 -112 117 -112 117 -91 c 0,29,30
 117 -72 117 -72 137 -53 c 2,31,-1
 199 7 l 1,32,33
 174 21 174 21 160 30 c 128,-1,34
 146 39 146 39 115.5 65.5 c 128,-1,35
 85 92 85 92 67.5 119.5 c 128,-1,36
 50 147 50 147 35.5 193 c 128,-1,37
 21 239 21 239 21 292 c 0,38,39
 21 418 21 418 103 507.5 c 128,-1,40
 185 597 185 597 300 597 c 128,-1,41
 415 597 415 597 497 508 c 128,-1,42
 579 419 579 419 579 294 c 0,0,1
300 497 m 128,-1,44
 226 497 226 497 173.5 436.5 c 128,-1,45
 121 376 121 376 121 291 c 0,46,47
 121 207 121 207 174 146 c 128,-1,48
 227 85 227 85 300 85 c 128,-1,49
 373 85 373 85 426 145 c 128,-1,50
 479 205 479 205 479 288 c 0,51,52
 479 375 479 375 426.5 436 c 128,-1,43
 374 497 374 497 300 497 c 128,-1,44
EndSplineSet
Validated: 1
EndChar

StartChar: R
Encoding: 51 82 51
Width: 600
GlyphClass: 2
Flags: W
LayerCount: 3
Fore
SplineSet
609 50 m 128,-1,1
 609 0 609 0 543 0 c 2,2,-1
 464 0 l 1,3,4
 427 72 427 72 369.5 141.5 c 128,-1,5
 312 211 312 211 280 222 c 1,6,-1
 184 222 l 1,7,-1
 184 100 l 1,8,-1
 219 100 l 2,9,10
 285 100 285 100 285 50 c 128,-1,11
 285 0 285 0 219 0 c 2,12,-1
 69 0 l 2,13,14
 3 0 3 0 3 50 c 128,-1,15
 3 100 3 100 69 100 c 2,16,-1
 84 100 l 1,17,-1
 84 483 l 1,18,-1
 69 483 l 2,19,20
 3 483 3 483 3 533 c 0,21,22
 3 562 3 562 20 572.5 c 128,-1,23
 37 583 37 583 69 583 c 2,24,-1
 292 583 l 2,25,26
 389 583 389 583 450.5 533.5 c 128,-1,27
 512 484 512 484 512 405 c 0,28,29
 512 313 512 313 404 254 c 1,30,31
 469 197 469 197 530 100 c 1,32,-1
 543 100 l 2,33,0
 609 100 609 100 609 50 c 128,-1,1
184 322 m 1,34,-1
 260 322 l 2,35,36
 323 322 323 322 364.5 346.5 c 128,-1,37
 406 371 406 371 406 408 c 0,38,39
 406 440 406 440 375 461.5 c 128,-1,40
 344 483 344 483 296 483 c 2,41,-1
 184 483 l 1,42,-1
 184 322 l 1,34,-1
EndSplineSet
Validated: 1
EndChar

StartChar: S
Encoding: 52 83 52
Width: 600
GlyphClass: 2
Flags: W
LayerCount: 3
Fore
SplineSet
468 597 m 0,0,1
 498 597 498 597 507.5 580 c 128,-1,2
 517 563 517 563 517 531 c 2,3,-1
 517 443 l 2,4,5
 517 376 517 376 468 376 c 0,6,7
 460 376 460 376 453.5 377.5 c 128,-1,8
 447 379 447 379 442.5 381.5 c 128,-1,9
 438 384 438 384 434 388.5 c 128,-1,10
 430 393 430 393 428 396 c 128,-1,11
 426 399 426 399 424 405 c 128,-1,12
 422 411 422 411 421.5 413.5 c 128,-1,13
 421 416 421 416 419.5 422.5 c 128,-1,14
 418 429 418 429 418 430 c 0,15,16
 411 460 411 460 378.5 478.5 c 128,-1,17
 346 497 346 497 299 497 c 128,-1,18
 252 497 252 497 219 475 c 128,-1,19
 186 453 186 453 186 421 c 0,20,21
 186 387 186 387 219 368.5 c 128,-1,22
 252 350 252 350 296 344.5 c 128,-1,23
 340 339 340 339 394 324.5 c 128,-1,24
 448 310 448 310 479 285 c 0,25,26
 538 238 538 238 538 160 c 128,-1,27
 538 82 538 82 475 34 c 128,-1,28
 412 -14 412 -14 309 -14 c 0,29,30
 226 -14 226 -14 153 25 c 1,31,32
 133 1 133 1 113 1 c 0,33,34
 62 1 62 1 62 67 c 2,35,-1
 62 133 l 2,36,37
 62 166 62 166 73 182.5 c 128,-1,38
 84 199 84 199 112 199 c 0,39,40
 121 199 121 199 128.5 197 c 128,-1,41
 136 195 136 195 141 191 c 128,-1,42
 146 187 146 187 149.5 183.5 c 128,-1,43
 153 180 153 180 155.5 174 c 128,-1,44
 158 168 158 168 159 165 c 128,-1,45
 160 162 160 162 161.5 157 c 128,-1,46
 163 152 163 152 163 151 c 0,47,48
 170 124 170 124 211 105 c 128,-1,49
 252 86 252 86 302 86 c 0,50,51
 358 86 358 86 396 108 c 128,-1,52
 434 130 434 130 434 162 c 0,53,54
 434 192 434 192 404.5 210 c 128,-1,55
 375 228 375 228 336.5 234 c 128,-1,56
 298 240 298 240 246.5 252 c 128,-1,57
 195 264 195 264 164 281 c 0,58,59
 126 303 126 303 104 340 c 128,-1,60
 82 377 82 377 82 420 c 0,61,62
 82 496 82 496 144 546.5 c 128,-1,63
 206 597 206 597 299 597 c 0,64,65
 376 597 376 597 429 564 c 1,66,67
 437 583 437 583 445 590 c 128,-1,68
 453 597 453 597 468 597 c 0,0,1
EndSplineSet
Validated: 1
EndChar

StartChar: T
Encoding: 53 84 53
Width: 600
GlyphClass: 2
Flags: W
LayerCount: 3
Fore
SplineSet
481 50 m 128,-1,1
 481 0 481 0 415 0 c 2,2,-1
 184 0 l 2,3,4
 118 0 118 0 118 50 c 0,5,6
 118 79 118 79 135 89.5 c 128,-1,7
 152 100 152 100 184 100 c 2,8,-1
 249 100 l 1,9,-1
 249 483 l 1,10,-1
 142 483 l 1,11,-1
 142 390 l 2,12,13
 142 324 142 324 92 324 c 128,-1,14
 42 324 42 324 42 390 c 2,15,-1
 42 583 l 1,16,-1
 558 583 l 1,17,-1
 558 390 l 2,18,19
 558 358 558 358 547.5 341 c 128,-1,20
 537 324 537 324 508 324 c 0,21,22
 458 324 458 324 458 390 c 2,23,-1
 458 483 l 1,24,-1
 349 483 l 1,25,-1
 349 100 l 1,26,-1
 415 100 l 2,27,0
 481 100 481 100 481 50 c 128,-1,1
EndSplineSet
Validated: 1
EndChar

StartChar: U
Encoding: 54 85 54
Width: 600
GlyphClass: 2
Flags: W
LayerCount: 3
Fore
SplineSet
529 205 m 2,0,1
 529 108 529 108 461 47 c 128,-1,2
 393 -14 393 -14 300 -14 c 128,-1,3
 207 -14 207 -14 139 48 c 128,-1,4
 71 110 71 110 71 205 c 2,5,-1
 71 483 l 1,6,7
 10 485 10 485 10 533 c 0,8,9
 10 562 10 562 27 572.5 c 128,-1,10
 44 583 44 583 76 583 c 2,11,-1
 206 583 l 2,12,13
 238 583 238 583 255 573 c 128,-1,14
 272 563 272 563 272 533 c 0,15,16
 272 483 272 483 206 483 c 2,17,-1
 171 483 l 1,18,-1
 171 196 l 2,19,20
 171 150 171 150 209 118 c 128,-1,21
 247 86 247 86 300 86 c 128,-1,22
 353 86 353 86 391 118 c 128,-1,23
 429 150 429 150 429 196 c 2,24,-1
 429 483 l 1,25,-1
 394 483 l 2,26,27
 328 483 328 483 328 533 c 0,28,29
 328 562 328 562 345 572.5 c 128,-1,30
 362 583 362 583 394 583 c 2,31,-1
 524 583 l 2,32,33
 557 583 557 583 573.5 572.5 c 128,-1,34
 590 562 590 562 590 533 c 0,35,36
 590 483 590 483 529 483 c 1,37,-1
 529 205 l 2,0,1
EndSplineSet
Validated: 1
EndChar

StartChar: V
Encoding: 55 86 55
Width: 600
GlyphClass: 2
Flags: W
LayerCount: 3
Fore
SplineSet
244 533 m 0,0,1
 244 483 244 483 178 483 c 2,2,-1
 159 483 l 1,3,-1
 303 144 l 1,4,-1
 447 483 l 1,5,-1
 423 483 l 2,6,7
 391 483 391 483 374 493.5 c 128,-1,8
 357 504 357 504 357 533 c 128,-1,9
 357 562 357 562 374 572.5 c 128,-1,10
 391 583 391 583 423 583 c 2,11,-1
 555 583 l 2,12,13
 621 583 621 583 621 533 c 128,-1,14
 621 483 621 483 553 483 c 1,15,-1
 348 0 l 1,16,-1
 249 0 l 1,17,-1
 47 483 l 1,18,19
 -21 483 -21 483 -21 533 c 0,20,21
 -21 562 -21 562 -4 572.5 c 128,-1,22
 13 583 13 583 45 583 c 2,23,-1
 178 583 l 2,24,25
 210 583 210 583 227 572.5 c 128,-1,26
 244 562 244 562 244 533 c 0,0,1
EndSplineSet
Validated: 1
EndChar

StartChar: W
Encoding: 56 87 56
Width: 600
GlyphClass: 2
Flags: W
LayerCount: 3
Fore
SplineSet
544 583 m 2,0,1
 610 583 610 583 610 533 c 0,2,3
 610 491 610 491 563 483 c 1,4,-1
 503 0 l 1,5,-1
 393 0 l 1,6,-1
 300 277 l 1,7,-1
 209 0 l 1,8,-1
 98 0 l 1,9,-1
 36 483 l 1,10,11
 -10 489 -10 489 -10 531 c 0,12,13
 -10 561 -10 561 6.5 572 c 128,-1,14
 23 583 23 583 56 583 c 2,15,-1
 187 583 l 2,16,17
 254 583 254 583 254 533 c 128,-1,18
 254 483 254 483 187 483 c 2,19,-1
 139 483 l 1,20,-1
 175 211 l 1,21,-1
 251 437 l 1,22,-1
 355 437 l 1,23,-1
 431 211 l 1,24,-1
 466 483 l 1,25,-1
 413 483 l 2,26,27
 347 483 347 483 347 533 c 0,28,29
 347 562 347 562 364 572.5 c 128,-1,30
 381 583 381 583 413 583 c 2,31,-1
 544 583 l 2,0,1
EndSplineSet
Validated: 1
EndChar

StartChar: X
Encoding: 57 88 57
Width: 600
GlyphClass: 2
Flags: W
LayerCount: 3
Fore
SplineSet
76 0 m 2,0,1
 10 0 10 0 10 50 c 0,2,3
 10 73 10 73 25.5 86.5 c 128,-1,4
 41 100 41 100 69 100 c 1,5,-1
 235 298 l 1,6,-1
 77 483 l 1,7,8
 19 486 19 486 19 533 c 0,9,10
 19 583 19 583 85 583 c 2,11,-1
 176 583 l 2,12,13
 243 583 243 583 243 533 c 0,14,15
 243 502 243 502 205 484 c 1,16,-1
 300 375 l 1,17,-1
 393 484 l 1,18,19
 355 503 355 503 355 533 c 0,20,21
 355 583 355 583 422 583 c 2,22,-1
 512 583 l 2,23,24
 544 583 544 583 561 572.5 c 128,-1,25
 578 562 578 562 578 533 c 0,26,27
 578 485 578 485 521 483 c 1,28,-1
 364 297 l 1,29,-1
 531 100 l 1,30,31
 590 98 590 98 590 50 c 0,32,33
 590 0 590 0 524 0 c 2,34,-1
 413 0 l 2,35,36
 347 0 347 0 347 50 c 0,37,38
 347 97 347 97 402 100 c 1,39,-1
 301 220 l 1,40,-1
 199 100 l 1,41,42
 253 97 253 97 253 50 c 0,43,44
 253 0 253 0 187 0 c 2,45,-1
 76 0 l 2,0,1
EndSplineSet
Validated: 1
EndChar

StartChar: Y
Encoding: 58 89 58
Width: 600
GlyphClass: 2
Flags: W
LayerCount: 3
Fore
SplineSet
118 50 m 0,0,1
 118 80 118 80 135.5 90 c 128,-1,2
 153 100 153 100 185 100 c 2,3,-1
 250 100 l 1,4,-1
 250 245 l 1,5,-1
 85 483 l 1,6,7
 21 483 21 483 21 533 c 128,-1,8
 21 583 21 583 88 583 c 2,9,-1
 177 583 l 2,10,11
 243 583 243 583 243 533 c 0,12,13
 243 500 243 500 205 484 c 1,14,-1
 300 348 l 1,15,-1
 394 484 l 1,16,17
 354 499 354 499 354 533 c 0,18,19
 354 563 354 563 371.5 573 c 128,-1,20
 389 583 389 583 421 583 c 2,21,-1
 513 583 l 2,22,23
 545 583 545 583 562 572.5 c 128,-1,24
 579 562 579 562 579 533 c 0,25,26
 579 483 579 483 514 483 c 1,27,-1
 350 245 l 1,28,-1
 350 100 l 1,29,-1
 415 100 l 2,30,31
 482 100 482 100 482 50 c 128,-1,32
 482 0 482 0 415 0 c 2,33,-1
 185 0 l 2,34,35
 118 0 118 0 118 50 c 0,0,1
EndSplineSet
Validated: 1
EndChar

StartChar: Z
Encoding: 59 90 59
Width: 600
GlyphClass: 2
Flags: W
LayerCount: 3
Fore
SplineSet
146 347 m 128,-1,1
 96 347 96 347 96 413 c 2,2,-1
 96 583 l 1,3,-1
 504 583 l 1,4,-1
 504 486 l 1,5,-1
 201 100 l 1,6,-1
 427 100 l 1,7,-1
 427 172 l 2,8,9
 427 204 427 204 437.5 221 c 128,-1,10
 448 238 448 238 477 238 c 128,-1,11
 506 238 506 238 516.5 221 c 128,-1,12
 527 204 527 204 527 172 c 2,13,-1
 527 0 l 1,14,-1
 73 0 l 1,15,-1
 73 100 l 1,16,-1
 375 483 l 1,17,-1
 196 483 l 1,18,-1
 196 413 l 2,19,0
 196 347 196 347 146 347 c 128,-1,1
EndSplineSet
Validated: 1
EndChar

StartChar: bracketleft
Encoding: 60 91 60
Width: 600
GlyphClass: 2
Flags: W
LayerCount: 3
Fore
SplineSet
474 573 m 0,0,1
 474 523 474 523 408 523 c 2,2,-1
 350 523 l 1,3,-1
 350 -48 l 1,4,-1
 409 -48 l 2,5,6
 475 -48 475 -48 475 -98 c 128,-1,7
 475 -148 475 -148 409 -148 c 2,8,-1
 250 -148 l 1,9,-1
 250 623 l 1,10,-1
 408 623 l 2,11,12
 441 623 441 623 457.5 612.5 c 128,-1,13
 474 602 474 602 474 573 c 0,0,1
EndSplineSet
Validated: 1
EndChar

StartChar: backslash
Encoding: 61 92 61
Width: 600
GlyphClass: 2
Flags: W
LayerCount: 3
Fore
SplineSet
184 651 m 2,0,-1
 505 -27 l 2,1,2
 517 -51 517 -51 517 -65 c 0,3,4
 517 -84 517 -84 502 -98.5 c 128,-1,5
 487 -113 487 -113 467 -113 c 0,6,7
 449 -113 449 -113 438 -103.5 c 128,-1,8
 427 -94 427 -94 415 -69 c 2,9,-1
 95 610 l 2,10,11
 83 634 83 634 83 647 c 0,12,13
 83 666 83 666 98 680.5 c 128,-1,14
 113 695 113 695 133 695 c 0,15,16
 150 695 150 695 161 685.5 c 128,-1,17
 172 676 172 676 184 651 c 2,0,-1
EndSplineSet
Validated: 1
EndChar

StartChar: bracketright
Encoding: 62 93 62
Width: 600
GlyphClass: 2
Flags: W
LayerCount: 3
Fore
SplineSet
126 -98 m 0,0,1
 126 -48 126 -48 192 -48 c 2,2,-1
 250 -48 l 1,3,-1
 250 523 l 1,4,-1
 191 523 l 2,5,6
 125 523 125 523 125 573 c 128,-1,7
 125 623 125 623 191 623 c 2,8,-1
 350 623 l 1,9,-1
 350 -148 l 1,10,-1
 192 -148 l 2,11,12
 159 -148 159 -148 142.5 -137.5 c 128,-1,13
 126 -127 126 -127 126 -98 c 0,0,1
EndSplineSet
Validated: 1
EndChar

StartChar: asciicircum
Encoding: 63 94 63
Width: 600
GlyphClass: 2
Flags: W
LayerCount: 3
Fore
SplineSet
299 494 m 1,0,-1
 182 356 l 2,1,2
 165 336 165 336 156.5 330.5 c 128,-1,3
 148 325 148 325 133 325 c 0,4,5
 113 325 113 325 98 340 c 128,-1,6
 83 355 83 355 83 375 c 0,7,8
 83 393 83 393 105 419 c 2,9,-1
 299 652 l 1,10,-1
 495 419 l 2,11,12
 517 393 517 393 517 375 c 0,13,14
 517 355 517 355 502 340 c 128,-1,15
 487 325 487 325 467 325 c 0,16,17
 453 325 453 325 443.5 330.5 c 128,-1,18
 434 336 434 336 418 355 c 2,19,-1
 299 494 l 1,0,-1
EndSplineSet
Validated: 1
EndChar

StartChar: underscore
Encoding: 64 95 64
Width: 600
GlyphClass: 2
Flags: W
LayerCount: 3
Fore
SplineSet
600 -100 m 1,0,-1
 600 -200 l 1,1,-1
 0 -200 l 1,2,-1
 0 -100 l 1,3,-1
 600 -100 l 1,0,-1
EndSplineSet
Validated: 1
EndChar

StartChar: grave
Encoding: 65 96 65
Width: 600
GlyphClass: 2
Flags: W
LayerCount: 3
Fore
SplineSet
232 650 m 2,0,-1
 327 569 l 2,1,2
 350 549 350 549 350 532 c 0,3,4
 350 518 350 518 339 507 c 128,-1,5
 328 496 328 496 313 496 c 0,6,7
 300 496 300 496 281 512 c 2,8,-1
 186 594 l 2,9,10
 163 612 163 612 163 630 c 0,11,12
 163 645 163 645 173.5 655.5 c 128,-1,13
 184 666 184 666 200 666 c 0,14,15
 212 666 212 666 232 650 c 2,0,-1
EndSplineSet
Validated: 1
EndChar

StartChar: a
Encoding: 66 97 66
Width: 600
GlyphClass: 2
Flags: W
LayerCount: 3
Fore
SplineSet
42 119 m 0,0,1
 42 187 42 187 109 237.5 c 128,-1,2
 176 288 176 288 284 288 c 0,3,4
 329 288 329 288 388 278 c 1,5,-1
 388 301 l 2,6,7
 388 350 388 350 295 350 c 0,8,9
 254 350 254 350 202 338.5 c 128,-1,10
 150 327 150 327 139 327 c 0,11,12
 118 327 118 327 104 341.5 c 128,-1,13
 90 356 90 356 90 378 c 0,14,15
 90 410 90 410 120 420 c 0,16,17
 205 450 205 450 292 450 c 0,18,19
 384 450 384 450 436.5 411 c 128,-1,20
 489 372 489 372 489 302 c 2,21,-1
 489 100 l 1,22,-1
 505 100 l 2,23,24
 571 100 571 100 571 50 c 128,-1,25
 571 0 571 0 505 0 c 2,26,-1
 388 0 l 1,27,-1
 388 23 l 1,28,29
 313 -16 313 -16 222 -16 c 0,30,31
 148 -16 148 -16 95 23.5 c 128,-1,32
 42 63 42 63 42 119 c 0,0,1
389 135 m 1,33,-1
 389 185 l 1,34,35
 326 196 326 196 278 196 c 0,36,37
 227 196 227 196 187.5 174 c 128,-1,38
 148 152 148 152 148 123 c 0,39,40
 148 106 148 106 170 95 c 128,-1,41
 192 84 192 84 224 84 c 0,42,43
 306 84 306 84 389 135 c 1,33,-1
EndSplineSet
Validated: 1
EndChar

StartChar: b
Encoding: 67 98 67
Width: 600
GlyphClass: 2
Flags: W
LayerCount: 3
Fore
SplineSet
-8 573 m 0,0,1
 -8 623 -8 623 58 623 c 2,2,-1
 174 623 l 1,3,-1
 174 401 l 1,4,5
 237 451 237 451 324 451 c 0,6,7
 437 451 437 451 504 384.5 c 128,-1,8
 571 318 571 318 571 218 c 128,-1,9
 571 118 571 118 503 52 c 128,-1,10
 435 -14 435 -14 325 -14 c 0,11,12
 245 -14 245 -14 174 35 c 1,13,-1
 174 0 l 1,14,-1
 58 0 l 2,15,16
 -8 0 -8 0 -8 50 c 0,17,18
 -8 79 -8 79 9 89.5 c 128,-1,19
 26 100 26 100 58 100 c 2,20,-1
 74 100 l 1,21,-1
 74 523 l 1,22,-1
 58 523 l 2,23,24
 26 523 26 523 9 533.5 c 128,-1,25
 -8 544 -8 544 -8 573 c 0,0,1
323 351 m 0,26,27
 255 351 255 351 214.5 313.5 c 128,-1,28
 174 276 174 276 174 220 c 0,29,30
 174 161 174 161 215.5 123.5 c 128,-1,31
 257 86 257 86 323 86 c 0,32,33
 388 86 388 86 429.5 123.5 c 128,-1,34
 471 161 471 161 471 219 c 0,35,36
 471 275 471 275 430 313 c 128,-1,37
 389 351 389 351 323 351 c 0,26,27
EndSplineSet
Validated: 1
EndChar

StartChar: c
Encoding: 68 99 68
Width: 600
GlyphClass: 2
Flags: W
LayerCount: 3
Fore
SplineSet
540 307 m 2,0,1
 540 241 540 241 490 241 c 0,2,3
 463 241 463 241 452.5 256 c 128,-1,4
 442 271 442 271 436 293 c 128,-1,5
 430 315 430 315 416 325 c 0,6,7
 375 350 375 350 310 350 c 0,8,9
 239 350 239 350 196.5 310.5 c 128,-1,10
 154 271 154 271 154 207 c 0,11,12
 154 84 154 84 330 84 c 0,13,14
 383 84 383 84 418 93 c 128,-1,15
 453 102 453 102 465.5 112 c 128,-1,16
 478 122 478 122 490.5 131 c 128,-1,17
 503 140 503 140 515 140 c 0,18,19
 535 140 535 140 550 125 c 128,-1,20
 565 110 565 110 565 89 c 0,21,22
 565 46 565 46 498.5 15 c 128,-1,23
 432 -16 432 -16 323 -16 c 0,24,25
 261 -16 261 -16 212.5 -2 c 128,-1,26
 164 12 164 12 135 34.5 c 128,-1,27
 106 57 106 57 87 87 c 128,-1,28
 68 117 68 117 61 146.5 c 128,-1,29
 54 176 54 176 54 207 c 0,30,31
 54 314 54 314 125.5 382 c 128,-1,32
 197 450 197 450 310 450 c 0,33,34
 396 450 396 450 454 420 c 1,35,36
 463 450 463 450 492 450 c 0,37,38
 540 450 540 450 540 384 c 2,39,-1
 540 307 l 2,0,1
EndSplineSet
Validated: 1
EndChar

StartChar: d
Encoding: 69 100 69
Width: 600
GlyphClass: 2
Flags: W
LayerCount: 3
Fore
SplineSet
613 50 m 128,-1,1
 613 0 613 0 547 0 c 2,2,-1
 431 0 l 1,3,-1
 431 35 l 1,4,5
 359 -14 359 -14 280 -14 c 0,6,7
 168 -14 168 -14 100.5 53 c 128,-1,8
 33 120 33 120 33 219 c 128,-1,9
 33 318 33 318 100.5 384.5 c 128,-1,10
 168 451 168 451 281 451 c 0,11,12
 368 451 368 451 431 401 c 1,13,-1
 431 524 l 1,14,-1
 415 524 l 2,15,16
 383 524 383 524 366 534.5 c 128,-1,17
 349 545 349 545 349 574 c 0,18,19
 349 602 349 602 366 612.5 c 128,-1,20
 383 623 383 623 415 623 c 2,21,-1
 531 623 l 1,22,-1
 531 100 l 1,23,-1
 547 100 l 2,24,0
 613 100 613 100 613 50 c 128,-1,1
431 217 m 0,25,26
 431 277 431 277 390 314 c 128,-1,27
 349 351 349 351 281 351 c 0,28,29
 214 351 214 351 173.5 312.5 c 128,-1,30
 133 274 133 274 133 219 c 0,31,32
 133 162 133 162 174.5 124 c 128,-1,33
 216 86 216 86 282 86 c 128,-1,34
 348 86 348 86 389.5 123.5 c 128,-1,35
 431 161 431 161 431 217 c 0,25,26
EndSplineSet
Validated: 1
EndChar

StartChar: e
Encoding: 70 101 70
Width: 600
GlyphClass: 2
Flags: W
LayerCount: 3
Fore
SplineSet
550 67 m 0,0,1
 550 35 550 35 492 14.5 c 128,-1,2
 434 -6 434 -6 383.5 -11 c 128,-1,3
 333 -16 333 -16 297 -16 c 0,4,5
 181 -16 181 -16 107 49 c 128,-1,6
 33 114 33 114 33 216 c 0,7,8
 33 315 33 315 107.5 382.5 c 128,-1,9
 182 450 182 450 291 450 c 0,10,11
 403 450 403 450 476.5 382 c 128,-1,12
 550 314 550 314 550 211 c 2,13,-1
 550 172 l 1,14,-1
 142 172 l 1,15,16
 176 84 176 84 306 84 c 0,17,18
 359 84 359 84 424 100.5 c 128,-1,19
 489 117 489 117 502 117 c 0,20,21
 522 117 522 117 536 102.5 c 128,-1,22
 550 88 550 88 550 67 c 0,0,1
145 260 m 1,23,-1
 439 260 l 1,24,25
 427 301 427 301 387 325.5 c 128,-1,26
 347 350 347 350 292 350 c 128,-1,27
 237 350 237 350 196.5 325 c 128,-1,28
 156 300 156 300 145 260 c 1,23,-1
EndSplineSet
Validated: 1
EndChar

StartChar: f
Encoding: 71 102 71
Width: 600
GlyphClass: 2
Flags: W
LayerCount: 3
Fore
SplineSet
392 623 m 0,0,1
 571 623 571 623 571 560 c 0,2,3
 571 538 571 538 557.5 523.5 c 128,-1,4
 544 509 544 509 524 509 c 0,5,6
 519 509 519 509 469.5 516 c 128,-1,7
 420 523 420 523 383 523 c 0,8,9
 299 523 299 523 299 474 c 2,10,-1
 299 437 l 1,11,-1
 450 437 l 2,12,13
 516 437 516 437 516 387 c 128,-1,14
 516 337 516 337 450 337 c 2,15,-1
 299 337 l 1,16,-1
 299 100 l 1,17,-1
 438 100 l 2,18,19
 504 100 504 100 504 50 c 128,-1,20
 504 0 504 0 438 0 c 2,21,-1
 141 0 l 2,22,23
 75 0 75 0 75 50 c 0,24,25
 75 79 75 79 92 89.5 c 128,-1,26
 109 100 109 100 141 100 c 2,27,-1
 199 100 l 1,28,-1
 199 337 l 1,29,-1
 152 337 l 2,30,31
 86 337 86 337 86 387 c 0,32,33
 86 417 86 417 103.5 427 c 128,-1,34
 121 437 121 437 153 437 c 2,35,-1
 199 437 l 1,36,-1
 199 474 l 2,37,38
 199 543 199 543 251 583 c 128,-1,39
 303 623 303 623 392 623 c 0,0,1
EndSplineSet
Validated: 1
EndChar

StartChar: g
Encoding: 72 103 72
Width: 600
GlyphClass: 2
Flags: W
LayerCount: 3
Fore
SplineSet
141 -150 m 0,0,1
 141 -121 141 -121 158 -110.5 c 128,-1,2
 175 -100 175 -100 207 -100 c 2,3,-1
 316 -100 l 2,4,5
 360 -100 360 -100 385 -79 c 128,-1,6
 410 -58 410 -58 410 -20 c 2,7,-1
 410 35 l 1,8,9
 344 -14 344 -14 269 -14 c 0,10,11
 168 -14 168 -14 100.5 52.5 c 128,-1,12
 33 119 33 119 33 218 c 0,13,14
 33 318 33 318 100.5 384.5 c 128,-1,15
 168 451 168 451 269 451 c 0,16,17
 351 451 351 451 410 401 c 1,18,-1
 410 437 l 1,19,-1
 526 437 l 2,20,21
 592 437 592 437 592 387 c 128,-1,22
 592 337 592 337 526 337 c 2,23,-1
 510 337 l 1,24,-1
 510 -20 l 2,25,26
 510 -99 510 -99 455.5 -149.5 c 128,-1,27
 401 -200 401 -200 319 -200 c 2,28,-1
 207 -200 l 2,29,30
 141 -200 141 -200 141 -150 c 0,0,1
271 351 m 0,31,32
 214 351 214 351 173.5 312.5 c 128,-1,33
 133 274 133 274 133 219 c 128,-1,34
 133 164 133 164 173.5 125 c 128,-1,35
 214 86 214 86 271 86 c 128,-1,36
 328 86 328 86 369 124.5 c 128,-1,37
 410 163 410 163 410 217 c 0,38,39
 410 273 410 273 369.5 312 c 128,-1,40
 329 351 329 351 271 351 c 0,31,32
EndSplineSet
Validated: 1
EndChar

StartChar: h
Encoding: 73 104 73
Width: 600
GlyphClass: 2
Flags: W
LayerCount: 3
Fore
SplineSet
13 573 m 0,0,1
 13 623 13 623 79 623 c 2,2,-1
 195 623 l 1,3,-1
 195 389 l 1,4,5
 255 450 255 450 332 450 c 0,6,7
 412 450 412 450 460.5 404.5 c 128,-1,8
 509 359 509 359 509 284 c 2,9,-1
 509 100 l 1,10,-1
 515 100 l 2,11,12
 581 100 581 100 581 50 c 128,-1,13
 581 0 581 0 515 0 c 2,14,-1
 403 0 l 2,15,16
 336 0 336 0 336 50 c 128,-1,17
 336 100 336 100 403 100 c 2,18,-1
 409 100 l 1,19,-1
 409 271 l 2,20,21
 409 309 409 309 391.5 329.5 c 128,-1,22
 374 350 374 350 321 350 c 0,23,24
 286 350 286 350 262 337 c 128,-1,25
 238 324 238 324 195 283 c 1,26,-1
 195 100 l 1,27,-1
 201 100 l 2,28,29
 268 100 268 100 268 50 c 128,-1,30
 268 0 268 0 201 0 c 2,31,-1
 89 0 l 2,32,33
 23 0 23 0 23 50 c 128,-1,34
 23 100 23 100 89 100 c 2,35,-1
 95 100 l 1,36,-1
 95 523 l 1,37,-1
 79 523 l 2,38,39
 47 523 47 523 30 533.5 c 128,-1,40
 13 544 13 544 13 573 c 0,0,1
EndSplineSet
Validated: 1
EndChar

StartChar: i
Encoding: 74 105 74
Width: 600
GlyphClass: 2
Flags: W
LayerCount: 3
Fore
SplineSet
538 50 m 132,-1,1
 538 0 538 0 472 0 c 6,2,-1
 128 0 l 6,3,4
 62 0 62 0 62 50 c 4,5,6
 62 79 62 79 79 89.5 c 132,-1,7
 96 100 96 100 128 100 c 6,8,-1
 250 100 l 5,9,-1
 250 337 l 5,10,-1
 172 337 l 6,11,12
 105 337 105 337 105 387 c 4,13,14
 105 417 105 417 122.5 427 c 132,-1,15
 140 437 140 437 172 437 c 6,16,-1
 350 437 l 5,17,-1
 350 100 l 5,18,-1
 472 100 l 6,19,0
 538 100 538 100 538 50 c 132,-1,1
336 623 m 5,20,-1
 336 518 l 5,21,-1
 218 518 l 5,22,-1
 218 623 l 5,23,-1
 336 623 l 5,20,-1
EndSplineSet
Validated: 1
EndChar

StartChar: j
Encoding: 75 106 75
Width: 600
GlyphClass: 2
Flags: W
LayerCount: 3
Fore
SplineSet
87 -150 m 0,0,1
 87 -121 87 -121 104.5 -110.5 c 128,-1,2
 122 -100 122 -100 153 -100 c 2,3,-1
 264 -100 l 2,4,5
 308 -100 308 -100 333 -79 c 128,-1,6
 358 -58 358 -58 358 -20 c 2,7,-1
 358 337 l 1,8,-1
 156 337 l 2,9,10
 90 337 90 337 90 387 c 0,11,12
 90 416 90 416 107 426.5 c 128,-1,13
 124 437 124 437 156 437 c 2,14,-1
 458 437 l 1,15,-1
 458 -20 l 2,16,17
 458 -98 458 -98 403.5 -149 c 128,-1,18
 349 -200 349 -200 267 -200 c 2,19,-1
 153 -200 l 2,20,21
 87 -200 87 -200 87 -150 c 0,0,1
400 623 m 1,22,-1
 400 518 l 1,23,-1
 281 518 l 1,24,-1
 281 623 l 1,25,-1
 400 623 l 1,22,-1
EndSplineSet
Validated: 1
EndChar

StartChar: k
Encoding: 76 107 76
Width: 600
GlyphClass: 2
Flags: W
LayerCount: 3
Fore
SplineSet
571 50 m 128,-1,1
 571 0 571 0 504 0 c 2,2,-1
 386 0 l 2,3,4
 320 0 320 0 320 50 c 0,5,6
 320 70 320 70 336 87 c 1,7,-1
 233 178 l 1,8,-1
 215 164 l 1,9,-1
 215 0 l 1,10,-1
 99 0 l 2,11,12
 33 0 33 0 33 50 c 0,13,14
 33 79 33 79 50 89.5 c 128,-1,15
 67 100 67 100 99 100 c 2,16,-1
 115 100 l 1,17,-1
 115 523 l 1,18,-1
 99 523 l 2,19,20
 67 523 67 523 50 533.5 c 128,-1,21
 33 544 33 544 33 573 c 0,22,23
 33 623 33 623 99 623 c 2,24,-1
 215 623 l 1,25,-1
 215 287 l 1,26,-1
 294 350 l 1,27,28
 278 369 278 369 278 387 c 0,29,30
 278 437 278 437 345 437 c 2,31,-1
 457 437 l 2,32,33
 490 437 490 437 506.5 426 c 128,-1,34
 523 415 523 415 523 387 c 0,35,36
 523 337 523 337 457 337 c 2,37,-1
 429 337 l 1,38,-1
 311 241 l 1,39,-1
 471 100 l 1,40,-1
 504 100 l 2,41,0
 571 100 571 100 571 50 c 128,-1,1
EndSplineSet
Validated: 1
EndChar

StartChar: l
Encoding: 77 108 77
Width: 600
GlyphClass: 2
Flags: W
LayerCount: 3
Fore
SplineSet
105 573 m 0,0,1
 105 602 105 602 122 612.5 c 128,-1,2
 139 623 139 623 172 623 c 2,3,-1
 350 623 l 1,4,-1
 350 100 l 1,5,-1
 472 100 l 2,6,7
 538 100 538 100 538 50 c 128,-1,8
 538 0 538 0 472 0 c 2,9,-1
 128 0 l 2,10,11
 62 0 62 0 62 50 c 0,12,13
 62 79 62 79 79 89.5 c 128,-1,14
 96 100 96 100 128 100 c 2,15,-1
 250 100 l 1,16,-1
 250 523 l 1,17,-1
 172 523 l 2,18,19
 105 523 105 523 105 573 c 0,0,1
EndSplineSet
Validated: 1
EndChar

StartChar: m
Encoding: 78 109 78
Width: 600
GlyphClass: 2
Flags: W
LayerCount: 3
Fore
SplineSet
48 0 m 2,0,1
 -19 0 -19 0 -19 50 c 128,-1,2
 -19 100 -19 100 41 100 c 1,3,-1
 41 337 l 1,4,5
 -19 339 -19 339 -19 387 c 0,6,7
 -19 437 -19 437 48 437 c 2,8,-1
 141 437 l 1,9,-1
 141 413 l 1,10,11
 187 450 187 450 226 450 c 0,12,13
 283 450 283 450 328 401 c 1,14,15
 373 450 373 450 432 450 c 0,16,17
 488 450 488 450 525.5 412.5 c 128,-1,18
 563 375 563 375 563 319 c 2,19,-1
 563 100 l 1,20,21
 623 100 623 100 623 50 c 128,-1,22
 623 0 623 0 557 0 c 2,23,-1
 463 0 l 1,24,-1
 463 311 l 2,25,26
 463 333 463 333 455.5 341.5 c 128,-1,27
 448 350 448 350 428 350 c 128,-1,28
 408 350 408 350 392.5 341 c 128,-1,29
 377 332 377 332 352 305 c 1,30,-1
 352 100 l 1,31,32
 380 100 380 100 396 86.5 c 128,-1,33
 412 73 412 73 412 50 c 0,34,35
 412 0 412 0 346 0 c 2,36,-1
 252 0 l 1,37,-1
 252 311 l 2,38,39
 252 332 252 332 244 341 c 128,-1,40
 236 350 236 350 217 350 c 0,41,42
 181 350 181 350 141 305 c 1,43,-1
 141 100 l 1,44,45
 202 100 202 100 202 50 c 128,-1,46
 202 0 202 0 136 0 c 2,47,-1
 48 0 l 2,0,1
EndSplineSet
Validated: 1
EndChar

StartChar: n
Encoding: 79 110 79
Width: 600
GlyphClass: 2
Flags: W
LayerCount: 3
Fore
SplineSet
23 50 m 128,-1,1
 23 100 23 100 89 100 c 2,2,-1
 95 100 l 1,3,-1
 95 337 l 1,4,5
 34 339 34 339 34 387 c 0,6,7
 34 437 34 437 101 437 c 2,8,-1
 195 437 l 1,9,-1
 195 389 l 1,10,11
 231 423 231 423 261 436.5 c 128,-1,12
 291 450 291 450 332 450 c 0,13,14
 410 450 410 450 460 406 c 128,-1,15
 510 362 510 362 510 282 c 2,16,-1
 510 100 l 1,17,18
 571 100 571 100 571 50 c 128,-1,19
 571 0 571 0 505 0 c 2,20,-1
 416 0 l 2,21,22
 349 0 349 0 349 50 c 128,-1,23
 349 100 349 100 410 100 c 1,24,-1
 410 278 l 2,25,26
 410 350 410 350 320 350 c 0,27,28
 285 350 285 350 257.5 335 c 128,-1,29
 230 320 230 320 195 282 c 1,30,-1
 195 100 l 1,31,-1
 201 100 l 2,32,33
 267 100 267 100 267 50 c 128,-1,34
 267 0 267 0 201 0 c 2,35,-1
 89 0 l 2,36,0
 23 0 23 0 23 50 c 128,-1,1
EndSplineSet
Validated: 1
EndChar

StartChar: o
Encoding: 80 111 80
Width: 600
GlyphClass: 2
Flags: W
LayerCount: 3
Fore
SplineSet
303 450 m 0,0,1
 409 450 409 450 483.5 382 c 128,-1,2
 558 314 558 314 558 217 c 0,3,4
 558 119 558 119 483 51.5 c 128,-1,5
 408 -16 408 -16 300 -16 c 128,-1,6
 192 -16 192 -16 117 51.5 c 128,-1,7
 42 119 42 119 42 217 c 0,8,9
 42 316 42 316 117 383 c 128,-1,10
 192 450 192 450 303 450 c 0,0,1
302 350 m 0,11,12
 234 350 234 350 188 312 c 128,-1,13
 142 274 142 274 142 217 c 0,14,15
 142 161 142 161 187.5 122.5 c 128,-1,16
 233 84 233 84 300 84 c 128,-1,17
 367 84 367 84 412.5 122.5 c 128,-1,18
 458 161 458 161 458 217 c 128,-1,19
 458 273 458 273 412.5 311.5 c 128,-1,20
 367 350 367 350 302 350 c 0,11,12
EndSplineSet
Validated: 1
EndChar

StartChar: p
Encoding: 81 112 81
Width: 600
GlyphClass: 2
Flags: W
LayerCount: 3
Fore
SplineSet
0 387 m 0,0,1
 0 437 0 437 66 437 c 2,2,-1
 182 437 l 1,3,-1
 182 392 l 1,4,5
 250 450 250 450 335 450 c 0,6,7
 440 450 440 450 509.5 385.5 c 128,-1,8
 579 321 579 321 579 224 c 0,9,10
 579 132 579 132 510 71 c 128,-1,11
 441 10 441 10 337 10 c 0,12,13
 255 10 255 10 182 66 c 1,14,-1
 182 -100 l 1,15,-1
 240 -100 l 2,16,17
 273 -100 273 -100 289.5 -110.5 c 128,-1,18
 306 -121 306 -121 306 -150 c 0,19,20
 306 -200 306 -200 240 -200 c 2,21,-1
 66 -200 l 2,22,23
 0 -200 0 -200 0 -150 c 128,-1,24
 0 -100 0 -100 66 -100 c 2,25,-1
 82 -100 l 1,26,-1
 82 337 l 1,27,-1
 66 337 l 2,28,29
 34 337 34 337 17 347.5 c 128,-1,30
 0 358 0 358 0 387 c 0,0,1
479 230 m 128,-1,32
 479 282 479 282 438 316 c 128,-1,33
 397 350 397 350 331 350 c 0,34,35
 264 350 264 350 223 316 c 128,-1,36
 182 282 182 282 182 231 c 0,37,38
 182 178 182 178 223.5 144 c 128,-1,39
 265 110 265 110 331 110 c 0,40,41
 396 110 396 110 437.5 144 c 128,-1,31
 479 178 479 178 479 230 c 128,-1,32
EndSplineSet
Validated: 1
EndChar

StartChar: q
Encoding: 82 113 82
Width: 600
GlyphClass: 2
Flags: W
LayerCount: 3
Fore
SplineSet
294 -150 m 128,-1,1
 294 -100 294 -100 360 -100 c 2,2,-1
 418 -100 l 1,3,-1
 418 66 l 1,4,5
 345 10 345 10 262 10 c 0,6,7
 158 10 158 10 89 71 c 128,-1,8
 20 132 20 132 20 224 c 0,9,10
 20 321 20 321 89.5 385.5 c 128,-1,11
 159 450 159 450 264 450 c 0,12,13
 311 450 311 450 346 437 c 128,-1,14
 381 424 381 424 418 392 c 1,15,-1
 418 437 l 1,16,-1
 534 437 l 2,17,18
 600 437 600 437 600 387 c 128,-1,19
 600 337 600 337 534 337 c 2,20,-1
 518 337 l 1,21,-1
 518 -100 l 1,22,-1
 534 -100 l 2,23,24
 600 -100 600 -100 600 -150 c 128,-1,25
 600 -200 600 -200 534 -200 c 2,26,-1
 360 -200 l 2,27,0
 294 -200 294 -200 294 -150 c 128,-1,1
269 110 m 128,-1,29
 335 110 335 110 376.5 144 c 128,-1,30
 418 178 418 178 418 229 c 0,31,32
 418 282 418 282 376.5 316 c 128,-1,33
 335 350 335 350 268 350 c 0,34,35
 203 350 203 350 161.5 315.5 c 128,-1,36
 120 281 120 281 120 230 c 0,37,38
 120 178 120 178 161.5 144 c 128,-1,28
 203 110 203 110 269 110 c 128,-1,29
EndSplineSet
Validated: 1
EndChar

StartChar: r
Encoding: 83 114 83
Width: 600
GlyphClass: 2
Flags: W
LayerCount: 3
Fore
SplineSet
445 449 m 0,0,1
 487 449 487 449 529 423 c 128,-1,2
 571 397 571 397 571 364 c 0,3,4
 571 343 571 343 556 328 c 128,-1,5
 541 313 541 313 521 313 c 0,6,7
 504 313 504 313 482 331 c 128,-1,8
 460 349 460 349 443 349 c 0,9,10
 419 349 419 349 384.5 327.5 c 128,-1,11
 350 306 350 306 278 247 c 1,12,-1
 278 100 l 1,13,-1
 417 100 l 2,14,15
 484 100 484 100 484 50 c 128,-1,16
 484 0 484 0 417 0 c 2,17,-1
 120 0 l 2,18,19
 54 0 54 0 54 50 c 0,20,21
 54 79 54 79 71 89.5 c 128,-1,22
 88 100 88 100 120 100 c 2,23,-1
 178 100 l 1,24,-1
 178 337 l 1,25,-1
 143 337 l 2,26,27
 77 337 77 337 77 387 c 128,-1,28
 77 437 77 437 143 437 c 2,29,-1
 278 437 l 1,30,-1
 278 372 l 1,31,32
 338 417 338 417 373 433 c 128,-1,33
 408 449 408 449 445 449 c 0,0,1
EndSplineSet
Validated: 1
EndChar

StartChar: s
Encoding: 84 115 84
Width: 600
GlyphClass: 2
Flags: W
LayerCount: 3
Fore
SplineSet
506 347 m 2,0,1
 506 315 506 315 495.5 298 c 128,-1,2
 485 281 485 281 456 281 c 0,3,4
 438 281 438 281 426 292 c 128,-1,5
 414 303 414 303 406.5 315.5 c 128,-1,6
 399 328 399 328 372.5 339 c 128,-1,7
 346 350 346 350 301 350 c 0,8,9
 263 350 263 350 232.5 339.5 c 128,-1,10
 202 329 202 329 202 315 c 0,11,12
 202 295 202 295 246 286.5 c 128,-1,13
 290 278 290 278 356 268 c 128,-1,14
 422 258 422 258 457 238 c 0,15,16
 490 220 490 220 508.5 190 c 128,-1,17
 527 160 527 160 527 125 c 0,18,19
 527 64 527 64 464 24 c 128,-1,20
 401 -16 401 -16 304 -16 c 0,21,22
 217 -16 217 -16 156 13 c 1,23,24
 141 1 141 1 124 1 c 0,25,26
 73 1 73 1 73 67 c 2,27,-1
 73 100 l 2,28,29
 73 167 73 167 124 167 c 0,30,31
 162 167 162 167 175 123 c 1,32,33
 218 84 218 84 300 84 c 0,34,35
 348 84 348 84 382.5 97 c 128,-1,36
 417 110 417 110 417 127 c 0,37,38
 417 166 417 166 291 179 c 0,39,40
 186 190 186 190 139 222 c 128,-1,41
 92 254 92 254 92 313 c 0,42,43
 92 373 92 373 150 411.5 c 128,-1,44
 208 450 208 450 298 450 c 0,45,46
 371 450 371 450 427 424 c 1,47,48
 438 450 438 450 459 450 c 0,49,50
 506 450 506 450 506 384 c 2,51,-1
 506 347 l 2,0,1
EndSplineSet
Validated: 1
EndChar

StartChar: t
Encoding: 85 116 85
Width: 600
GlyphClass: 2
Flags: W
LayerCount: 3
Fore
SplineSet
214 141 m 2,0,1
 214 110 214 110 231 97 c 128,-1,2
 248 84 248 84 300 84 c 0,3,4
 339 84 339 84 371.5 91 c 128,-1,5
 404 98 404 98 420.5 106.5 c 128,-1,6
 437 115 437 115 453.5 122 c 128,-1,7
 470 129 470 129 481 129 c 0,8,9
 501 129 501 129 515 114 c 128,-1,10
 529 99 529 99 529 78 c 0,11,12
 529 50 529 50 486.5 27.5 c 128,-1,13
 444 5 444 5 392.5 -5.5 c 128,-1,14
 341 -16 341 -16 299 -16 c 0,15,16
 214 -16 214 -16 164 21 c 128,-1,17
 114 58 114 58 114 122 c 2,18,-1
 114 337 l 1,19,-1
 79 337 l 2,20,21
 13 337 13 337 13 387 c 0,22,23
 13 416 13 416 30 426.5 c 128,-1,24
 47 437 47 437 79 437 c 2,25,-1
 114 437 l 1,26,-1
 114 525 l 2,27,28
 114 591 114 591 164 591 c 0,29,30
 193 591 193 591 203.5 574 c 128,-1,31
 214 557 214 557 214 525 c 2,32,-1
 214 437 l 1,33,-1
 395 437 l 2,34,35
 427 437 427 437 444 426.5 c 128,-1,36
 461 416 461 416 461 387 c 0,37,38
 461 337 461 337 395 337 c 2,39,-1
 214 337 l 1,40,-1
 214 141 l 2,0,1
EndSplineSet
Validated: 1
EndChar

StartChar: u
Encoding: 86 117 86
Width: 600
GlyphClass: 2
Flags: W
LayerCount: 3
Fore
SplineSet
365 337 m 2,0,1
 335 337 335 337 322 352.5 c 128,-1,2
 309 368 309 368 309 387 c 0,3,4
 309 437 309 437 375 437 c 2,5,-1
 510 437 l 1,6,-1
 510 100 l 1,7,8
 571 100 571 100 571 50 c 128,-1,9
 571 0 571 0 505 0 c 2,10,-1
 410 0 l 1,11,-1
 410 48 l 1,12,13
 373 13 373 13 343.5 0 c 128,-1,14
 314 -13 314 -13 273 -13 c 0,15,16
 194 -13 194 -13 144.5 31.5 c 128,-1,17
 95 76 95 76 95 156 c 2,18,-1
 95 337 l 1,19,-1
 68 337 l 2,20,21
 43 337 43 337 28 351 c 128,-1,22
 13 365 13 365 13 387 c 0,23,24
 13 416 13 416 30 426.5 c 128,-1,25
 47 437 47 437 79 437 c 2,26,-1
 195 437 l 1,27,-1
 195 159 l 2,28,29
 195 87 195 87 283 87 c 0,30,31
 321 87 321 87 346 100.5 c 128,-1,32
 371 114 371 114 410 155 c 1,33,-1
 410 337 l 1,34,-1
 375 337 l 1,35,-1
 365 337 l 2,0,1
EndSplineSet
Validated: 1
EndChar

StartChar: v
Encoding: 87 118 87
Width: 600
GlyphClass: 2
Flags: W
LayerCount: 3
Fore
SplineSet
264 387 m 0,0,1
 264 337 264 337 198 337 c 2,2,-1
 193 337 l 1,3,-1
 302 122 l 1,4,-1
 409 337 l 1,5,-1
 399 337 l 2,6,7
 333 337 333 337 333 387 c 128,-1,8
 333 437 333 437 399 437 c 2,9,-1
 534 437 l 2,10,11
 566 437 566 437 583 426.5 c 128,-1,12
 600 416 600 416 600 387 c 0,13,14
 600 337 600 337 534 337 c 2,15,-1
 518 337 l 1,16,-1
 351 0 l 1,17,-1
 247 0 l 1,18,-1
 80 337 l 1,19,-1
 66 337 l 2,20,21
 0 337 0 337 0 387 c 128,-1,22
 0 437 0 437 66 437 c 2,23,-1
 198 437 l 2,24,25
 230 437 230 437 247 426.5 c 128,-1,26
 264 416 264 416 264 387 c 0,0,1
EndSplineSet
Validated: 1
EndChar

StartChar: w
Encoding: 88 119 88
Width: 600
GlyphClass: 2
Flags: W
LayerCount: 3
Fore
SplineSet
441 338 m 2,0,1
 375 338 375 338 375 387 c 0,2,3
 375 437 375 437 441 437 c 2,4,-1
 534 437 l 2,5,6
 600 437 600 437 600 387 c 0,7,8
 600 341 600 341 548 338 c 1,9,-1
 464 0 l 1,10,-1
 372 0 l 1,11,-1
 301 181 l 1,12,-1
 233 0 l 1,13,-1
 139 0 l 1,14,-1
 54 338 l 1,15,16
 28 340 28 340 14 352.5 c 128,-1,17
 0 365 0 365 0 387 c 0,18,19
 0 437 0 437 66 437 c 2,20,-1
 158 437 l 2,21,22
 190 437 190 437 207 426.5 c 128,-1,23
 224 416 224 416 224 387 c 0,24,25
 224 338 224 338 160 338 c 1,26,-1
 199 185 l 1,27,-1
 259 343 l 1,28,-1
 347 343 l 1,29,-1
 408 185 l 1,30,-1
 448 338 l 1,31,-1
 441 338 l 2,0,1
EndSplineSet
Validated: 1
EndChar

StartChar: x
Encoding: 89 120 89
Width: 600
GlyphClass: 2
Flags: W
LayerCount: 3
Fore
SplineSet
198 437 m 2,0,1
 264 437 264 437 264 388 c 0,2,3
 264 359 264 359 238 342 c 1,4,-1
 299 293 l 1,5,-1
 360 343 l 1,6,7
 334 361 334 361 334 386 c 0,8,9
 334 437 334 437 400 437 c 2,10,-1
 491 437 l 2,11,12
 558 437 558 437 558 387 c 0,13,14
 558 342 558 342 505 337 c 1,15,-1
 373 227 l 1,16,-1
 525 100 l 1,17,18
 579 97 579 97 579 50 c 0,19,20
 579 0 579 0 513 0 c 2,21,-1
 401 0 l 2,22,23
 334 0 334 0 334 51 c 0,24,25
 334 89 334 89 374 100 c 1,26,-1
 299 161 l 1,27,-1
 226 100 l 1,28,29
 264 84 264 84 264 51 c 0,30,31
 264 0 264 0 198 0 c 2,32,-1
 87 0 l 2,33,34
 21 0 21 0 21 50 c 0,35,36
 21 97 21 97 75 100 c 1,37,-1
 220 228 l 1,38,-1
 92 337 l 1,39,40
 40 342 40 342 40 387 c 0,41,42
 40 437 40 437 106 437 c 2,43,-1
 198 437 l 2,0,1
EndSplineSet
Validated: 1
EndChar

StartChar: y
Encoding: 90 121 90
Width: 600
GlyphClass: 2
Flags: W
LayerCount: 3
Fore
SplineSet
77 -200 m 2,0,1
 47 -200 47 -200 34 -184.5 c 128,-1,2
 21 -169 21 -169 21 -150 c 0,3,4
 21 -100 21 -100 87 -100 c 2,5,-1
 187 -100 l 1,6,-1
 242 3 l 1,7,-1
 70 337 l 1,8,9
 21 343 21 343 21 387 c 0,10,11
 21 437 21 437 87 437 c 2,12,-1
 177 437 l 2,13,14
 209 437 209 437 226 426.5 c 128,-1,15
 243 416 243 416 243 387 c 0,16,17
 243 339 243 339 184 337 c 1,18,-1
 298 114 l 1,19,-1
 418 337 l 1,20,21
 354 337 354 337 354 387 c 128,-1,22
 354 437 354 437 421 437 c 2,23,-1
 513 437 l 2,24,25
 545 437 545 437 562 426.5 c 128,-1,26
 579 416 579 416 579 387 c 0,27,28
 579 342 579 342 527 337 c 1,29,-1
 297 -100 l 1,30,-1
 302 -100 l 2,31,32
 334 -100 334 -100 351 -110.5 c 128,-1,33
 368 -121 368 -121 368 -150 c 0,34,35
 368 -200 368 -200 302 -200 c 2,36,-1
 87 -200 l 1,37,-1
 77 -200 l 2,0,1
EndSplineSet
Validated: 1
EndChar

StartChar: z
Encoding: 91 122 91
Width: 600
GlyphClass: 2
Flags: W
LayerCount: 3
Fore
SplineSet
147 262 m 128,-1,1
 97 262 97 262 97 328 c 2,2,-1
 97 437 l 1,3,-1
 506 437 l 1,4,-1
 506 356 l 1,5,-1
 244 100 l 1,6,-1
 419 100 l 1,7,8
 422 154 422 154 469 154 c 0,9,10
 498 154 498 154 508.5 137 c 128,-1,11
 519 120 519 120 519 88 c 2,12,-1
 519 0 l 1,13,-1
 85 0 l 1,14,-1
 85 83 l 1,15,-1
 346 337 l 1,16,-1
 197 337 l 1,17,-1
 197 328 l 2,18,0
 197 262 197 262 147 262 c 128,-1,1
EndSplineSet
Validated: 1
EndChar

StartChar: braceleft
Encoding: 92 123 92
Width: 600
GlyphClass: 2
Flags: W
LayerCount: 3
Fore
SplineSet
348 5 m 2,0,1
 348 -16 348 -16 363.5 -33.5 c 128,-1,2
 379 -51 379 -51 399 -52 c 0,3,4
 421 -54 421 -54 437 -68 c 128,-1,5
 453 -82 453 -82 453 -103 c 0,6,7
 453 -125 453 -125 435.5 -139 c 128,-1,8
 418 -153 418 -153 392 -153 c 0,9,10
 328 -153 328 -153 288 -110.5 c 128,-1,11
 248 -68 248 -68 248 -2 c 2,12,-1
 248 123 l 2,13,14
 248 144 248 144 229.5 162 c 128,-1,15
 211 180 211 180 186 180 c 0,16,17
 162 180 162 180 147 194 c 128,-1,18
 132 208 132 208 132 230 c 128,-1,19
 132 252 132 252 147.5 266.5 c 128,-1,20
 163 281 163 281 186 281 c 0,21,22
 212 281 212 281 230 299 c 128,-1,23
 248 317 248 317 248 339 c 2,24,-1
 248 472 l 2,25,26
 248 533 248 533 289.5 578 c 128,-1,27
 331 623 331 623 393 623 c 0,28,29
 418 623 418 623 435.5 609 c 128,-1,30
 453 595 453 595 453 573 c 0,31,32
 453 552 453 552 437 538 c 128,-1,33
 421 524 421 524 399 522 c 0,34,35
 378 521 378 521 363 503.5 c 128,-1,36
 348 486 348 486 348 465 c 2,37,-1
 348 348 l 2,38,39
 348 312 348 312 329.5 278 c 128,-1,40
 311 244 311 244 289 230 c 1,41,42
 311 215 311 215 329.5 184 c 128,-1,43
 348 153 348 153 348 123 c 2,44,-1
 348 5 l 2,0,1
EndSplineSet
Validated: 1
EndChar

StartChar: bar
Encoding: 93 124 93
Width: 600
GlyphClass: 2
Flags: W
LayerCount: 3
Fore
SplineSet
300 623 m 0,0,1
 350 623 350 623 350 557 c 2,2,-1
 350 -87 l 2,3,4
 350 -153 350 -153 300 -153 c 128,-1,5
 250 -153 250 -153 250 -87 c 2,6,-1
 250 557 l 2,7,8
 250 589 250 589 260.5 606 c 128,-1,9
 271 623 271 623 300 623 c 0,0,1
EndSplineSet
Validated: 1
EndChar

StartChar: braceright
Encoding: 94 125 94
Width: 600
GlyphClass: 2
Flags: W
LayerCount: 3
Fore
SplineSet
252 5 m 2,0,-1
 252 123 l 2,1,2
 252 153 252 153 270.5 184 c 128,-1,3
 289 215 289 215 311 230 c 1,4,5
 289 244 289 244 270.5 278 c 128,-1,6
 252 312 252 312 252 348 c 2,7,-1
 252 465 l 2,8,9
 252 486 252 486 237 503.5 c 128,-1,10
 222 521 222 521 201 522 c 0,11,12
 179 524 179 524 163 538 c 128,-1,13
 147 552 147 552 147 573 c 0,14,15
 147 595 147 595 164.5 609 c 128,-1,16
 182 623 182 623 207 623 c 0,17,18
 269 623 269 623 310.5 578 c 128,-1,19
 352 533 352 533 352 472 c 2,20,-1
 352 339 l 2,21,22
 352 317 352 317 370 299 c 128,-1,23
 388 281 388 281 414 281 c 0,24,25
 437 281 437 281 452.5 266.5 c 128,-1,26
 468 252 468 252 468 230 c 128,-1,27
 468 208 468 208 453 194 c 128,-1,28
 438 180 438 180 414 180 c 0,29,30
 389 180 389 180 370.5 162 c 128,-1,31
 352 144 352 144 352 123 c 2,32,-1
 352 -2 l 2,33,34
 352 -68 352 -68 312 -110.5 c 128,-1,35
 272 -153 272 -153 208 -153 c 0,36,37
 182 -153 182 -153 164.5 -139 c 128,-1,38
 147 -125 147 -125 147 -103 c 0,39,40
 147 -82 147 -82 163 -68 c 128,-1,41
 179 -54 179 -54 201 -52 c 0,42,43
 221 -51 221 -51 236.5 -33.5 c 128,-1,44
 252 -16 252 -16 252 5 c 2,0,-1
EndSplineSet
Validated: 1
EndChar

StartChar: asciitilde
Encoding: 95 126 95
Width: 600
GlyphClass: 2
Flags: W
LayerCount: 3
Fore
SplineSet
62 252 m 0,0,1
 62 282 62 282 109.5 333.5 c 128,-1,2
 157 385 157 385 213 385 c 0,3,4
 251 385 251 385 287 359.5 c 128,-1,5
 323 334 323 334 349 309 c 128,-1,6
 375 284 375 284 389 284 c 0,7,8
 400 284 400 284 411.5 296.5 c 128,-1,9
 423 309 423 309 432 324 c 128,-1,10
 441 339 441 339 455.5 351.5 c 128,-1,11
 470 364 470 364 488 364 c 0,12,13
 508 364 508 364 523 349 c 128,-1,14
 538 334 538 334 538 314 c 0,15,16
 538 286 538 286 490 232.5 c 128,-1,17
 442 179 442 179 391 179 c 0,18,19
 356 179 356 179 318 204.5 c 128,-1,20
 280 230 280 230 252 255.5 c 128,-1,21
 224 281 224 281 212 281 c 0,22,23
 201 281 201 281 184.5 261 c 128,-1,24
 168 241 168 241 149 221 c 128,-1,25
 130 201 130 201 113 201 c 0,26,27
 93 201 93 201 77.5 216.5 c 128,-1,28
 62 232 62 232 62 252 c 0,0,1
EndSplineSet
Validated: 1
EndChar

StartChar: uni00B2
Encoding: 96 178 96
Width: 380
GlyphClass: 2
Flags: W
LayerCount: 3
Fore
SplineSet
62 656 m 0,0,1
 62 691 62 691 100.5 725.5 c 128,-1,2
 139 760 139 760 195 760 c 128,-1,3
 251 760 251 760 288.5 726 c 128,-1,4
 326 692 326 692 326 640 c 0,5,6
 326 602 326 602 296 566.5 c 128,-1,7
 266 531 266 531 154 437 c 1,8,-1
 263 437 l 1,9,10
 268 469 268 469 296 469 c 0,11,12
 330 469 330 469 330 426 c 2,13,-1
 330 370 l 1,14,-1
 50 370 l 1,15,-1
 50 438 l 1,16,17
 189 553 189 553 224 587.5 c 128,-1,18
 259 622 259 622 259 643 c 128,-1,19
 259 664 259 664 240.5 678.5 c 128,-1,20
 222 693 222 693 194 693 c 0,21,22
 167 693 167 693 151.5 682 c 128,-1,23
 136 671 136 671 132 658 c 128,-1,24
 128 645 128 645 119.5 634 c 128,-1,25
 111 623 111 623 96 623 c 0,26,27
 82 623 82 623 72 632.5 c 128,-1,28
 62 642 62 642 62 656 c 0,0,1
EndSplineSet
Validated: 1
EndChar

StartChar: uni00B3
Encoding: 97 179 97
Width: 385
GlyphClass: 2
Flags: W
LayerCount: 3
Fore
SplineSet
83 458 m 0,0,1
 87 458 87 458 109 447.5 c 128,-1,2
 131 437 131 437 176 437 c 0,3,4
 268 437 268 437 268 489 c 0,5,6
 268 517 268 517 249 530.5 c 128,-1,7
 230 544 230 544 206.5 545.5 c 128,-1,8
 183 547 183 547 164 555.5 c 128,-1,9
 145 564 145 564 145 583 c 0,10,11
 145 597 145 597 155 606.5 c 128,-1,12
 165 616 165 616 179 616 c 2,13,-1
 204 616 l 2,14,15
 224 616 224 616 239.5 629.5 c 128,-1,16
 255 643 255 643 255 660 c 0,17,18
 255 679 255 679 238 690.5 c 128,-1,19
 221 702 221 702 192 702 c 0,20,21
 169 702 169 702 154 696 c 128,-1,22
 139 690 139 690 133.5 683.5 c 128,-1,23
 128 677 128 677 120 671 c 128,-1,24
 112 665 112 665 101 665 c 0,25,26
 88 665 88 665 78 675 c 128,-1,27
 68 685 68 685 68 699 c 0,28,29
 68 727 68 727 106.5 748 c 128,-1,30
 145 769 145 769 195 769 c 0,31,32
 250 769 250 769 286 738.5 c 128,-1,33
 322 708 322 708 322 661 c 0,34,35
 322 643 322 643 315.5 628 c 128,-1,36
 309 613 309 613 301.5 606 c 128,-1,37
 294 599 294 599 283.5 590.5 c 128,-1,38
 273 582 273 582 271 580 c 1,39,40
 335 547 335 547 335 487 c 0,41,42
 335 441 335 441 299 405.5 c 128,-1,43
 263 370 263 370 178 370 c 0,44,45
 119 370 119 370 84.5 384.5 c 128,-1,46
 50 399 50 399 50 424 c 0,47,48
 50 438 50 438 59.5 448 c 128,-1,49
 69 458 69 458 83 458 c 0,0,1
EndSplineSet
Validated: 1
EndChar

StartChar: uni00B9
Encoding: 98 185 98
Width: 368
GlyphClass: 2
Flags: W
LayerCount: 3
Fore
SplineSet
218 761 m 1,0,-1
 218 437 l 1,1,-1
 275 437 l 2,2,3
 318 437 318 437 318 404 c 0,4,5
 318 370 318 370 275 370 c 2,6,-1
 94 370 l 2,7,8
 50 370 50 370 50 404 c 0,9,10
 50 437 50 437 94 437 c 2,11,-1
 151 437 l 1,12,-1
 151 674 l 1,13,-1
 103 662 l 2,14,15
 88 658 88 658 83 658 c 0,16,17
 70 658 70 658 61 668.5 c 128,-1,18
 52 679 52 679 52 693 c 128,-1,19
 52 707 52 707 59.5 714.5 c 128,-1,20
 67 722 67 722 86 727 c 2,21,-1
 218 761 l 1,0,-1
EndSplineSet
Validated: 1
EndChar

StartChar: zerosuperior
Encoding: 109 8304 101
Width: 364
GlyphClass: 2
Flags: W
LayerCount: 3
Fore
SplineSet
182 769 m 128,-1,1
 246 769 246 769 280 719 c 128,-1,2
 314 669 314 669 314 598 c 2,3,-1
 314 541 l 2,4,5
 314 470 314 470 280 420 c 128,-1,6
 246 370 246 370 182 370 c 128,-1,7
 118 370 118 370 84 420 c 128,-1,8
 50 470 50 470 50 541 c 2,9,-1
 50 598 l 2,10,11
 50 669 50 669 84 719 c 128,-1,0
 118 769 118 769 182 769 c 128,-1,1
117 603 m 2,12,-1
 117 536 l 2,13,14
 117 490 117 490 134.5 463.5 c 128,-1,15
 152 437 152 437 182 437 c 128,-1,16
 212 437 212 437 229.5 463.5 c 128,-1,17
 247 490 247 490 247 536 c 2,18,-1
 247 603 l 2,19,20
 247 649 247 649 229.5 675.5 c 128,-1,21
 212 702 212 702 182 702 c 128,-1,22
 152 702 152 702 134.5 675.5 c 128,-1,23
 117 649 117 649 117 603 c 2,12,-1
EndSplineSet
Validated: 1
EndChar

StartChar: foursuperior
Encoding: 110 8308 102
Width: 367
GlyphClass: 2
Flags: W
LayerCount: 3
Fore
SplineSet
280 750 m 1,0,-1
 280 520 l 1,1,2
 317 518 317 518 317 487 c 0,3,4
 317 455 317 455 280 453 c 1,5,-1
 280 437 l 1,6,7
 317 435 317 435 317 404 c 0,8,9
 317 370 317 370 273 370 c 2,10,-1
 194 370 l 2,11,12
 151 370 151 370 151 404 c 0,13,14
 151 437 151 437 194 437 c 2,15,-1
 213 437 l 1,16,-1
 213 453 l 1,17,-1
 50 453 l 1,18,-1
 50 508 l 1,19,-1
 196 750 l 1,20,-1
 280 750 l 1,0,-1
213 520 m 1,21,-1
 213 649 l 1,22,-1
 134 520 l 1,23,-1
 213 520 l 1,21,-1
EndSplineSet
Validated: 1
EndChar

StartChar: fivesuperior
Encoding: 111 8309 103
Width: 383
GlyphClass: 2
Flags: W
LayerCount: 3
Fore
SplineSet
307 721 m 0,0,1
 307 688 307 688 267 688 c 2,2,-1
 150 688 l 1,3,-1
 150 627 l 1,4,5
 187 637 187 637 204 637 c 0,6,7
 259 637 259 637 296 597.5 c 128,-1,8
 333 558 333 558 333 499 c 0,9,10
 333 446 333 446 298 406 c 128,-1,11
 263 366 263 366 180 366 c 0,12,13
 124 366 124 366 87 383.5 c 128,-1,14
 50 401 50 401 50 427 c 0,15,16
 50 440 50 440 58.5 452.5 c 128,-1,17
 67 465 67 465 79 465 c 0,18,19
 92 465 92 465 101 457 c 128,-1,20
 110 449 110 449 128 441 c 128,-1,21
 146 433 146 433 179 433 c 0,22,23
 266 433 266 433 266 498 c 0,24,25
 266 529 266 529 249.5 549.5 c 128,-1,26
 233 570 233 570 203 570 c 0,27,28
 177 570 177 570 147 557 c 128,-1,29
 117 544 117 544 111 544 c 0,30,31
 98 544 98 544 90.5 555 c 128,-1,32
 83 566 83 566 83 582 c 2,33,-1
 83 755 l 1,34,-1
 270 755 l 2,35,36
 307 755 307 755 307 721 c 0,0,1
EndSplineSet
Validated: 1
EndChar

StartChar: sixsuperior
Encoding: 112 8310 104
Width: 368
GlyphClass: 2
Flags: W
LayerCount: 3
Fore
SplineSet
191 368 m 4,0,1
 151 368 151 368 121.5 386 c 132,-1,2
 92 404 92 404 77.5 433 c 132,-1,3
 63 462 63 462 56.5 491 c 132,-1,4
 50 520 50 520 50 551 c 4,5,6
 50 640 50 640 108 703.5 c 132,-1,7
 166 767 166 767 247 767 c 4,8,9
 279 767 279 767 298.5 754.5 c 132,-1,10
 318 742 318 742 318 724 c 4,11,12
 318 711 318 711 308.5 700.5 c 132,-1,13
 299 690 299 690 287 690 c 4,14,15
 283 690 283 690 269.5 694 c 132,-1,16
 256 698 256 698 250 698 c 4,17,18
 205 698 205 698 167 665 c 132,-1,19
 129 632 129 632 119 578 c 5,20,21
 158 620 158 620 199 620 c 4,22,23
 247 620 247 620 281 582.5 c 132,-1,24
 315 545 315 545 315 493 c 4,25,26
 315 437 315 437 282 402.5 c 132,-1,27
 249 368 249 368 191 368 c 4,0,1
125 505 m 5,28,29
 131 467 131 467 148 451 c 132,-1,30
 165 435 165 435 193 435 c 4,31,32
 217 435 217 435 232.5 451.5 c 132,-1,33
 248 468 248 468 248 493 c 4,34,35
 248 517 248 517 232.5 535 c 132,-1,36
 217 553 217 553 195 553 c 4,37,38
 151 553 151 553 125 505 c 5,28,29
EndSplineSet
Validated: 1
EndChar

StartChar: sevensuperior
Encoding: 113 8311 105
Width: 365
GlyphClass: 2
Flags: W
LayerCount: 3
Fore
SplineSet
81 651 m 0,0,1
 50 651 50 651 50 691 c 2,2,-1
 50 751 l 1,3,-1
 315 751 l 1,4,-1
 315 690 l 1,5,-1
 218 400 l 2,6,7
 208 370 208 370 186 370 c 0,8,9
 173 370 173 370 162 379 c 128,-1,10
 151 388 151 388 151 400 c 0,11,12
 151 410 151 410 155 421 c 2,13,-1
 243 684 l 1,14,-1
 111 684 l 1,15,16
 109 651 109 651 81 651 c 0,0,1
EndSplineSet
Validated: 1
EndChar

StartChar: eightsuperior
Encoding: 114 8312 106
Width: 364
GlyphClass: 2
Flags: W
LayerCount: 3
Fore
SplineSet
255 574 m 1,0,1
 314 538 314 538 314 480 c 0,2,3
 314 431 314 431 277.5 400.5 c 128,-1,4
 241 370 241 370 181 370 c 0,5,6
 123 370 123 370 86.5 400.5 c 128,-1,7
 50 431 50 431 50 480 c 0,8,9
 50 538 50 538 109 574 c 1,10,11
 55 609 55 609 55 657 c 0,12,13
 55 704 55 704 92 736.5 c 128,-1,14
 129 769 129 769 182 769 c 0,15,16
 234 769 234 769 271.5 736.5 c 128,-1,17
 309 704 309 704 309 658 c 0,18,19
 309 609 309 609 255 574 c 1,0,1
182 702 m 0,20,21
 156 702 156 702 139 688.5 c 128,-1,22
 122 675 122 675 122 655 c 128,-1,23
 122 635 122 635 139.5 620 c 128,-1,24
 157 605 157 605 182 605 c 128,-1,25
 207 605 207 605 224.5 619.5 c 128,-1,26
 242 634 242 634 242 654 c 128,-1,27
 242 674 242 674 224.5 688 c 128,-1,28
 207 702 207 702 182 702 c 0,20,21
182 537 m 128,-1,30
 157 537 157 537 137 521 c 128,-1,31
 117 505 117 505 117 485 c 128,-1,32
 117 465 117 465 135.5 451 c 128,-1,33
 154 437 154 437 182 437 c 128,-1,34
 210 437 210 437 228.5 450.5 c 128,-1,35
 247 464 247 464 247 484 c 128,-1,36
 247 504 247 504 227 520.5 c 128,-1,29
 207 537 207 537 182 537 c 128,-1,30
EndSplineSet
Validated: 1
EndChar

StartChar: ninesuperior
Encoding: 115 8313 107
Width: 365
GlyphClass: 2
Flags: W
LayerCount: 3
Fore
SplineSet
315 586 m 0,0,1
 315 536 315 536 298.5 495.5 c 128,-1,2
 282 455 282 455 259 432.5 c 128,-1,3
 236 410 236 410 207.5 395 c 128,-1,4
 179 380 179 380 157.5 375 c 128,-1,5
 136 370 136 370 121 370 c 0,6,7
 89 370 89 370 69.5 382.5 c 128,-1,8
 50 395 50 395 50 413 c 0,9,10
 50 426 50 426 59.5 436.5 c 128,-1,11
 69 447 69 447 81 447 c 0,12,13
 85 447 85 447 98.5 443 c 128,-1,14
 112 439 112 439 118 439 c 0,15,16
 163 439 163 439 201 472 c 128,-1,17
 239 505 239 505 249 559 c 1,18,19
 210 517 210 517 169 517 c 0,20,21
 121 517 121 517 87 554.5 c 128,-1,22
 53 592 53 592 53 644 c 0,23,24
 53 700 53 700 86 734.5 c 128,-1,25
 119 769 119 769 177 769 c 0,26,27
 229 769 229 769 261.5 737.5 c 128,-1,28
 294 706 294 706 304.5 668 c 128,-1,29
 315 630 315 630 315 586 c 0,0,1
243 632 m 1,30,31
 236 671 236 671 220.5 686.5 c 128,-1,32
 205 702 205 702 175 702 c 0,33,34
 150 702 150 702 135 686 c 128,-1,35
 120 670 120 670 120 644 c 0,36,37
 120 619 120 619 135 601.5 c 128,-1,38
 150 584 150 584 173 584 c 0,39,40
 192 584 192 584 211.5 597 c 128,-1,41
 231 610 231 610 243 632 c 1,30,31
EndSplineSet
Validated: 1
EndChar

StartChar: uni207A
Encoding: 116 8314 108
Width: 374
GlyphClass: 2
Flags: W
LayerCount: 3
Fore
SplineSet
50 551 m 128,-1,1
 50 565 50 565 60.5 574 c 128,-1,2
 71 583 71 583 86 583 c 2,3,-1
 155 583 l 1,4,-1
 155 652 l 2,5,6
 155 666 155 666 164 677 c 128,-1,7
 173 688 173 688 187 688 c 0,8,9
 202 688 202 688 210.5 676.5 c 128,-1,10
 219 665 219 665 219 650 c 2,11,-1
 219 583 l 1,12,-1
 289 583 l 2,13,14
 303 583 303 583 313.5 574 c 128,-1,15
 324 565 324 565 324 551 c 0,16,17
 324 536 324 536 312.5 527 c 128,-1,18
 301 518 301 518 287 518 c 2,19,-1
 219 518 l 1,20,-1
 219 450 l 2,21,22
 219 435 219 435 210 424.5 c 128,-1,23
 201 414 201 414 186.5 414 c 128,-1,24
 172 414 172 414 163.5 424 c 128,-1,25
 155 434 155 434 155 450 c 2,26,-1
 155 518 l 1,27,-1
 86 518 l 2,28,29
 72 518 72 518 61 527.5 c 128,-1,0
 50 537 50 537 50 551 c 128,-1,1
EndSplineSet
Validated: 1
EndChar

StartChar: uni207B
Encoding: 117 8315 109
Width: 374
GlyphClass: 2
Flags: W
LayerCount: 3
Fore
SplineSet
50 551 m 128,-1,1
 50 565 50 565 60.5 574 c 128,-1,2
 71 583 71 583 86 583 c 2,3,-1
 289 583 l 2,4,5
 303 583 303 583 313.5 574 c 128,-1,6
 324 565 324 565 324 551 c 0,7,8
 324 536 324 536 312.5 527 c 128,-1,9
 301 518 301 518 287 518 c 2,10,-1
 86 518 l 2,11,12
 72 518 72 518 61 527.5 c 128,-1,0
 50 537 50 537 50 551 c 128,-1,1
EndSplineSet
Validated: 1
EndChar

StartChar: parenleftsuperior
Encoding: 119 8317 111
Width: 236
GlyphClass: 2
Flags: W
LayerCount: 3
Fore
SplineSet
157 800 m 0,0,1
 173 800 173 800 179.5 788.5 c 128,-1,2
 186 777 186 777 186 766 c 0,3,4
 186 764 186 764 170.5 730.5 c 128,-1,5
 155 697 155 697 139.5 649.5 c 128,-1,6
 124 602 124 602 124 564 c 0,7,8
 124 521 124 521 132 487 c 128,-1,9
 140 453 140 453 148.5 434.5 c 128,-1,10
 157 416 157 416 182 369 c 0,11,12
 186 362 186 362 186 354 c 0,13,14
 186 342 186 342 178.5 332 c 128,-1,15
 171 322 171 322 155 322 c 0,16,17
 149 322 149 322 142 326 c 0,18,19
 113 343 113 343 81.5 408.5 c 128,-1,20
 50 474 50 474 50 556 c 128,-1,21
 50 638 50 638 83 714 c 128,-1,22
 116 790 116 790 150 799 c 0,23,24
 152 800 152 800 157 800 c 0,0,1
EndSplineSet
Validated: 1
EndChar

StartChar: uniFFFD
Encoding: 459 65533 129
Width: 600
GlyphClass: 2
Flags: W
LayerCount: 3
Fore
SplineSet
164 364 m 128,-1,1
 214 364 214 364 214 430 c 2,2,-1
 214 444 l 1,3,4
 264 468 264 468 319 468 c 0,5,6
 367 468 367 468 397 444.5 c 128,-1,7
 427 421 427 421 427 384 c 0,8,9
 427 352 427 352 393 327.5 c 128,-1,10
 359 303 359 303 263 266 c 1,11,-1
 263 210 l 2,12,13
 263 144 263 144 313 144 c 0,14,15
 357 144 357 144 363 198 c 1,16,17
 454 238 454 238 490.5 278 c 128,-1,18
 527 318 527 318 527 379 c 0,19,20
 527 463 527 463 469 515.5 c 128,-1,21
 411 568 411 568 318 568 c 0,22,23
 270 568 270 568 228 556 c 128,-1,24
 186 544 186 544 114 509 c 1,25,-1
 114 430 l 2,26,0
 114 364 114 364 164 364 c 128,-1,1
321 -45 m 2,27,28
 349 -45 349 -45 368 -26 c 128,-1,29
 387 -7 387 -7 387 21 c 128,-1,30
 387 49 387 49 368 68 c 128,-1,31
 349 87 349 87 321 87 c 2,32,-1
 304 87 l 2,33,34
 276 87 276 87 256.5 67.5 c 128,-1,35
 237 48 237 48 237 21 c 128,-1,36
 237 -6 237 -6 256.5 -25.5 c 128,-1,37
 276 -45 276 -45 304 -45 c 2,38,-1
 321 -45 l 2,27,28
643 327 m 1,39,-1
 298 -147 l 1,40,-1
 -43 326 l 1,41,-1
 299 800 l 1,42,-1
 643 327 l 1,39,-1
EndSplineSet
Validated: 1
EndChar

StartChar: uniE030
Encoding: 139 57392 131
Width: 137
GlyphClass: 2
Flags: MW
HStem: -218 21G
VStem: 50 37
LayerCount: 3
Fore
SplineSet
88 -202 m 1,0,-1
 50 -202 l 1,1,-1
 50 797 l 1,2,-1
 88 797 l 1,3,-1
 88 -202 l 1,0,-1
EndSplineSet
Validated: 1
EndChar

StartChar: uniE031
Encoding: 140 57393 132
Width: 246
GlyphClass: 2
Flags: MW
HStem: -226 21G
VStem: 50 30 139 30
LayerCount: 3
Fore
SplineSet
160 -202 m 1,0,-1
 160 799 l 1,1,-1
 197 799 l 1,2,-1
 197 -202 l 1,3,-1
 160 -202 l 1,0,-1
87 -202 m 1,4,-1
 50 -202 l 1,5,-1
 50 799 l 1,6,-1
 87 799 l 1,7,-1
 87 -202 l 1,4,-1
EndSplineSet
Validated: 1
EndChar

StartChar: uniE032
Encoding: 141 57394 133
Width: 329
GlyphClass: 2
Flags: MW
HStem: -60 21G
VStem: 46 14 85 48
LayerCount: 3
Fore
SplineSet
280 -202 m 1,0,-1
 153 -202 l 1,1,-1
 153 802 l 1,2,-1
 280 802 l 1,3,-1
 280 -202 l 1,0,-1
87 -202 m 1,4,-1
 50 -202 l 1,5,-1
 50 802 l 1,6,-1
 87 802 l 1,7,-1
 87 -202 l 1,4,-1
EndSplineSet
Validated: 1
EndChar

StartChar: uniE033
Encoding: 142 57395 134
Width: 330
GlyphClass: 2
Flags: MW
HStem: -215 21G
VStem: 49 115 226 32
LayerCount: 3
Fore
SplineSet
50 -202 m 1,0,-1
 50 796 l 1,1,-1
 177 796 l 1,2,-1
 177 -202 l 1,3,-1
 50 -202 l 1,0,-1
245 -202 m 1,4,-1
 245 796 l 1,5,-1
 281 796 l 1,6,-1
 281 -202 l 1,7,-1
 245 -202 l 1,4,-1
EndSplineSet
Validated: 1
EndChar

StartChar: uniE034
Encoding: 143 57396 135
Width: 229
GlyphClass: 2
Flags: MW
HStem: -213 21G
VStem: 50 131
LayerCount: 3
Fore
SplineSet
180 799 m 1,0,-1
 180 -202 l 1,1,-1
 50 -202 l 1,2,-1
 50 799 l 1,3,-1
 180 799 l 1,0,-1
EndSplineSet
Validated: 1
EndChar

StartChar: uniE035
Encoding: 144 57397 136
Width: 444
GlyphClass: 2
Flags: MW
HStem: -224 21G
VStem: 49 105 232 105
LayerCount: 3
Fore
SplineSet
50 -202 m 1,0,-1
 50 796 l 1,1,-1
 176 796 l 1,2,-1
 176 -202 l 1,3,-1
 50 -202 l 1,0,-1
269 -202 m 1,4,-1
 269 796 l 1,5,-1
 395 796 l 1,6,-1
 395 -202 l 1,7,-1
 269 -202 l 1,4,-1
EndSplineSet
Validated: 1
EndChar

StartChar: uniE036
Encoding: 145 57398 137
Width: 137
GlyphClass: 2
Flags: MW
HStem: -212 86 387 86
VStem: 50 36
LayerCount: 3
Fore
SplineSet
50 268 m 1,0,-1
 88 268 l 1,1,-1
 88 -20 l 1,2,-1
 50 -20 l 1,3,-1
 50 268 l 1,0,-1
88 324 m 1,4,-1
 50 324 l 1,5,-1
 50 612 l 1,6,-1
 88 612 l 1,7,-1
 88 324 l 1,4,-1
50 -77 m 1,8,-1
 88 -77 l 1,9,-1
 88 -202 l 1,10,-1
 50 -202 l 1,11,-1
 50 -77 l 1,8,-1
88 670 m 1,12,-1
 50 670 l 1,13,-1
 50 794 l 1,14,-1
 88 794 l 1,15,-1
 88 670 l 1,12,-1
EndSplineSet
Validated: 1
EndChar

StartChar: uniE037
Encoding: 146 57399 138
Width: 150
GlyphClass: 2
Flags: MW
HStem: -219 36 -154 36 -90 37 -25 36 39 36 104 36 168 36 232 37 297 36 362 36 426 36 490 37
VStem: 50 47
LayerCount: 3
Fore
SplineSet
76 399 m 0,0,1
 56 399 56 399 51 418 c 0,2,3
 50 422 50 422 50 424 c 0,4,5
 50 445 50 445 71 448 c 0,6,7
 74 448 74 448 76 449 c 0,8,9
 95 449 95 449 99 431 c 0,10,11
 100 427 100 427 100 424 c 0,12,13
 100 405 100 405 82 400 c 0,14,15
 79 399 79 399 76 399 c 0,0,1
50 -5 m 0,16,17
 56 15 56 15 76 19 c 0,18,19
 79 19 79 19 82 18.5 c 128,-1,20
 85 18 85 18 88 16 c 128,-1,21
 91 14 91 14 93 12 c 128,-1,22
 95 10 95 10 96.5 7 c 128,-1,23
 98 4 98 4 99 1 c 128,-1,24
 100 -2 100 -2 100 -5 c 0,25,26
 94 -25 94 -25 76 -30 c 1,27,28
 56 -30 56 -30 51 -12 c 0,29,30
 50 -8 50 -8 50 -5 c 0,16,17
50 -92 m 0,31,32
 50 -75 50 -75 68 -69 c 0,33,34
 72 -68 72 -68 76 -68 c 0,35,36
 93 -68 93 -68 99 -84 c 0,37,38
 100 -88 100 -88 100 -92 c 0,39,40
 100 -111 100 -111 82 -116 c 0,41,42
 78 -117 78 -117 76 -117 c 0,43,44
 56 -117 56 -117 51 -98 c 0,45,46
 50 -95 50 -95 50 -92 c 0,31,32
50 165 m 0,47,48
 56 185 56 185 76 190 c 1,49,50
 93 190 93 190 99 173 c 0,51,52
 100 169 100 169 100 165 c 0,53,54
 100 148 100 148 83 143 c 0,55,56
 79 142 79 142 76 142 c 0,57,58
 56 142 56 142 51 160 c 0,59,60
 50 163 50 163 50 165 c 0,47,48
50 253 m 0,61,62
 50 270 50 270 68 275 c 0,63,64
 72 276 72 276 76 277 c 0,65,66
 93 277 93 277 99 260 c 0,67,68
 100 256 100 256 100 253 c 0,69,70
 100 234 100 234 82 229 c 0,71,72
 78 228 78 228 76 228 c 0,73,74
 56 228 56 228 51 247 c 0,75,76
 50 250 50 250 50 253 c 0,61,62
76 -203 m 0,77,78
 56 -203 56 -203 51 -184 c 0,79,80
 50 -180 50 -180 50 -178 c 0,81,82
 50 -161 50 -161 68 -155 c 0,83,84
 72 -154 72 -154 76 -154 c 0,85,86
 93 -154 93 -154 99 -170 c 0,87,88
 100 -174 100 -174 100 -178 c 0,89,90
 100 -197 100 -197 82 -202 c 0,91,92
 79 -203 79 -203 76 -203 c 0,77,78
76 743 m 0,93,94
 56 743 56 743 51 762 c 0,95,96
 50 766 50 766 50 768 c 0,97,98
 50 787 50 787 69 792 c 0,99,100
 73 793 73 793 76 793 c 0,101,102
 93 793 93 793 99 776 c 0,103,104
 100 772 100 772 100 768 c 0,105,106
 100 749 100 749 82 744 c 0,107,108
 79 743 79 743 76 743 c 0,93,94
76 572 m 0,109,110
 56 572 56 572 51 590 c 0,111,112
 50 593 50 593 50 596 c 0,113,114
 50 615 50 615 69 620 c 0,115,116
 73 621 73 621 76 621 c 0,117,118
 93 621 93 621 99 604 c 0,119,120
 100 600 100 600 100 596 c 0,121,122
 100 579 100 579 83 574 c 0,123,124
 79 572 79 572 76 572 c 0,109,110
76 658 m 0,125,126
 54 663 54 663 50 683 c 0,127,128
 50 700 50 700 68 706 c 0,129,130
 72 707 72 707 76 707 c 0,131,132
 93 707 93 707 99 691 c 0,133,134
 100 687 100 687 100 683 c 0,135,136
 100 663 100 663 82 659 c 0,137,138
 79 658 79 658 76 658 c 0,125,126
50 510 m 0,139,140
 50 529 50 529 69 534 c 0,141,142
 73 535 73 535 76 535 c 0,143,144
 93 535 93 535 99 518 c 0,145,146
 100 514 100 514 100 510 c 0,147,148
 100 493 100 493 83 488 c 0,149,150
 79 487 79 487 76 486 c 0,151,152
 56 486 56 486 51 504 c 0,153,154
 50 508 50 508 50 510 c 0,139,140
50 79 m 0,155,156
 55 100 55 100 76 104 c 0,157,158
 95 104 95 104 99 86 c 0,159,160
 100 82 100 82 100 79 c 0,161,162
 100 62 100 62 83 57 c 0,163,164
 79 56 79 56 76 56 c 0,165,166
 56 56 56 56 51 74 c 0,167,168
 50 77 50 77 50 79 c 0,155,156
76 314 m 0,169,170
 54 319 54 319 50 339 c 0,171,172
 50 356 50 356 68 361 c 0,173,174
 72 362 72 362 76 363 c 0,175,176
 93 363 93 363 99 346 c 0,177,178
 100 342 100 342 100 339 c 0,179,180
 100 319 100 319 82 315 c 0,181,182
 79 314 79 314 76 314 c 0,169,170
EndSplineSet
Validated: 2049
EndChar

StartChar: uniE040
Encoding: 147 57408 139
Width: 478
GlyphClass: 2
Flags: MW
HStem: -217 21G 8 70 186 70
VStem: 49 119 232 33 302 95
LayerCount: 3
Fore
SplineSet
50 799 m 1,0,-1
 179 799 l 1,1,-1
 179 -202 l 1,2,-1
 50 -202 l 1,3,-1
 50 799 l 1,0,-1
249 799 m 1,4,-1
 285 799 l 1,5,-1
 285 -202 l 1,6,-1
 249 -202 l 1,7,-1
 249 799 l 1,4,-1
377 371 m 0,8,9
 343 371 343 371 330 401 c 0,10,11
 326 411 326 411 326 421 c 0,12,13
 326 453 326 453 356 467 c 0,14,15
 367 471 367 471 377 471 c 0,16,17
 410 471 410 471 424 442 c 0,18,19
 429 432 429 432 429 421 c 0,20,21
 429 387 429 387 397 375 c 0,22,23
 387 371 387 371 377 371 c 0,8,9
326 168 m 0,24,25
 326 200 326 200 356 214 c 0,26,27
 366 219 366 219 377 219 c 0,28,29
 410 219 410 219 424 189 c 0,30,31
 429 179 429 179 429 168 c 0,32,33
 429 136 429 136 399 123 c 0,34,35
 389 118 389 118 377 118 c 0,36,37
 344 118 344 118 330 148 c 0,38,39
 326 158 326 158 326 168 c 0,24,25
EndSplineSet
Validated: 1
EndChar

StartChar: uniE041
Encoding: 148 57409 140
Width: 475
GlyphClass: 2
Flags: MW
HStem: -216 21G 24 73 210 73
VStem: 96 90 219 32 312 112
LayerCount: 3
Fore
SplineSet
425 -202 m 1,0,-1
 297 -202 l 1,1,-1
 297 796 l 1,2,-1
 425 796 l 1,3,-1
 425 -202 l 1,0,-1
191 796 m 1,4,-1
 228 796 l 1,5,-1
 228 -202 l 1,6,-1
 191 -202 l 1,7,-1
 191 796 l 1,4,-1
50 175 m 0,8,9
 50 210 50 210 82 221 c 0,10,11
 92 224 92 224 101 225 c 0,12,13
 133 225 133 225 147 196 c 0,14,15
 152 185 152 185 152 175 c 0,16,17
 152 144 152 144 122 129 c 0,18,19
 111 125 111 125 101 125 c 0,20,21
 67 125 67 125 54 155 c 0,22,23
 50 165 50 165 50 175 c 0,8,9
50 427 m 0,24,25
 50 460 50 460 81 473 c 0,26,27
 91 477 91 477 101 477 c 0,28,29
 133 477 133 477 147 448 c 0,30,31
 152 437 152 437 152 427 c 0,32,33
 152 396 152 396 122 382 c 0,34,35
 112 377 112 377 101 377 c 0,36,37
 67 377 67 377 54 407 c 0,38,39
 50 417 50 417 50 427 c 0,24,25
EndSplineSet
Validated: 1
EndChar

StartChar: uniE042
Encoding: 149 57410 141
Width: 600
GlyphClass: 2
Flags: MW
HStem: -218 21G -26 60 -22 60 125 60 129 60
VStem: 21 78 129 28 210 98 359 28 417 78
LayerCount: 3
Fore
SplineSet
362 -201 m 1,0,-1
 239 -201 l 1,1,-1
 239 798 l 1,2,-1
 362 798 l 1,3,-1
 362 -201 l 1,0,-1
463 -201 m 1,4,-1
 427 -201 l 1,5,-1
 427 798 l 1,6,-1
 463 798 l 1,7,-1
 463 -201 l 1,4,-1
173 -201 m 1,8,-1
 137 -201 l 1,9,-1
 137 798 l 1,10,-1
 173 798 l 1,11,-1
 173 -201 l 1,8,-1
3 176 m 0,12,13
 3 211 3 211 33 223 c 0,14,15
 42 226 42 226 52 226 c 0,16,17
 83 226 83 226 96 197 c 0,18,19
 100 186 100 186 101 176 c 0,20,21
 101 146 101 146 73 131 c 0,22,23
 63 126 63 126 52 126 c 0,24,25
 19 126 19 126 6 157 c 0,26,27
 3 166 3 166 3 176 c 0,12,13
548 371 m 0,28,29
 517 371 517 371 504 399 c 0,30,31
 500 410 500 410 499 421 c 0,32,33
 499 451 499 451 527 465 c 0,34,35
 538 470 538 470 548 471 c 0,36,37
 581 471 581 471 594 440 c 0,38,39
 598 430 598 430 597 421 c 0,40,41
 597 386 597 386 567 374 c 0,42,43
 557 371 557 371 548 371 c 0,28,29
499 169 m 0,44,45
 499 199 499 199 527 213 c 0,46,47
 537 218 537 218 548 219 c 0,48,49
 581 219 581 219 594 188 c 0,50,51
 598 178 598 178 597 169 c 0,52,53
 597 136 597 136 568 123 c 0,54,55
 558 119 558 119 548 119 c 0,56,57
 518 119 518 119 505 146 c 0,58,59
 499 158 499 158 499 169 c 0,44,45
52 378 m 0,60,61
 19 378 19 378 6 409 c 0,62,63
 2 419 2 419 3 428 c 0,64,65
 3 461 3 461 32 474 c 0,66,67
 42 478 42 478 52 478 c 0,68,69
 82 478 82 478 95 450 c 0,70,71
 100 439 100 439 101 428 c 0,72,73
 101 398 101 398 73 384 c 0,74,75
 63 378 63 378 52 378 c 0,60,61
EndSplineSet
Validated: 1
EndChar

StartChar: uniE043
Encoding: 150 57411 142
Width: 204
GlyphClass: 2
Flags: MW
HStem: 130 104 393 104
VStem: 50 104<167.9 197.15 430.5 459.1>
LayerCount: 3
Fore
SplineSet
102 130 m 0,0,1
 69 130 69 130 55 161 c 0,2,3
 50 172 50 172 50 182 c 0,4,5
 50 217 50 217 82 230 c 0,6,7
 92 234 92 234 102 234 c 0,8,9
 137 234 137 234 150 203 c 0,10,11
 154 193 154 193 154 182 c 0,12,13
 154 149 154 149 124 135 c 0,14,15
 113 130 113 130 102 130 c 0,0,1
50 445 m 0,16,17
 50 478 50 478 80 492 c 0,18,19
 91 497 91 497 102 497 c 0,20,21
 135 497 135 497 149 466 c 0,22,23
 154 455 154 455 154 445 c 0,24,25
 154 412 154 412 124 398 c 0,26,27
 113 393 113 393 102 393 c 0,28,29
 69 393 69 393 55 423 c 0,30,31
 50 434 50 434 50 445 c 0,16,17
EndSplineSet
Validated: 1
EndChar

StartChar: uniE045
Encoding: 151 57413 143
Width: 1214
GlyphClass: 2
Flags: MW
HStem: -9 32 -4 21G 0 34 417 32 428 32
VStem: 115 113 409 125 515 118 661 32 662 72<348.4 361.4> 951 74 972 29 1046 118
LayerCount: 3
Fore
SplineSet
409 231 m 0,0,1
 408 416 408 416 280 417 c 2,2,-1
 264 417 l 2,3,4
 235 417 235 417 230 400 c 0,5,6
 228 392 228 392 228 380 c 2,7,-1
 228 74 l 2,8,9
 228 42 228 42 242 37 c 0,10,11
 250 34 250 34 264 34 c 2,12,-1
 278 34 l 2,13,14
 373 34 373 34 398 128 c 0,15,16
 409 169 409 169 409 231 c 0,0,1
534 230 m 0,17,18
 532 98 532 98 446 39 c 0,19,20
 391 0 391 0 280 0 c 2,21,-1
 50 0 l 1,22,-1
 50 34 l 1,23,-1
 59 34 l 2,24,25
 102 34 102 34 111 43 c 0,26,27
 115 51 115 51 115 90 c 2,28,-1
 115 361 l 2,29,30
 115 403 115 403 111 408 c 0,31,32
 98 417 98 417 59 417 c 2,33,-1
 50 417 l 1,34,-1
 50 450 l 1,35,-1
 272 450 l 2,36,37
 388 450 388 450 436 422 c 0,38,39
 441 419 441 419 444 417 c 0,40,41
 534 356 534 356 534 230 c 0,17,18
634 49 m 0,42,43
 634 12 634 12 600 -3 c 0,44,45
 587 -9 587 -9 574 -9 c 0,46,47
 538 -9 538 -9 522 24 c 0,48,49
 516 37 516 37 515 49 c 0,50,51
 515 86 515 86 549 102 c 0,52,53
 561 107 561 107 574 108 c 0,54,55
 613 108 613 108 628 74 c 0,56,57
 634 61 634 61 634 49 c 0,42,43
1025 139 m 0,58,59
 1025 57 1025 57 956 16 c 0,60,61
 914 -8 914 -8 860 -9 c 0,62,63
 786 -8 786 -8 732 32 c 1,64,-1
 693 -4 l 1,65,-1
 661 -4 l 1,66,-1
 661 173 l 1,67,-1
 693 173 l 1,68,69
 733 63 733 63 812 32 c 0,70,71
 836 23 836 23 860 23 c 0,72,73
 926 23 926 23 945 68 c 0,74,75
 950 81 950 81 951 96 c 0,76,77
 950 131 950 131 922 146 c 0,78,79
 908 152 908 152 878 159 c 0,80,81
 874 160 874 160 872.5 160.5 c 128,-1,82
 871 161 871 161 868 161.5 c 128,-1,83
 865 162 865 162 864 162 c 0,84,85
 861 163 861 163 855 164 c 2,86,-1
 816 173 l 1,87,88
 700 193 700 193 670 273 c 0,89,90
 662 296 662 296 662 320 c 0,91,92
 662 401 662 401 732 439 c 0,93,94
 772 460 772 460 824 460 c 0,95,96
 887 459 887 459 935 426 c 1,97,-1
 969 455 l 1,98,-1
 998 455 l 1,99,-1
 1004 294 l 1,100,-1
 972 294 l 1,101,102
 916 427 916 427 818 428 c 0,103,104
 760 428 760 428 740 388 c 0,105,106
 734 375 734 375 734 361 c 0,107,108
 736 323 736 323 777 308 c 0,109,110
 787 305 787 305 803 302 c 0,111,112
 823 298 823 298 840 294 c 2,113,-1
 870 286 l 1,114,115
 996 259 996 259 1019 184 c 0,116,117
 1025 163 1025 163 1025 139 c 0,58,59
1164 49 m 0,118,119
 1164 12 1164 12 1131 -3 c 0,120,121
 1118 -9 1118 -9 1104 -9 c 0,122,123
 1068 -9 1068 -9 1052 24 c 0,124,125
 1046 37 1046 37 1046 49 c 0,126,127
 1046 86 1046 86 1079 102 c 0,128,129
 1091 107 1091 107 1104 108 c 0,130,131
 1143 108 1143 108 1159 74 c 0,132,133
 1164 61 1164 61 1164 49 c 0,118,119
EndSplineSet
Validated: 1
EndChar

StartChar: uniE046
Encoding: 152 57414 144
Width: 1214
GlyphClass: 2
Flags: MW
HStem: -9 38 0 34 417 32 428 32
VStem: 115 113 409 125 515 118 625 124 1008 30 1046 118
LayerCount: 3
Fore
SplineSet
409 231 m 4,0,1
 408 416 408 416 280 417 c 6,2,-1
 264 417 l 6,3,4
 235 417 235 417 230 400 c 4,5,6
 228 392 228 392 228 380 c 6,7,-1
 228 74 l 6,8,9
 228 42 228 42 242 37 c 4,10,11
 250 34 250 34 264 34 c 6,12,-1
 278 34 l 6,13,14
 373 34 373 34 398 128 c 4,15,16
 409 169 409 169 409 231 c 4,0,1
534 230 m 4,17,18
 532 98 532 98 446 39 c 4,19,20
 391 0 391 0 280 0 c 6,21,-1
 50 0 l 5,22,-1
 50 34 l 5,23,-1
 59 34 l 6,24,25
 102 34 102 34 111 43 c 4,26,27
 115 51 115 51 115 90 c 6,28,-1
 115 361 l 6,29,30
 115 403 115 403 111 408 c 4,31,32
 98 417 98 417 59 417 c 6,33,-1
 50 417 l 5,34,-1
 50 450 l 5,35,-1
 272 450 l 6,36,37
 388 450 388 450 436 422 c 4,38,39
 441 419 441 419 444 417 c 4,40,41
 534 356 534 356 534 230 c 4,17,18
634 49 m 4,42,43
 634 12 634 12 600 -3 c 4,44,45
 587 -9 587 -9 574 -9 c 4,46,47
 538 -9 538 -9 522 24 c 4,48,49
 516 37 516 37 515 49 c 4,50,51
 515 86 515 86 549 102 c 4,52,53
 561 107 561 107 574 108 c 4,54,55
 613 108 613 108 628 74 c 4,56,57
 634 61 634 61 634 49 c 4,42,43
1013 165 m 5,58,-1
 1051 156 l 5,59,60
 1018 -1 1018 -1 870 -9 c 4,61,62
 861 -9 861 -9 853 -9 c 4,63,64
 745 -8 745 -8 684 60 c 4,65,66
 625 126 625 126 625 220 c 4,67,68
 625 341 625 341 709 409 c 4,69,70
 773 460 773 460 861 460 c 4,71,72
 919 459 919 459 976 426 c 5,73,-1
 1008 458 l 5,74,-1
 1035 458 l 5,75,-1
 1042 278 l 5,76,-1
 1008 276 l 5,77,78
 970 422 970 422 874 427 c 4,79,80
 870 427 870 427 866 428 c 4,81,82
 764 428 764 428 750 279 c 4,83,84
 748 256 748 256 748 231 c 4,85,86
 749 29 749 29 873 29 c 4,87,88
 966 29 966 29 1002 127 c 4,89,90
 1009 145 1009 145 1013 165 c 5,58,-1
1164 49 m 4,91,92
 1164 12 1164 12 1131 -3 c 4,93,94
 1118 -9 1118 -9 1104 -9 c 4,95,96
 1068 -9 1068 -9 1052 24 c 4,97,98
 1046 37 1046 37 1046 49 c 4,99,100
 1046 86 1046 86 1079 102 c 4,101,102
 1091 107 1091 107 1104 108 c 4,103,104
 1143 108 1143 108 1159 74 c 4,105,106
 1164 61 1164 61 1164 49 c 4,91,92
EndSplineSet
Validated: 1
EndChar

StartChar: uniE047
Encoding: 153 57415 145
Width: 668
GlyphClass: 2
Flags: MW
HStem: -13 21G<154 154> -8 61 216 118 425 118 692 74 775 14
VStem: 50 74 73 118 203 148 310 142 478 118 554 64
LayerCount: 3
Fore
SplineSet
67 497 m 0,0,1
 50 535 50 535 50 573 c 0,2,3
 50 658 50 658 111 720 c 0,4,5
 157 765 157 765 205 766 c 0,6,7
 345 766 345 766 352 663 c 0,8,9
 352 657 352 657 353 651 c 0,10,11
 353 594 353 594 302 583 c 0,12,13
 292 581 292 581 281 581 c 0,14,15
 229 581 229 581 206 665 c 0,16,17
 205 667 205 667 205 671 c 2,18,-1
 203 679 l 2,19,20
 196 691 196 691 186 692 c 2,21,-1
 180 692 l 1,22,23
 125 681 125 681 124 627 c 0,24,25
 124 598 124 598 138 572 c 0,26,27
 162 532 162 532 332 462 c 0,28,29
 340 460 340 460 342 459 c 0,30,31
 348 461 348 461 352 467 c 2,32,-1
 523 775 l 2,33,34
 532 789 532 789 549 789 c 0,35,36
 554 788 554 788 564 786 c 0,37,38
 579 776 579 776 579 760 c 0,39,40
 578 752 578 752 574 746 c 0,41,42
 408 447 l 0,43,44
 408 446 408 446 407 444 c 0,45,46
 406 442 406 442 406 441 c 0,47,48
 406 435 406 435 421 425 c 0,49,50
 422 424 422 424 423 424 c 0,51,52
 451 413 451 413 504 370 c 0,53,54
 604 289 604 289 616 211 c 0,55,56
 619 190 619 190 618 181 c 0,57,58
 618 100 618 100 555 41 c 0,59,60
 502 -7 502 -7 436 -8 c 0,61,62
 371 -8 371 -8 331 50 c 0,63,64
 315 73 315 73 311 96 c 0,65,66
 310 102 310 102 310 110 c 0,67,68
 312 160 312 160 384 178 c 0,69,70
 389 179 389 179 397 179 c 0,71,72
 429 179 429 179 445 145 c 0,73,74
 452 129 452 129 452 112 c 2,75,-1
 452 100 l 2,76,77
 452 59 452 59 483 54 c 0,78,79
 487 54 487 54 489 53 c 0,80,81
 490 53 490 53 492.5 53.5 c 128,-1,82
 495 54 495 54 496 55 c 0,83,84
 542 62 542 62 552 107 c 0,85,86
 554 117 554 117 554 127 c 0,87,88
 554 201 554 201 411 262 c 0,89,90
 357 285 357 285 331 290 c 0,91,92
 329 290 329 290 326 288.5 c 128,-1,93
 323 287 323 287 321 285.5 c 128,-1,94
 319 284 319 284 319 285 c 1,95,-1
 154 -13 l 2,96,97
 144 -28 144 -28 128 -29 c 0,98,99
 120 -28 120 -28 114 -23 c 0,100,101
 112 -22 112 -22 110 -20.5 c 128,-1,102
 108 -19 108 -19 106 -17 c 128,-1,103
 104 -15 104 -15 103 -12.5 c 128,-1,104
 102 -10 102 -10 101 -7.5 c 128,-1,105
 100 -5 100 -5 99.5 -2.5 c 128,-1,106
 99 0 99 0 99 3 c 0,107,108
 99 9 99 9 102 16 c 0,109,110
 259 299 l 0,111,112
 265 312 265 312 266 316 c 0,113,114
 265 321 265 321 259 325 c 0,115,116
 242 331 242 331 181 377 c 0,117,118
 90 446 90 446 67 497 c 0,0,1
538 425 m 0,119,120
 502 425 502 425 485 458 c 0,121,122
 478 471 478 471 478 485 c 0,123,124
 478 522 478 522 512 538 c 0,125,126
 526 544 526 544 538 543 c 0,127,128
 575 543 575 543 591 510 c 0,129,130
 596 498 596 498 596 485 c 0,131,132
 596 448 596 448 563 431 c 0,133,134
 551 425 551 425 538 425 c 0,119,120
132 216 m 0,135,136
 96 216 96 216 80 248 c 0,137,138
 74 261 74 261 73 274 c 0,139,140
 73 310 73 310 105 327 c 0,141,142
 118 334 118 334 132 334 c 0,143,144
 170 334 170 334 186 300 c 0,145,146
 192 287 192 287 192 274 c 0,147,148
 192 237 192 237 158 222 c 0,149,150
 146 216 146 216 132 216 c 0,135,136
EndSplineSet
Validated: 1
EndChar

StartChar: uniE048
Encoding: 154 57416 146
Width: 1022
GlyphClass: 2
Flags: MW
HStem: -199 21G -177 3
VStem: 70 20 106 6 128 19
LayerCount: 3
Fore
SplineSet
50 310 m 4,0,1
 52 331 52 331 67 332 c 6,2,-1
 194 332 l 5,3,4
 203 472 203 472 300 570 c 4,5,6
 384 653 384 653 494 663 c 5,7,-1
 494 784 l 6,8,9
 496 799 496 799 518 799 c 4,10,11
 540 798 540 798 541 784 c 6,12,-1
 541 663 l 5,13,14
 661 653 661 653 748 555 c 4,15,16
 832 459 832 459 840 332 c 5,17,-1
 955 332 l 6,18,19
 971 330 971 330 972 310 c 4,20,21
 970 289 970 289 955 288 c 6,22,-1
 840 288 l 5,23,24
 832 150 832 150 736 52 c 4,25,26
 650 -34 650 -34 541 -43 c 5,27,-1
 541 -174 l 6,28,29
 539 -190 539 -190 518 -191 c 4,30,31
 495 -189 495 -189 494 -174 c 6,32,-1
 494 -43 l 5,33,34
 374 -34 374 -34 287 65 c 4,35,36
 203 161 203 161 194 288 c 5,37,-1
 67 288 l 6,38,39
 51 289 51 289 50 310 c 4,0,1
681 332 m 5,40,41
 681 476 681 476 659 529 c 4,42,43
 628 602 628 602 541 610 c 5,44,-1
 541 332 l 5,45,-1
 681 332 l 5,40,41
541 288 m 5,46,-1
 541 2 l 5,47,48
 644 14 644 14 670 148 c 4,49,50
 680 201 680 201 681 288 c 5,51,-1
 541 288 l 5,46,-1
358 332 m 5,52,-1
 494 332 l 5,53,-1
 494 610 l 5,54,55
 400 602 400 602 373 519 c 4,56,57
 358 469 358 469 358 332 c 5,52,-1
494 288 m 5,58,-1
 358 288 l 5,59,60
 359 132 359 132 390 72 c 4,61,62
 423 10 423 10 494 2 c 5,63,-1
 494 288 l 5,58,-1
EndSplineSet
Validated: 1
EndChar

StartChar: uniE049
Encoding: 155 57417 147
Width: 869
GlyphClass: 2
Flags: MW
HStem: -167 2 -152 2 -138 2
VStem: 147 6 160 2 168 6
LayerCount: 3
Fore
SplineSet
50 301 m 1,0,-1
 50 308 l 2,1,2
 51 327 51 327 65 328 c 2,3,-1
 180 328 l 1,4,-1
 180 631 l 2,5,6
 181 644 181 644 193 645 c 2,7,-1
 412 645 l 1,8,-1
 412 781 l 2,9,10
 412 797 412 797 428 799 c 0,11,12
 430 799 430 799 431 800 c 2,13,-1
 437 800 l 2,14,15
 456 798 456 798 457 781 c 2,16,-1
 457 645 l 1,17,-1
 675 645 l 2,18,19
 687 643 687 643 688 631 c 2,20,-1
 688 328 l 1,21,-1
 805 328 l 1,22,23
 816 323 816 323 819 308 c 2,24,-1
 819 301 l 2,25,26
 818 282 818 282 805 281 c 2,27,-1
 688 281 l 1,28,-1
 688 -39 l 2,29,30
 687 -54 687 -54 675 -55 c 2,31,-1
 457 -55 l 1,32,-1
 457 -173 l 2,33,34
 455 -192 455 -192 437 -193 c 2,35,-1
 431 -193 l 1,36,37
 416 -188 416 -188 412 -173 c 2,38,-1
 412 -55 l 1,39,-1
 193 -55 l 2,40,41
 181 -53 181 -53 180 -39 c 2,42,-1
 180 281 l 1,43,-1
 65 281 l 2,44,45
 51 283 51 283 50 301 c 1,0,-1
457 -8 m 1,46,-1
 557 -8 l 2,47,48
 566 -6 566 -6 567 6 c 2,49,-1
 567 281 l 1,50,-1
 457 281 l 1,51,-1
 457 -8 l 1,46,-1
302 6 m 1,52,53
 303 -7 303 -7 314 -8 c 2,54,-1
 412 -8 l 1,55,-1
 412 281 l 1,56,-1
 302 281 l 1,57,-1
 302 6 l 1,52,53
302 328 m 1,58,-1
 412 328 l 1,59,-1
 412 598 l 1,60,-1
 311 598 l 2,61,62
 304 596 304 596 302 589 c 2,63,-1
 302 328 l 1,58,-1
556 598 m 1,64,-1
 457 598 l 1,65,-1
 457 328 l 1,66,-1
 567 328 l 1,67,-1
 567 586 l 2,68,69
 565 597 565 597 556 598 c 1,64,-1
EndSplineSet
Validated: 1
EndChar

StartChar: uniE04A
Encoding: 156 57418 148
Width: 508
GlyphClass: 2
Flags: MW
HStem: -260 5 -124 7
VStem: 96 40 99 53 109 55 342 57 358 51 364 50
LayerCount: 3
Fore
SplineSet
50 207 m 0,0,1
 50 246 50 246 93 309 c 0,2,3
 99 321 99 321 100 321 c 0,4,5
 99 325 99 325 91 336 c 0,6,7
 58 378 58 378 54 426 c 0,8,9
 54 471 54 471 96 513 c 0,10,11
 103 520 103 520 109 524 c 0,12,13
 117 530 117 530 118 538 c 0,14,15
 117 545 117 545 111 551 c 2,16,-1
 109 554 l 1,17,18
 67 598 67 598 67 658 c 0,19,20
 67 719 67 719 124 760 c 0,21,22
 177 797 177 797 254 797 c 2,23,-1
 259 797 l 2,24,25
 322 795 322 795 377 767 c 0,26,27
 424 741 424 741 426 707 c 0,28,29
 425 649 425 649 368 648 c 0,30,31
 325 648 325 648 302 692 c 0,32,33
 300 696 300 696 299 699 c 0,34,35
 284 732 284 732 231 746 c 0,36,37
 221 749 221 749 215 749 c 0,38,39
 165 749 165 749 145 721 c 0,40,41
 137 709 137 709 137 694 c 0,42,43
 138 647 138 647 290 572 c 2,44,-1
 316 559 l 2,45,46
 446 493 446 493 457 435 c 0,47,48
 458 428 458 428 459 422 c 0,49,50
 459 360 459 360 417 318 c 0,51,52
 409 310 409 310 409 309 c 0,53,54
 402 299 402 299 401 293 c 0,55,56
 402 286 402 286 409 280 c 2,57,-1
 413 276 l 1,58,59
 452 221 452 221 452 178 c 0,60,61
 452 132 452 132 396 78 c 0,62,63
 393 75 393 75 392 74 c 0,64,65
 387 67 387 67 387 59 c 0,66,67
 388 51 388 51 394 44 c 2,68,-1
 396 42 l 2,69,70
 439 1 439 1 440 -51 c 2,71,-1
 440 -60 l 1,72,73
 435 -134 435 -134 373 -173 c 0,74,75
 327 -201 327 -201 259 -201 c 0,76,77
 144 -201 144 -201 98 -136 c 0,78,79
 83 -115 83 -115 83 -97 c 0,80,81
 83 -54 83 -54 122 -47 c 0,82,83
 127 -46 127 -46 133 -46 c 0,84,85
 170 -47 170 -47 196 -83 c 0,86,87
 199 -87 199 -87 205 -98 c 0,88,89
 236 -154 236 -154 268 -165 c 0,90,91
 279 -169 279 -169 290 -168 c 0,92,93
 347 -168 347 -168 363 -122 c 0,94,95
 367 -110 367 -110 367 -99 c 0,96,97
 367 -69 367 -69 291 -13 c 0,98,99
 271 2 271 2 254 11 c 0,100,101
 247 15 247 15 227 25 c 0,102,103
 118 80 118 80 79 129 c 0,104,105
 50 167 50 167 50 207 c 0,0,1
106 250 m 0,106,107
 101 240 101 240 101 235 c 0,108,109
 101 215 101 215 158 178 c 2,110,-1
 159 178 l 1,111,112
 295 112 l 0,113,114
 320 101 320 101 330 99 c 0,115,116
 333 99 333 99 339 98 c 0,117,118
 344 97 344 97 346 98 c 0,119,120
 369 99 369 99 382 123 c 0,121,122
 387 131 387 131 387 140 c 0,123,124
 386 161 386 161 367 178 c 0,125,126
 343 194 343 194 168 275 c 0,127,128
 163 278 163 278 152 279 c 0,129,130
 125 277 125 277 106 250 c 0,106,107
127 471 m 0,131,132
 122 459 122 459 122 456 c 0,133,134
 122 435 122 435 170 407 c 0,135,136
 175 404 175 404 176 403 c 2,137,138
 310 342 l 0,139,140
 331 333 331 333 339 331 c 0,141,142
 347 329 347 329 357 329 c 0,143,144
 382 329 382 329 392 355 c 0,145,146
 395 363 395 363 395 369 c 0,147,148
 394 390 394 390 376 403 c 0,149,150
 371 407 371 407 190 491 c 0,151,152
 186 493 186 493 184 493 c 0,153,154
 179 496 179 496 171 497 c 0,155,156
 147 495 147 495 127 471 c 0,131,132
EndSplineSet
Validated: 1
EndChar

StartChar: uniE04B
Encoding: 157 57419 149
Width: 513
GlyphClass: 2
Flags: MW
HStem: -206 4 -137 21G -91 6
VStem: 37 56 40 75 55 77 211 30 284 32 378 77 399 70 408 68
LayerCount: 3
Fore
SplineSet
196 49 m 1,0,1
 56 126 56 126 51 214 c 0,2,3
 50 225 50 225 50 235 c 0,4,5
 50 314 50 314 94 314 c 0,6,7
 95 314 95 314 98 320 c 128,-1,8
 101 326 101 326 101 329 c 128,-1,9
 101 332 101 332 93 343 c 0,10,11
 54 396 54 396 54 421 c 2,12,-1
 54 433 l 1,13,14
 54 436 54 436 54 439 c 0,15,16
 54 475 54 475 96 518 c 0,17,18
 104 526 104 526 111 530 c 0,19,20
 119 534 119 534 119 541 c 128,-1,21
 119 548 119 548 111 559 c 0,22,23
 68 615 68 615 68 671 c 0,24,25
 68 725 68 725 122 764 c 0,26,27
 177 803 177 803 256 803 c 2,28,-1
 261 803 l 1,29,30
 326 802 326 802 376 776 c 0,31,32
 427 749 427 749 427 710 c 0,33,34
 427 654 427 654 371 654 c 0,35,36
 331 654 331 654 311 686 c 0,37,38
 307 692 307 692 300 706 c 0,39,40
 281 743 281 743 232 753 c 0,41,42
 223 755 223 755 217 755 c 0,43,44
 214 755 214 755 211 755 c 0,45,46
 168 755 168 755 148 728 c 0,47,48
 140 717 140 717 140 699 c 0,49,50
 140 670 140 670 204 626 c 1,51,-1
 205 626 l 1,52,53
 207 625 207 625 209 625 c 128,-1,54
 211 625 211 625 214 627 c 2,55,-1
 214 633 l 1,56,57
 217 645 217 645 228 647 c 1,58,59
 240 645 240 645 243 633 c 1,60,-1
 243 611 l 2,61,62
 243 605 243 605 255 595 c 128,-1,63
 267 585 267 585 278 585 c 0,64,65
 281 585 281 585 282 595 c 1,66,-1
 282 633 l 1,67,68
 285 645 285 645 296 647 c 0,69,70
 310 650 310 650 312 633 c 1,71,-1
 312 579 l 2,72,73
 312 567 312 567 319 564 c 0,74,75
 412 526 412 526 450 468 c 0,76,77
 463 448 463 448 463 428 c 0,78,79
 463 368 463 368 422 327 c 0,80,81
 414 319 414 319 410 314 c 0,82,83
 404 308 404 308 404 301 c 0,84,85
 404 293 404 293 412 284 c 0,86,87
 441 249 441 249 448 225.5 c 128,-1,88
 455 202 455 202 455 182 c 0,89,90
 455 140 455 140 403 88 c 0,91,92
 390 75 390 75 390 65.5 c 128,-1,93
 390 56 390 56 395 52 c 0,94,95
 442 10 442 10 442 -46 c 2,96,-1
 442 -53 l 1,97,98
 437 -129 437 -129 374 -168 c 0,99,100
 330 -195 330 -195 261 -195 c 0,101,102
 146 -195 146 -195 99 -128 c 0,103,104
 84 -107 84 -107 84 -87 c 0,105,106
 84 -50 84 -50 124 -40 c 0,107,108
 128 -39 128 -39 134 -39 c 0,109,110
 174 -39 174 -39 196 -75 c 0,111,112
 199 -80 199 -80 206 -92 c 0,113,114
 239 -146 239 -146 268 -158 c 0,115,116
 277 -162 277 -162 291 -162 c 0,117,118
 292 -162 292 -162 293 -162 c 0,119,120
 351 -162 351 -162 367 -114 c 0,121,122
 370 -105 370 -105 371 -94 c 1,123,-1
 353 -57 l 1,124,125
 332 -25 332 -25 317 -25 c 0,126,127
 313 -25 313 -25 309.5 -32.5 c 128,-1,128
 306 -40 306 -40 295 -41 c 128,-1,129
 284 -42 284 -42 282 -28 c 1,130,-1
 282 -6 l 1,131,132
 281 -1 281 -1 273 7 c 1,133,-1
 256 17 l 1,134,-1
 252 20 l 1,135,136
 245 18 245 18 243 11 c 1,137,-1
 243 -28 l 1,138,139
 241 -38 241 -38 228.5 -41 c 128,-1,140
 216 -44 216 -44 214 -28 c 1,141,-1
 214 29 l 1,142,143
 213 34 213 34 196 49 c 1,0,1
109 258 m 0,144,145
 104 246 104 246 104 241 c 0,146,147
 104 209 104 209 157 186 c 1,148,-1
 199 166 l 2,149,150
 204 164 204 164 208.5 164 c 128,-1,151
 213 164 213 164 214 169 c 1,152,-1
 214 250 l 1,153,154
 213 259 213 259 203 264 c 0,155,156
 163 285 163 285 155 285 c 0,157,158
 154 285 l 0,159,160
 118 279 118 279 109 258 c 0,144,145
312 430 m 1,161,-1
 312 359 l 1,162,163
 313 349 313 349 318.5 346 c 128,-1,164
 324 343 324 343 331 341 c 0,165,166
 350 336 350 336 360 335 c 0,167,168
 382 336 382 336 394 359 c 0,169,170
 399 369 399 369 399 378 c 0,171,172
 399 396 399 396 380 410 c 1,173,-1
 344 431 l 1,174,175
 328 438 328 438 319 438 c 0,176,177
 313 436 313 436 312 430 c 1,161,-1
124 464 m 0,178,179
 125 439 125 439 178 410 c 0,180,181
 180 409 180 409 201 399 c 1,182,-1
 206 399 l 1,183,184
 213 401 213 401 214 404 c 1,185,-1
 214 481 l 2,186,187
 213 487 213 487 206 490 c 2,188,-1
 186 499 l 2,189,190
 180 501 180 501 170 502 c 0,191,192
 144 501 144 501 128 478 c 0,193,194
 124 472 124 472 124 464 c 0,178,179
312 203 m 1,195,-1
 312 128 l 2,196,197
 313 115 313 115 319 111 c 0,198,199
 333 105 333 105 345 105 c 0,200,201
 369 105 369 105 385 129 c 0,202,203
 390 141 390 141 390 148 c 0,204,205
 389 171 389 171 369 185 c 1,206,-1
 324 207 l 2,207,208
 323 208 323 208 318 207.5 c 128,-1,209
 313 207 313 207 312 203 c 1,195,-1
262 240 m 0,210,211
 256 243 256 243 250.5 242 c 128,-1,212
 245 241 245 241 243.5 235.5 c 128,-1,213
 242 230 242 230 242 157 c 0,214,215
 243 146 243 146 249 142 c 1,216,-1
 272 131 l 2,217,218
 280 127 280 127 282 138 c 1,219,-1
 282 216 l 2,220,221
 282 231 282 231 262 240 c 0,210,211
282 446 m 2,222,223
 281 456 281 456 276 458 c 128,-1,224
 271 460 271 460 260 465.5 c 128,-1,225
 249 471 249 471 247 470.5 c 128,-1,226
 245 470 245 470 243.5 466.5 c 128,-1,227
 242 463 242 463 242 431.5 c 128,-1,228
 242 400 242 400 243 390 c 128,-1,229
 244 380 244 380 250 376 c 0,230,231
 274 363 274 363 278 363 c 0,232,233
 281 365 281 365 282 368 c 2,234,-1
 282 446 l 2,222,223
EndSplineSet
Validated: 1025
EndChar

StartChar: uniE09C
Encoding: 159 57500 150
Width: 521
GlyphClass: 2
Flags: MW
HStem: -83 783
VStem: 50 421
LayerCount: 3
Fore
SplineSet
50 -83 m 1,0,-1
 224 310 l 1,1,-1
 50 700 l 1,2,-1
 125 700 l 1,3,-1
 261 385 l 1,4,-1
 396 700 l 1,5,-1
 471 700 l 1,6,-1
 297 310 l 1,7,-1
 471 -83 l 1,8,-1
 396 -83 l 1,9,-1
 261 235 l 1,10,-1
 125 -83 l 1,11,-1
 50 -83 l 1,0,-1
EndSplineSet
Validated: 1
EndChar

StartChar: uniE09D
Encoding: 160 57501 151
Width: 981
GlyphClass: 2
Flags: MW
HStem: 53 103 432 138
VStem: 50 52 879 52
LayerCount: 3
Fore
SplineSet
50 311 m 2,0,1
 50 455 50 455 152 527 c 0,2,3
 214 570 214 570 292 570 c 0,4,5
 410 570 410 570 487 476 c 0,6,7
 532 421 532 421 552 345 c 1,8,9
 612 210 612 210 673 175 c 0,10,11
 706 155 706 155 758 155 c 0,12,13
 836 155 836 155 866 231 c 0,14,15
 879 266 879 266 879 311 c 0,16,17
 879 512 879 512 896 519 c 1,18,19
 922 519 922 519 928 505 c 0,20,21
 931 496 931 496 931 484 c 2,22,-1
 931 311 l 2,23,24
 931 165 931 165 841 96 c 0,25,26
 784 53 784 53 706 53 c 0,27,28
 560 53 560 53 473 184 c 0,29,30
 452 216 452 216 430 261 c 1,31,32
 396 370 396 370 350 404 c 0,33,34
 313 431 313 431 258 432 c 0,35,36
 189 432 189 432 143 380 c 0,37,38
 102 333 102 333 102 261 c 0,39,40
 102 78 102 78 85 70 c 1,41,42
 58 70 58 70 53 86 c 0,43,44
 51 94 51 94 50 105 c 2,45,-1
 50 311 l 2,0,1
EndSplineSet
Validated: 1
EndChar

StartChar: uniE1D2
Encoding: 167 57810 152
Width: 577
GlyphClass: 2
Flags: MW
HStem: 37 26<312.6 323.65 312.6 375.65> 296 26
VStem: 50 122 405 122
LayerCount: 3
Fore
SplineSet
294 322 m 0,0,1
 387 322 387 322 463 274 c 0,2,3
 526 232 526 232 527 181 c 0,4,5
 522 38 522 38 283 37 c 0,6,7
 107 37 107 37 62 127 c 0,8,9
 50 152 50 152 50 181 c 0,10,11
 50 247 50 247 129 288 c 0,12,13
 196 322 196 322 294 322 c 0,0,1
176 250 m 0,14,15
 172 240 172 240 172 223 c 0,16,17
 173 169 173 169 211 123 c 0,18,19
 227 105 227 105 235 98 c 0,20,21
 259 77 259 77 288 68 c 0,22,23
 303 63 303 63 318 63 c 0,24,25
 338 63 338 63 353 68 c 0,26,27
 394 79 394 79 402 123 c 0,28,29
 404 136 404 136 405 144 c 0,30,31
 405 204 405 204 357 253 c 0,32,33
 315 295 315 295 266 296 c 0,34,35
 190 294 190 294 176 250 c 0,14,15
EndSplineSet
Validated: 1
EndChar

StartChar: uniE1D3
Encoding: 168 57811 153
Width: 459
GlyphClass: 2
Flags: MW
HStem: -461 21 -352 21G -350 22
VStem: 56 35 378 31
LayerCount: 3
Fore
SplineSet
168 -202 m 0,0,1
 90 -202 90 -202 61 -152 c 0,2,3
 50 -132 50 -132 50 -108 c 0,4,5
 50 -51 50 -51 95 3 c 0,6,7
 162 82 162 82 289 82 c 0,8,9
 344 81 344 81 377 55 c 1,10,-1
 377 798 l 1,11,-1
 409 798 l 1,12,-1
 409 -13 l 2,13,14
 409 -57 409 -57 374 -107 c 0,15,16
 308 -201 308 -201 168 -202 c 0,0,1
196 -8 m 0,17,18
 86 -68 86 -68 85 -110 c 0,19,20
 86 -120 86 -120 93 -132 c 0,21,22
 109 -157 109 -157 142 -158 c 0,23,24
 186 -157 186 -157 260 -111 c 0,25,26
 363 -49 363 -49 370 -17 c 0,27,28
 371 -13 371 -13 371 -10 c 0,29,30
 370 2 370 2 363 11 c 0,31,32
 349 35 349 35 319 36 c 0,33,34
 279 35 279 35 196 -8 c 0,17,18
EndSplineSet
Validated: 1
EndChar

StartChar: uniE1D4
Encoding: 169 57812 154
Width: 441
GlyphClass: 2
Flags: MW
HStem: 682 19 786 20
VStem: 50 14 194 17
LayerCount: 3
Fore
SplineSet
277 801 m 0,0,1
 351 801 351 801 379 751 c 0,2,3
 390 730 390 730 391 706 c 0,4,5
 391 662 391 662 357 611 c 0,6,7
 294 518 294 518 162 517 c 0,8,9
 111 518 111 518 80 544 c 1,10,-1
 80 -199 l 1,11,-1
 50 -199 l 1,12,-1
 50 613 l 2,13,14
 50 671 50 671 95 724 c 0,15,16
 159 800 159 800 277 801 c 0,0,1
250 608 m 0,17,18
 348 670 348 670 354 703 c 0,19,20
 355 707 355 707 355 709 c 0,21,22
 354 721 354 721 347 730 c 0,23,24
 333 754 333 754 306 755 c 0,25,26
 267 754 267 754 189 711 c 0,27,28
 85 651 85 651 84 609 c 0,29,30
 85 599 85 599 91 587 c 0,31,32
 107 562 107 562 137 561 c 0,33,34
 180 562 180 562 250 608 c 0,17,18
EndSplineSet
Validated: 1
EndChar

StartChar: uniE1D5
Encoding: 170 57813 155
Width: 396
GlyphClass: 2
Flags: MW
HStem: -74 21G
VStem: 362 35
LayerCount: 3
Fore
SplineSet
365 54 m 1,0,-1
 365 801 l 1,1,-1
 396 800 l 1,2,-1
 396 -12 l 2,3,4
 396 -80 396 -80 319 -139 c 0,5,6
 243 -197 243 -197 163 -198 c 0,7,8
 90 -198 90 -198 62 -150 c 0,9,10
 51 -130 51 -130 50 -106 c 0,11,12
 50 -30 50 -30 122 26 c 0,13,14
 191 79 191 79 282 80 c 0,15,16
 334 79 334 79 365 54 c 1,0,-1
EndSplineSet
Validated: 1
EndChar

StartChar: uniE1D6
Encoding: 171 57814 156
Width: 441
GlyphClass: 2
Flags: MW
HStem: 304 496 662 138
VStem: 50 29
LayerCount: 3
Fore
SplineSet
278 797 m 0,0,1
 352 797 352 797 380 747 c 0,2,3
 390 727 390 727 391 705 c 0,4,5
 391 637 391 637 315 578 c 0,6,7
 240 521 240 521 161 520 c 0,8,9
 112 521 112 521 81 547 c 1,10,-1
 81 -199 l 1,11,-1
 50 -199 l 1,12,-1
 50 359 l 1,13,-1
 50 612 l 2,14,15
 50 688 50 688 121 744 c 0,16,17
 188 797 188 797 278 797 c 0,0,1
EndSplineSet
Validated: 1
EndChar

StartChar: uniE1D7
Encoding: 172 57815 157
Width: 658
GlyphClass: 2
Flags: MW
HStem: -98 21G 237 4
VStem: 176 12 267 18
LayerCount: 3
Fore
SplineSet
495 525 m 0,0,1
 608 344 608 344 608 189 c 0,2,3
 608 155 608 155 601.5 112 c 128,-1,4
 595 69 595 69 589 43 c 2,5,-1
 582 18 l 2,6,7
 575 -1 575 -1 556 -2 c 1,8,-1
 555 -1 l 2,9,10
 540 10 540 10 539 28 c 0,11,12
 539 33 539 33 541 42 c 0,13,14
 564 103 564 103 565 178 c 0,15,16
 565 273 565 273 541 325 c 0,17,18
 502 415 502 415 434 492 c 0,19,20
 403 526 403 526 378 542 c 1,21,-1
 378 -9 l 2,22,23
 378 -78 378 -78 303 -138 c 0,24,25
 233 -193 233 -193 160 -193 c 0,26,27
 159 -193 159 -193 157 -193 c 0,28,29
 88 -193 88 -193 61 -145 c 0,30,31
 50 -125 50 -125 50 -101 c 0,32,33
 50 -25 50 -25 119 31 c 0,34,35
 184 83 184 83 269 83 c 0,36,37
 318 82 318 82 348 57 c 1,38,-1
 348 553 l 1,39,-1
 348 784 l 1,40,-1
 348 789 l 1,41,-1
 348 791 l 2,42,43
 349 799 349 799 358 799 c 0,44,45
 382 799 382 799 387 781 c 0,46,47
 388 779 388 779 388 778 c 0,48,49
 408 661 408 661 495 525 c 0,0,1
EndSplineSet
Validated: 1
EndChar

StartChar: uniE1D8
Encoding: 173 57816 158
Width: 435
GlyphClass: 2
Flags: MW
HStem: 595 226
VStem: 50 17 201 26
LayerCount: 3
Fore
SplineSet
327 596 m 1,0,1
 329 591 329 591 329 589 c 0,2,3
 358 485 358 485 358 412 c 0,4,5
 357 268 357 268 234 79 c 0,6,7
 223 63 223 63 199 30 c 0,8,9
 122 -77 122 -77 101 -136 c 0,10,11
 94 -157 94 -157 90 -175 c 0,12,13
 87 -189 87 -189 80 -192 c 1,14,-1
 80 -193 l 1,15,-1
 79 -193 l 2,16,17
 71 -196 71 -196 61 -197 c 0,18,19
 56 -196 56 -196 53 -193 c 2,20,-1
 50 -193 l 1,21,-1
 50 -182 l 1,22,-1
 50 615 l 2,23,24
 50 691 50 691 121 747 c 0,25,26
 187 798 187 798 274 799 c 0,27,28
 346 799 346 799 374 750 c 0,29,30
 384 730 384 730 385 708 c 0,31,32
 384 650 384 650 327 596 c 1,0,1
273 251 m 0,33,34
 304 321 304 321 312 398 c 0,35,36
 313 412 313 412 313 423 c 0,37,38
 313 493 313 493 291 557 c 0,39,40
 289 565 289 565 289 567 c 1,41,42
 222 524 222 524 159 524 c 0,43,44
 111 525 111 525 80 551 c 1,45,-1
 80 57 l 1,46,47
 193 103 193 103 251 207 c 0,48,49
 262 227 262 227 273 251 c 0,33,34
EndSplineSet
Validated: 1
EndChar

StartChar: uniE1D9
Encoding: 174 57817 159
Width: 669
GlyphClass: 2
Flags: MW
HStem: -67 21G 256 126
VStem: 223 17 360 22 362 23
LayerCount: 3
Fore
SplineSet
591 263 m 4,0,1
 619 202 619 202 619 145 c 6,2,-1
 619 123 l 6,3,4
 619 26 619 26 612 15 c 4,5,6
 603 -1 603 -1 592 -2 c 4,7,8
 589 -2 589 -2 585 0 c 4,9,10
 572 6 572 6 572 24 c 6,11,-1
 572 32 l 5,12,13
 580 84 580 84 580 121 c 4,14,15
 580 202 580 202 548 267 c 4,16,17
 490 385 490 385 407 403 c 4,18,19
 392 406 392 406 376 407 c 5,20,-1
 376 -9 l 6,21,22
 376 -78 376 -78 301 -138 c 4,23,24
 231 -194 231 -194 156 -194 c 4,25,26
 87 -194 87 -194 61 -146 c 4,27,28
 50 -126 50 -126 50 -102 c 4,29,30
 50 -26 50 -26 119 31 c 4,31,32
 184 83 184 83 268 83 c 4,33,34
 317 82 317 82 346 57 c 5,35,-1
 346 408 l 5,36,-1
 346 799 l 5,37,-1
 362 799 l 6,38,39
 379 797 379 797 382 787 c 4,40,41
 394 715 394 715 443 668 c 4,42,43
 450 661 450 661 466 648 c 4,44,45
 494 624 494 624 507 610 c 4,46,47
 576 534 576 534 592 503 c 4,48,49
 606 475 606 475 612 439 c 4,50,51
 616 420 616 420 616 403 c 4,52,53
 616 339 616 339 591 278 c 4,54,55
 590 275 590 275 590 272 c 4,56,57
 590 270 590 270 591 267 c 4,58,59
 591 264 591 264 591 263 c 4,0,1
577 374 m 4,60,61
 578 382 578 382 578 394 c 4,62,63
 577 443 577 443 552 481 c 4,64,65
 480 583 480 583 406 584 c 6,66,-1
 399 584 l 6,67,68
 387 583 387 583 385 574 c 6,69,-1
 385 572 l 5,70,71
 400 514 400 514 449 464 c 4,72,73
 494 418 494 418 498 414 c 4,74,75
 537 367 537 367 551 347 c 4,76,77
 554 343 554 343 557 342 c 4,78,79
 566 343 566 343 570 348 c 4,80,81
 574 354 574 354 577 374 c 4,60,61
EndSplineSet
Validated: 1
EndChar

StartChar: uniE1DA
Encoding: 175 57818 160
Width: 419
GlyphClass: 2
Flags: MW
HStem: 383 91 383 425
VStem: 32 10 113 13 114 14
LayerCount: 3
Fore
SplineSet
321 584 m 0,0,1
 331 531 331 531 331 485 c 0,2,3
 331 404 331 404 301 342 c 0,4,5
 301 341 301 341 300 338 c 0,6,7
 299 334 299 334 299 333 c 0,8,9
 300 328 300 328 301 327 c 0,10,11
 325 267 325 267 325 206 c 0,12,13
 325 187 325 187 321 171 c 0,14,15
 310 101 310 101 236 31 c 0,16,17
 225 21 225 21 203 0 c 0,18,19
 133 -63 133 -63 110 -101 c 0,20,21
 92 -133 92 -133 86 -167 c 0,22,23
 84 -179 84 -179 66 -179 c 2,24,-1
 51 -179 l 1,25,-1
 51 -175 l 1,26,-1
 50 -175 l 1,27,-1
 50 619 l 2,28,29
 50 695 50 695 118 749 c 0,30,31
 181 798 181 798 263 799 c 0,32,33
 333 799 333 799 359 750 c 0,34,35
 369 731 369 731 369 709 c 0,36,37
 368 651 368 651 315 600 c 0,38,39
 315 599 315 599 317 594 c 0,40,41
 320 588 320 588 321 584 c 0,0,1
262 130 m 0,42,43
 287 168 287 168 287 215 c 2,44,-1
 287 234 l 2,45,46
 286 237 286 237 285 242 c 0,47,48
 282 253 282 253 280 258 c 0,49,50
 277 264 277 264 268 265 c 0,51,52
 263 264 263 264 261 260 c 0,53,54
 240 229 240 229 209 195 c 0,55,56
 201 186 201 186 152 140 c 0,57,58
 104 94 104 94 90 42 c 0,59,-1
 89 40 l 0,60,61
 91 32 91 32 102 30 c 2,62,-1
 110 30 l 2,63,64
 175 30 175 30 240 102 c 0,65,66
 252 116 252 116 262 130 c 0,42,43
259 338 m 0,67,68
 291 402 291 402 291 486 c 0,69,70
 291 527 291 527 283 573 c 1,71,72
 218 529 218 529 154 529 c 0,73,74
 108 530 108 530 78 555 c 1,75,-1
 78 201 l 1,76,77
 163 207 163 207 216 270 c 0,78,79
 240 299 240 299 259 338 c 0,67,68
EndSplineSet
Validated: 1
EndChar

StartChar: uniE1DB
Encoding: 176 57819 161
Width: 592
GlyphClass: 2
Flags: MW
HStem: -208 21G -207 0
VStem: 50 0 50 0 50 0
LayerCount: 3
Fore
SplineSet
542 96 m 1,0,-1
 542 71 l 2,1,2
 542 4 542 4 536 -10 c 1,3,4
 526 -22 526 -22 519 -23 c 0,5,6
 515 -23 515 -23 513 -22 c 0,7,8
 503 -16 503 -16 502 -2 c 2,9,-1
 502 5 l 1,10,11
 510 49 510 49 510 78 c 0,12,13
 510 143 510 143 483 196 c 0,14,15
 433 295 433 295 359 308 c 0,16,17
 350 309 350 309 339 310 c 1,18,-1
 339 -34 l 2,19,20
 339 -96 339 -96 271 -148 c 0,21,22
 209 -195 209 -195 145 -195 c 0,23,24
 82 -195 82 -195 59 -151 c 0,25,26
 51 -134 51 -134 50 -115 c 0,27,28
 50 -46 50 -46 115 4 c 0,29,30
 172 47 172 47 244 47 c 0,31,32
 288 46 288 46 314 24 c 1,33,-1
 314 794 l 1,34,35
 321 802 l 0,36,37
 323 803 323 803 324 803 c 0,38,39
 334 803 334 803 340 791 c 0,40,41
 341 788 341 788 342 787 c 0,42,43
 353 727 353 727 397 686 c 0,44,45
 402 681 402 681 413 672 c 0,46,47
 436 652 436 652 448 641 c 0,48,49
 510 576 510 576 523 545 c 0,50,51
 531 526 531 526 536 502 c 0,52,53
 537 493 537 493 537 478 c 0,54,55
 537 432 537 432 520 387 c 1,56,57
 532 365 532 365 536 337 c 0,58,59
 538 315 538 315 538 307 c 0,60,61
 538 270 538 270 519 205 c 0,62,63
 518 202 518 202 518 200 c 0,64,65
 518 195 518 195 519 193 c 0,66,67
 539 146 539 146 542 96 c 1,0,-1
506 282 m 0,68,69
 507 291 507 291 507 304 c 0,70,71
 506 340 506 340 485 373 c 0,72,73
 428 455 428 455 358 456 c 0,74,75
 351 454 351 454 347 445 c 1,76,77
 360 397 360 397 403 355 c 0,78,79
 434 324 434 324 441 317 c 2,80,-1
 446 313 l 1,81,82
 471 283 471 283 485 261 c 0,83,84
 487 258 487 258 491 258 c 0,85,86
 497 259 497 259 501 263 c 0,87,88
 502 266 502 266 503 273 c 0,89,90
 505 279 505 279 506 282 c 0,68,69
507 460 m 0,91,92
 507 463 507 463 508 469 c 0,93,94
 509 475 509 475 509 478 c 0,95,96
 508 497 508 497 496 519 c 0,97,98
 435 620 435 620 348 620 c 1,99,100
 358 560 358 560 401 520 c 0,101,102
 406 515 406 515 416 507 c 0,103,104
 437 488 437 488 448 476 c 0,105,106
 489 431 489 431 496 422 c 1,107,108
 498 427 498 427 500 438 c 0,109,110
 506 455 506 455 507 460 c 0,91,92
EndSplineSet
Validated: 1
EndChar

StartChar: uniE1DC
Encoding: 177 57820 162
Width: 402
GlyphClass: 2
Flags: MW
HStem: 799 0
VStem: 50 3 76 4 77 5
LayerCount: 3
Fore
SplineSet
252 797 m 0,0,1
 320 797 320 797 344 752 c 0,2,3
 352 736 352 736 352 719 c 0,4,5
 351 660 351 660 280 607 c 1,6,7
 297 563 297 563 297 512 c 2,8,-1
 297 502 l 2,9,10
 294 448 294 448 280 423 c 0,11,12
 279 421 279 421 278 418 c 2,13,-1
 275 413 l 2,14,15
 272 408 272 408 271 407 c 0,16,17
 271 406 271 406 273 403 c 0,18,19
 274 400 274 400 275 400 c 0,20,21
 293 355 293 355 293 312 c 0,22,23
 293 295 293 295 289 279 c 0,24,25
 284 248 284 248 271 227 c 1,26,27
 291 167 291 167 292 132 c 0,28,29
 292 115 292 115 289 108 c 0,30,31
 280 60 280 60 243 17 c 0,32,33
 228 0 228 0 194 -34 c 0,34,35
 189 -39 189 -39 140 -79 c 0,36,37
 93 -118 93 -118 81 -172 c 0,38,39
 80 -177 80 -177 79 -181 c 0,40,41
 79 -191 79 -191 66 -197 c 0,42,43
 63 -198 63 -198 61 -198 c 0,44,45
 58 -198 58 -198 55.5 -195.5 c 128,-1,46
 53 -193 53 -193 52 -190 c 2,47,-1
 50 -187 l 1,48,-1
 50 639 l 2,49,50
 50 706 50 706 117 755 c 0,51,52
 176 797 176 797 252 797 c 0,0,1
261 505 m 0,53,54
 261 520 261 520 245 581 c 0,55,56
 244 584 244 584 244 586 c 1,57,58
 195 561 195 561 149 561 c 0,59,60
 106 562 106 562 77 584 c 1,61,-1
 77 308 l 1,62,63
 146 314 146 314 196 371 c 0,64,65
 215 393 215 393 233 423 c 0,66,67
 261 471 261 471 261 505 c 0,53,54
194 138 m 0,68,69
 182 126 182 126 159 107 c 0,70,71
 116 71 116 71 101 41 c 0,72,73
 90 18 90 18 85 -10 c 0,74,75
 87 -12 87 -12 87 -13 c 0,76,77
 180 -11 180 -11 246 90 c 0,78,79
 260 116 260 116 261 132 c 0,80,81
 261 134 261 134 258 150 c 0,82,83
 250 180 250 180 245 191 c 1,84,85
 235 180 235 180 194 138 c 0,68,69
187 300 m 0,86,87
 175 287 175 287 152 266 c 0,88,89
 108 227 108 227 94 195 c 0,90,91
 89 183 89 183 85 170 c 1,92,93
 87 160 87 160 98 159 c 2,94,-1
 102 159 l 2,95,96
 168 159 168 159 225 232 c 0,97,98
 230 238 230 238 234 244 c 0,99,100
 259 277 259 277 259 314 c 0,101,102
 259 323 259 323 256 335 c 0,103,104
 253 352 253 352 252 355 c 0,105,106
 251 358 251 358 242 359 c 0,107,108
 236 358 236 358 234 356 c 0,109,110
 218 332 218 332 187 300 c 0,86,87
EndSplineSet
Validated: 1
EndChar

StartChar: uniE1DD
Encoding: 178 57821 163
Width: 547
GlyphClass: 2
Flags: MW
HStem: -204 21G -204 0
VStem: 45 0 45 0 45 0
LayerCount: 3
Fore
SplineSet
476 134 m 0,0,1
 494 94 494 94 497 52 c 2,2,-1
 497 31 l 2,3,4
 497 -25 497 -25 492 -38 c 1,5,6
 483 -49 483 -49 476 -50 c 0,7,8
 473 -49 473 -49 471 -48 c 0,9,10
 462 -44 462 -44 461 -31 c 2,11,-1
 461 -25 l 1,12,13
 468 12 468 12 468 37 c 0,14,15
 467 93 467 93 443 136 c 0,16,17
 397 223 397 223 327 232 c 0,18,19
 320 233 320 233 313 234 c 1,20,-1
 313 -59 l 2,21,22
 313 -113 313 -113 248 -158 c 0,23,24
 193 -195 193 -195 136 -196 c 0,25,26
 76 -196 76 -196 56 -156 c 0,27,28
 50 -143 50 -143 50 -128 c 0,29,30
 50 -68 50 -68 111 -26 c 0,31,32
 162 9 162 9 227 9 c 0,33,34
 267 8 267 8 290 -10 c 1,35,-1
 290 788 l 1,36,37
 296 796 l 0,38,39
 298 797 298 797 299 797 c 0,40,41
 308 797 308 797 314 787 c 0,42,43
 315 784 315 784 315 783 c 0,44,45
 325 732 325 732 366 697 c 0,46,47
 409 661 409 661 412 659 c 0,48,49
 469 603 469 603 481 575 c 0,50,51
 488 560 488 560 492 542 c 0,52,53
 493 534 493 534 493 522 c 0,54,55
 493 485 493 485 476 440 c 1,56,57
 488 421 488 421 492 396 c 0,58,59
 493 389 493 389 493 376 c 0,60,61
 493 337 493 337 477 299 c 1,62,63
 488 278 488 278 492 257 c 0,64,65
 494 238 494 238 494 231 c 0,66,67
 493 200 493 200 476 143 c 0,68,69
 475 141 475 141 475 140 c 0,70,71
 475 135 475 135 476 134 c 0,0,1
464 210 m 0,72,73
 465 217 465 217 465 227 c 0,74,75
 464 259 464 259 445 286 c 0,76,77
 394 356 394 356 330 357 c 0,78,79
 328 357 328 357 325.5 354.5 c 128,-1,80
 323 352 323 352 322 350 c 2,81,-1
 320 348 l 1,82,83
 331 307 331 307 371 271 c 0,84,85
 398 246 398 246 406 238 c 2,86,-1
 410 235 l 1,87,88
 436 205 436 205 445 192 c 0,89,90
 447 190 447 190 451 189 c 0,91,92
 458 190 458 190 460 194 c 0,93,94
 461 196 461 196 462 202 c 128,-1,95
 463 208 463 208 464 210 c 0,72,73
465 361 m 0,96,97
 465 364 465 364 466 368 c 0,98,99
 467 374 467 374 467 376 c 0,100,101
 466 392 466 392 455 411 c 0,102,103
 399 496 399 496 321 497 c 1,104,105
 330 446 330 446 370 411 c 0,106,107
 411 375 411 375 412 374 c 0,108,109
 418 368 418 368 429 356 c 0,110,111
 448 337 448 337 455 329 c 1,112,113
 462 349 462 349 465 361 c 0,96,97
465 505 m 2,114,115
 465 508 465 508 466 513 c 0,116,117
 467 518 467 518 467 521 c 0,118,119
 466 538 466 538 455 556 c 0,120,121
 399 640 399 640 321 641 c 1,122,123
 322 639 322 639 322 638 c 0,124,125
 331 585 331 585 370 551 c 0,126,127
 375 547 375 547 384 538 c 0,128,129
 402 523 402 523 412 514 c 0,130,131
 447 478 447 478 454 469 c 1,132,-1
 465 505 l 2,114,115
EndSplineSet
Validated: 1
EndChar

StartChar: uniE1DE
Encoding: 179 57822 164
Width: 348
GlyphClass: 2
Flags: MW
HStem: 796 0
VStem: 52 0 52 0 52 0
LayerCount: 3
Fore
SplineSet
216 797 m 0,0,1
 274 797 274 797 292 757 c 0,2,3
 298 744 298 744 298 730 c 0,4,5
 297 679 297 679 242 636 c 1,6,7
 253 595 253 595 253 560 c 2,8,-1
 253 552 l 2,9,10
 249 504 249 504 238 480 c 2,11,-1
 235 475 l 2,12,13
 233 472 233 472 232 470 c 0,14,15
 232 469 232 469 233 467 c 0,16,17
 234 464 234 464 235 463 c 0,18,19
 250 424 250 424 250 388 c 0,20,21
 250 374 250 374 247 360 c 0,22,23
 242 334 242 334 232 316 c 1,24,25
 249 265 249 265 249 233 c 0,26,27
 249 218 249 218 247 212 c 0,28,29
 243 187 243 187 232 168 c 1,30,31
 249 123 249 123 250 87 c 0,32,33
 250 76 250 76 247 65 c 0,34,35
 239 22 239 22 204 -17 c 0,36,37
 192 -31 192 -31 169 -55 c 0,38,39
 158 -66 158 -66 137 -85 c 0,40,41
 98 -118 98 -118 85 -146 c 0,42,43
 78 -163 78 -163 75 -183 c 0,44,45
 72 -192 72 -192 60 -197 c 0,46,47
 58 -197 58 -197 55.5 -195 c 128,-1,48
 53 -193 53 -193 52 -191 c 2,49,-1
 50 -188 l 1,50,-1
 50 661 l 2,51,52
 50 721 50 721 109 763 c 0,53,54
 156 797 156 797 216 797 c 0,0,1
224 554 m 0,55,56
 224 567 224 567 211 616 c 1,57,58
 169 594 169 594 131 594 c 0,59,60
 96 595 96 595 73 613 c 1,61,-1
 73 384 l 1,62,63
 132 389 132 389 174 444 c 0,64,65
 187 462 187 462 200 484 c 0,66,67
 224 525 224 525 224 554 c 0,55,56
169 239 m 0,68,69
 159 228 159 228 139 211 c 0,70,71
 101 178 101 178 90 149 c 0,72,73
 83 132 83 132 79 111 c 1,74,-1
 81 109 l 1,75,76
 157 111 157 111 211 197 c 0,77,78
 223 219 223 219 224 233 c 0,79,80
 224 237 224 237 221 248 c 0,81,82
 216 270 216 270 211 285 c 1,83,84
 202 275 202 275 169 239 c 0,68,69
169 91 m 0,85,86
 159 80 159 80 139 62 c 0,87,88
 99 25 99 25 88 -3 c 0,89,90
 82 -19 82 -19 79 -37 c 1,91,92
 158 -35 158 -35 211 50 c 0,93,94
 223 72 223 72 224 86 c 0,95,96
 224 88 224 88 221 101 c 2,97,-1
 211 137 l 1,98,99
 207 132 207 132 169 91 c 0,85,86
163 378 m 0,100,101
 154 368 154 368 135 350 c 0,102,103
 96 314 96 314 85 283 c 0,104,105
 82 275 82 275 79 266 c 1,106,107
 81 258 81 258 89 257 c 2,108,-1
 93 257 l 2,109,110
 149 257 149 257 195 321 c 0,111,112
 198 326 198 326 201 330 c 0,113,114
 221 359 221 359 222 390 c 0,115,116
 222 395 222 395 220 408 c 0,117,118
 217 423 217 423 216 424 c 0,119,120
 215 428 215 428 208 429 c 0,121,122
 204 428 204 428 201 426 c 0,123,124
 190 409 190 409 163 378 c 0,100,101
EndSplineSet
Validated: 1
EndChar

StartChar: uniE1DF
Encoding: 180 57823 165
Width: 455
GlyphClass: 2
Flags: MW
HStem: -207 0 -207 21G
VStem: 50 0 50 0 50 0
LayerCount: 3
Fore
SplineSet
389 93 m 0,0,1
 403 58 403 58 405 21 c 2,2,-1
 405 2 l 2,3,4
 405 -47 405 -47 401 -59 c 0,5,6
 394 -69 394 -69 389 -69 c 0,7,8
 387 -68 387 -68 385 -68 c 0,9,10
 378 -64 378 -64 377 -52 c 2,11,-1
 377 -48 l 1,12,13
 382 -21 382 -21 382 0 c 0,14,15
 382 3 382 3 382 7 c 0,16,17
 382 56 382 56 363 95 c 0,18,19
 325 173 325 173 269 180 c 0,20,21
 264 181 264 181 260 181 c 1,22,-1
 260 -77 l 2,23,24
 260 -127 260 -127 204 -168 c 0,25,26
 161 -198 161 -198 119 -198 c 0,27,28
 70 -198 70 -198 55 -162 c 0,29,30
 51 -150 51 -150 50 -138 c 0,31,32
 50 -83 50 -83 103 -45 c 0,33,34
 143 -18 143 -18 191 -17 c 0,35,36
 223 -18 223 -18 241 -34 c 1,37,-1
 241 790 l 2,38,39
 243 790 243 790 248 797 c 1,40,41
 255 797 255 797 260 788 c 0,42,43
 261 786 261 786 261 785 c 0,44,45
 269 739 269 739 305 706 c 0,46,47
 333 681 333 681 337 675 c 0,48,49
 385 623 385 623 395 597 c 0,50,51
 399 585 399 585 401 572 c 0,52,53
 402 565 402 565 402 553 c 0,54,55
 402 522 402 522 390 488 c 1,56,57
 397 472 397 472 401 452 c 0,58,59
 402 445 402 445 402 435 c 0,60,61
 402 402 402 402 389 363 c 1,62,63
 398 346 398 346 401 324 c 0,64,65
 402 317 402 317 402 307 c 0,66,67
 402 272 402 272 390 238 c 1,68,69
 399 220 399 220 401 201 c 0,70,71
 403 185 403 185 403 179 c 0,72,73
 403 154 403 154 389 101 c 0,74,75
 388 99 388 99 388 98 c 0,76,77
 389 94 389 94 389 93 c 0,0,1
379 160 m 0,78,79
 380 167 380 167 380 175 c 0,80,81
 379 203 379 203 364 227 c 0,82,83
 323 289 323 289 273 290 c 0,84,85
 272 290 272 290 269.5 287.5 c 128,-1,86
 267 285 267 285 266 284 c 2,87,-1
 265 282 l 1,88,89
 274 246 274 246 307 212 c 0,90,91
 325 193 325 193 333 185 c 2,92,-1
 336 182 l 2,93,94
 357 156 357 156 364 144 c 0,95,96
 366 142 366 142 369 142 c 0,97,98
 374 143 374 143 376 146 c 0,99,100
 377 148 377 148 377.5 153 c 128,-1,101
 378 158 378 158 379 160 c 0,78,79
380 293 m 0,102,103
 380 295 380 295 381 299 c 0,104,105
 382 304 382 304 382 307 c 0,106,107
 381 321 381 321 372 337 c 0,108,109
 328 412 328 412 266 413 c 1,110,111
 273 367 273 367 307 335 c 0,112,113
 333 310 333 310 337.5 304.5 c 128,-1,114
 342 299 342 299 351 289 c 0,115,116
 366 272 366 272 372 265 c 1,117,118
 377 282 377 282 380 293 c 0,102,103
380 420 m 2,119,120
 380 422 380 422 381 427 c 128,-1,121
 382 432 382 432 382 434 c 0,122,123
 381 449 381 449 372 465 c 0,124,125
 328 540 328 540 265 540 c 1,126,-1
 266 538 l 0,127,128
 274 490 274 490 307 458 c 0,129,130
 336 430 336 430 337 428 c 0,131,132
 365 396 365 396 371 389 c 1,133,-1
 380 420 l 2,119,120
380 540 m 0,134,135
 380 542 380 542 381 547 c 128,-1,136
 382 552 382 552 382 554 c 0,137,138
 381 568 381 568 372 584 c 0,139,140
 328 659 328 659 265 660 c 1,141,142
 273 617 273 617 307 586 c 0,143,144
 331 563 331 563 337 555 c 0,145,146
 363 526 363 526 373 514 c 1,147,148
 375 520 375 520 376 525 c 0,149,-1
 380 540 l 0,134,135
EndSplineSet
Validated: 1
EndChar

StartChar: uniE1E0
Encoding: 181 57824 166
Width: 301
GlyphClass: 2
Flags: MW
HStem: 787 0
VStem: 44 0 44 0 44 0
LayerCount: 3
Fore
SplineSet
185 793 m 0,0,1
 233 793 233 793 247 756 c 0,2,3
 251 745 251 745 251 734 c 0,4,5
 250 691 250 691 205 653 c 1,6,7
 215 616 215 616 215 585 c 2,8,-1
 215 578 l 2,9,10
 212 537 212 537 202 516 c 2,11,-1
 200 512 l 2,12,13
 198 508 198 508 197.5 507.5 c 128,-1,14
 197 507 197 507 199 505 c 0,15,16
 200 503 200 503 200 502 c 0,17,18
 212 468 212 468 212 436 c 0,19,20
 212 423 212 423 209 412 c 0,21,22
 205 389 205 389 197 373 c 1,23,24
 210 331 210 331 211 302 c 0,25,26
 211 289 211 289 209 284 c 0,27,28
 205 261 205 261 197 245 c 1,29,30
 211 206 211 206 212 176 c 0,31,32
 212 167 212 167 209 157 c 0,33,34
 205 135 205 135 197 118 c 1,35,36
 211 79 211 79 212 48 c 0,37,38
 212 39 212 39 209 29 c 0,39,40
 203 -8 203 -8 172 -46 c 0,41,42
 163 -57 163 -57 146 -75 c 0,43,44
 137 -85 137 -85 120 -101 c 0,45,46
 86 -131 86 -131 76 -160 c 0,47,48
 72 -173 72 -173 70 -186 c 0,49,50
 68 -194 68 -194 58 -198 c 0,51,52
 56 -198 56 -198 54 -196 c 128,-1,53
 52 -194 52 -194 51 -192 c 2,54,-1
 50 -190 l 1,55,-1
 50 675 l 2,56,57
 50 730 50 730 102 767 c 0,58,59
 140 793 140 793 185 793 c 0,0,1
191 581 m 0,60,61
 191 586 191 586 181 633 c 0,62,63
 181 635 181 635 181 636 c 1,64,65
 148 617 148 617 119 617 c 0,66,67
 118 617 118 617 116 617 c 0,68,69
 87 618 87 618 68 634 c 1,70,-1
 68 433 l 1,71,72
 118 438 118 438 155 492 c 0,73,74
 164 505 164 505 172 519 c 0,75,76
 191 556 191 556 191 581 c 0,60,61
146 307 m 0,77,78
 138 298 138 298 123 284 c 0,79,80
 90 253 90 253 80 223 c 0,81,82
 76 210 76 210 74 197 c 0,83,-1
 75 195 l 0,84,85
 137 197 137 197 181 271 c 0,86,87
 191 290 191 290 191 302 c 0,88,89
 191 304 191 304 188 316 c 0,90,91
 184 332 184 332 180 348 c 1,92,93
 172 337 172 337 146 307 c 0,77,78
146 179 m 0,94,95
 138 170 138 170 123 155 c 0,96,97
 88 121 88 121 80 93 c 0,98,99
 76 81 76 81 74 68 c 1,100,101
 137 70 137 70 181 144 c 0,102,103
 191 163 191 163 191 175 c 0,104,105
 191 177 191 177 188 188 c 2,106,-1
 181 220 l 1,107,108
 173 210 173 210 146 179 c 0,94,95
146 52 m 0,109,110
 138 43 138 43 123 28 c 0,111,112
 88 -6 88 -6 80 -34 c 0,113,114
 76 -46 76 -46 74 -60 c 1,115,116
 137 -58 137 -58 181 17 c 0,117,118
 191 35 191 35 191 48 c 0,119,120
 191 51 191 51 188 61 c 2,121,-1
 181 92 l 1,122,123
 177 87 177 87 146 52 c 0,109,110
142 428 m 0,124,125
 134 418 134 418 118 403 c 0,126,127
 84 369 84 369 75 337 c 0,128,129
 74 334 74 334 74 331 c 0,130,131
 76 324 76 324 82 323 c 2,132,-1
 85 323 l 2,133,134
 132 323 132 323 170 382 c 0,135,136
 172 385 172 385 173 386 c 0,137,138
 189 411 189 411 189 438 c 0,139,140
 189 445 189 445 188 454 c 0,141,142
 186 466 186 466 185 468 c 0,143,144
 184 471 184 471 178 472 c 0,145,146
 174 471 174 471 173 469 c 0,147,148
 163 452 163 452 142 428 c 0,124,125
EndSplineSet
Validated: 1
EndChar

StartChar: uniE1E1
Encoding: 182 57825 167
Width: 447
GlyphClass: 2
Flags: MW
HStem: -210 21G
VStem: 44 0 44 0 44 0 44 0
LayerCount: 3
Fore
SplineSet
395 265 m 0,0,1
 397 256 397 256 397 247 c 0,2,3
 397 219 397 219 387 187 c 1,4,5
 391 174 391 174 392 164 c 0,6,7
 394 154 394 154 394 143 c 0,8,9
 394 108 394 108 380 73 c 1,10,-1
 380 70 l 1,11,-1
 380 65 l 1,12,13
 394 34 394 34 397 0 c 0,14,15
 397 -2 397 -2 397 -8 c 0,16,17
 397 -14 397 -14 397 -17 c 0,18,19
 397 -67 397 -67 392 -73 c 0,20,21
 388 -83 388 -83 380 -83 c 0,22,23
 377 -83 377 -83 376 -82 c 0,24,25
 368 -79 368 -79 367 -69 c 0,26,27
 367 -65 367 -65 368 -64 c 0,28,29
 373 -33 373 -33 374 -14 c 0,30,31
 374 29 374 29 355 67 c 0,32,33
 319 139 319 139 261 145 c 0,34,35
 257 145 257 145 254 146 c 1,36,-1
 254 -91 l 2,37,38
 254 -136 254 -136 199 -173 c 0,39,40
 158 -200 158 -200 117 -200 c 0,41,42
 68 -200 68 -200 54 -166 c 0,43,44
 51 -156 51 -156 50 -146 c 0,45,46
 50 -95 50 -95 103 -61 c 0,47,48
 141 -37 141 -37 186 -37 c 0,49,50
 217 -38 217 -38 236 -52 c 1,51,-1
 236 795 l 2,52,53
 237 799 237 799 245 800 c 0,54,55
 253 797 253 797 254 790 c 0,56,57
 262 747 262 747 301 712 c 0,58,59
 329 687 329 687 331 685 c 2,60,-1
 341 674 l 2,61,62
 382 631 382 631 391 608 c 0,63,64
 394 600 394 600 395 592 c 0,65,66
 397 585 397 585 397 574 c 0,67,68
 397 543 397 543 386 512 c 1,69,70
 393 498 393 498 395 483 c 0,71,72
 397 476 397 476 397 465 c 0,73,74
 397 434 397 434 386 402 c 1,75,76
 393 388 393 388 395 374 c 0,77,78
 397 367 397 367 397 356 c 0,79,80
 397 325 397 325 386 294 c 1,81,82
 393 280 393 280 395 265 c 0,0,1
371 128 m 0,83,84
 372 136 372 136 372 140 c 0,85,86
 371 165 371 165 355 188 c 0,87,88
 316 244 316 244 270 245 c 2,89,-1
 266 245 l 2,90,91
 260 244 260 244 259 237 c 0,92,93
 267 204 267 204 301 173 c 0,94,95
 319 156 319 156 325 149 c 0,96,97
 342 131 342 131 355 111 c 0,98,99
 358 109 358 109 361 109 c 0,100,101
 366 110 366 110 367 113 c 0,102,103
 370 117 370 117 371 128 c 0,83,84
371 236 m 0,104,105
 373 242 373 242 373 249 c 0,106,107
 372 262 372 262 364 276 c 0,108,109
 322 343 322 343 259 345 c 1,110,111
 268 311 268 311 302 284 c 0,112,113
 324 266 324 266 331 260 c 0,114,115
 356 233 356 233 366 220 c 1,116,117
 370 230 370 230 371 236 c 0,104,105
371 345 m 0,118,119
 373 352 373 352 373 358 c 0,120,121
 372 371 372 371 364 386 c 0,122,123
 321 454 321 454 259 454 c 1,124,125
 268 417 268 417 304 384 c 0,126,127
 325 364 325 364 331 359 c 2,128,-1
 364 323 l 1,129,130
 371 345 l 0,118,119
371 454 m 0,131,132
 373 460 373 460 373 466 c 0,133,134
 372 479 372 479 364 493 c 0,135,136
 321 562 321 562 259 562 c 1,137,138
 268 525 268 525 304 492 c 0,139,140
 325 472 325 472 331 467 c 2,141,-1
 364 431 l 1,142,143
 365 434 365 434 367 441 c 0,144,145
 370 451 370 451 371 454 c 0,131,132
371 562 m 0,146,147
 373 569 373 569 373 576 c 0,148,149
 372 589 372 589 364 603 c 0,150,151
 321 672 321 672 259 672 c 1,152,153
 268 635 268 635 304 602 c 0,154,155
 325 582 325 582 331 576 c 2,156,-1
 364 541 l 1,157,158
 371 562 l 0,146,147
EndSplineSet
Validated: 1
EndChar

StartChar: uniE1E2
Encoding: 183 57826 168
Width: 305
VWidth: 1008
GlyphClass: 2
Flags: MW
HStem: 793 0
VStem: 44 0 44 0 44 0 44 0
LayerCount: 3
Fore
SplineSet
255 746 m 0,0,1
 254 706 254 706 209 672 c 1,2,3
 218 640 218 640 218 612 c 2,4,-1
 218 606 l 2,5,6
 215 566 215 566 204 546 c 2,7,-1
 202 543 l 2,8,9
 201 540 201 540 201 539 c 0,10,11
 202 536 202 536 202 534 c 0,12,13
 214 496 214 496 215 453 c 0,14,15
 215 452 215 452 215 451 c 128,-1,16
 215 450 215 450 216 449 c 0,17,18
 233 402 233 402 234 371 c 0,19,20
 234 363 234 363 232 351 c 0,21,22
 229 338 229 338 224 322 c 1,23,24
 234 286 234 286 234 263 c 0,25,26
 234 256 234 256 232 243 c 0,27,28
 229 230 229 230 224 215 c 1,29,30
 234 181 234 181 234 156 c 0,31,32
 234 147 234 147 232 137 c 0,33,34
 229 125 229 125 224 108 c 1,35,36
 234 72 234 72 234 49 c 0,37,38
 234 42 234 42 232 29 c 0,39,40
 225 -9 225 -9 192 -44 c 0,41,42
 182 -55 182 -55 159 -78 c 0,43,44
 150 -88 150 -88 131 -103 c 0,45,46
 94 -132 94 -132 83 -158 c 0,47,48
 77 -174 77 -174 73 -192 c 0,49,50
 71 -200 71 -200 61 -203 c 0,51,52
 59 -203 59 -203 59 -204 c 0,53,54
 57 -204 57 -204 55 -202 c 128,-1,55
 53 -200 53 -200 52 -198 c 2,56,-1
 50 -196 l 1,57,-1
 50 692 l 2,58,59
 50 743 50 743 103 776 c 0,60,61
 141 799 141 799 187 800 c 0,62,63
 237 800 237 800 251 764 c 0,64,65
 255 755 255 755 255 746 c 0,0,1
117 638 m 0,66,67
 88 639 88 639 69 654 c 1,68,-1
 69 470 l 1,69,70
 120 476 120 476 157 524 c 0,71,72
 166 536 166 536 175 551 c 0,73,74
 193 583 193 583 193 608 c 0,75,76
 193 621 193 621 184 657 c 1,77,78
 148 638 148 638 117 638 c 0,66,67
201 414 m 1,79,80
 190 395 190 395 149 354 c 0,81,82
 140 345 140 345 123 331 c 0,83,84
 88 303 88 303 79 278 c 0,85,86
 75 269 75 269 73 259 c 1,87,88
 149 260 149 260 199 337 c 0,89,90
 208 353 208 353 208 366 c 0,91,92
 208 367 208 367 208 368 c 0,93,94
 208 371 208 371 208 376 c 128,-1,95
 208 381 208 381 208 383 c 0,96,97
 208 392 208 392 202 412 c 2,98,-1
 201 414 l 1,79,80
143 466 m 0,99,100
 136 459 136 459 122 445 c 0,101,102
 87 413 87 413 77 386 c 0,103,104
 75 381 75 381 73 376 c 0,105,106
 75 369 75 369 83 368 c 2,107,-1
 87 368 l 2,108,109
 134 369 134 369 176 427 c 0,110,111
 192 449 192 449 192 471 c 0,112,113
 192 472 192 472 192 474 c 0,114,115
 192 483 192 483 190 490 c 0,116,117
 190 497 190 497 188 503 c 0,118,119
 186 506 186 506 181 506 c 0,120,121
 178 505 178 505 176 504 c 0,122,123
 166 492 166 492 143 466 c 0,99,100
199 123 m 0,124,125
 208 139 208 139 208 152 c 0,126,127
 208 153 208 153 208 154 c 0,128,129
 208 157 208 157 208 162 c 0,130,131
 208 166 208 166 208 168 c 0,132,133
 208 171 208 171 207 177 c 0,134,135
 206 182 206 182 205 185 c 1,136,137
 185 161 185 161 159 136 c 0,138,139
 155 132 155 132 115 100 c 0,140,141
 84 74 84 74 74 45 c 1,142,143
 151 48 151 48 199 123 c 0,124,125
199 230 m 0,144,145
 208 245 208 245 208 258 c 0,146,147
 208 259 208 259 208 261 c 0,148,149
 208 264 208 264 208 269 c 128,-1,150
 208 274 208 274 208 275 c 128,-1,151
 208 276 208 276 205 291 c 1,152,153
 185 267 185 267 159 243 c 0,154,155
 155 239 155 239 115 206 c 0,156,157
 84 181 84 181 74 152 c 1,158,159
 152 156 152 156 199 230 c 0,144,145
199 17 m 0,160,161
 208 32 208 32 208 45 c 0,162,163
 208 46 208 46 208 48 c 0,164,165
 208 51 208 51 208 55 c 0,166,167
 208 60 208 60 208 62 c 128,-1,168
 208 64 208 64 207 69 c 0,169,170
 206 75 206 75 205 77 c 1,171,172
 190 59 190 59 159 29 c 0,173,174
 155 25 155 25 115 -8 c 0,175,176
 84 -34 84 -34 74 -62 c 1,177,178
 152 -57 152 -57 199 17 c 0,160,161
EndSplineSet
Validated: 1025
EndChar

StartChar: uniE1E3
Encoding: 184 57827 169
Width: 392
GlyphClass: 2
Flags: MW
HStem: -222 21G
VStem: -641 0 -641 0 -641 0
LayerCount: 3
Fore
SplineSet
327 36 m 0,0,1
 339 7 339 7 342 -23 c 2,2,-1
 342 -38 l 2,3,4
 342 -82 342 -82 338 -89 c 0,5,6
 334 -98 334 -98 328 -98 c 0,7,8
 325 -98 325 -98 324 -97 c 0,9,10
 318 -94 318 -94 317 -85 c 0,11,12
 317 -82 317 -82 318 -81 c 0,13,14
 322 -57 322 -57 322 -36 c 0,15,16
 322 5 322 5 306 38 c 0,17,18
 275 104 275 104 226 109 c 0,19,20
 223 109 223 109 221 109 c 1,21,-1
 221 -104 l 2,22,23
 221 -147 221 -147 171 -180 c 0,24,25
 138 -202 138 -202 106 -203 c 0,26,27
 64 -203 64 -203 53 -170 c 0,28,29
 50 -162 50 -162 50 -153 c 0,30,31
 50 -104 50 -104 98 -74 c 0,32,33
 129 -55 129 -55 164 -54 c 0,34,35
 190 -55 190 -55 206 -68 c 1,36,-1
 206 796 l 2,37,38
 206 797 206 797 207.5 798 c 128,-1,39
 209 799 209 799 211 800 c 2,40,-1
 213 800 l 2,41,42
 220 800 220 800 221 794 c 0,43,44
 221 792 221 792 222 791 c 0,45,46
 229 753 229 753 261 721 c 0,47,48
 279 703 279 703 285 697 c 2,49,-1
 293 687 l 2,50,51
 330 646 330 646 337 625 c 0,52,53
 339 618 339 618 340 612 c 0,54,55
 341 602 341 602 342 597 c 0,56,57
 342 571 342 571 332 539 c 1,58,59
 338 527 338 527 340 513 c 0,60,61
 341 503 341 503 342 498 c 0,62,63
 342 471 342 471 332 441 c 1,64,65
 337 429 337 429 340 414 c 0,66,67
 341 404 341 404 342 399 c 0,68,69
 342 374 342 374 332 342 c 1,70,71
 337 331 337 331 340 316 c 0,72,73
 341 306 341 306 342 301 c 0,74,75
 342 274 342 274 332 243 c 1,76,77
 337 231 337 231 340 217 c 0,78,79
 341 207 341 207 342 202 c 0,80,81
 342 181 342 181 333 146 c 1,82,83
 336 135 336 135 338 125 c 0,84,85
 339 118 339 118 339 106 c 0,86,87
 339 78 339 78 327 43 c 0,88,89
 326 42 326 42 327 40 c 0,90,91
 326 39 326 39 327 36 c 0,0,1
320 93 m 0,92,93
 321 100 321 100 321 104 c 0,94,95
 320 127 320 127 307 147 c 0,96,97
 274 197 274 197 235 199 c 2,98,-1
 232 199 l 2,99,100
 227 198 227 198 226 192 c 0,101,102
 233 161 233 161 262 132 c 0,103,104
 276 118 276 118 281 112 c 0,105,106
 299 91 299 91 307 78 c 0,107,108
 309 76 309 76 311 76 c 0,109,110
 315 77 315 77 317 80 c 0,111,112
 318 82 318 82 320 93 c 0,92,93
320 191 m 2,113,114
 321 196 321 196 321 202 c 0,115,116
 320 214 320 214 313 228 c 0,117,118
 276 288 276 288 226 290 c 1,119,120
 233 260 233 260 262 234 c 0,121,122
 279 219 279 219 285 212 c 0,123,124
 308 188 308 188 316 177 c 1,125,-1
 320 191 l 2,113,114
320 290 m 0,126,127
 321 295 321 295 321 301 c 0,128,129
 320 314 320 314 313 326 c 0,130,131
 277 388 277 388 226 389 c 1,132,133
 234 356 234 356 265 324 c 0,134,135
 279 309 279 309 285 301 c 0,136,137
 305 279 305 279 313 270 c 1,138,139
 318 282 318 282 320 290 c 0,126,127
320 389 m 0,140,141
 321 393 321 393 321 400 c 0,142,143
 320 413 320 413 313 424 c 0,144,145
 277 486 277 486 226 487 c 1,146,147
 234 454 234 454 265 422 c 0,148,149
 279 408 279 408 285 400 c 0,150,151
 306 377 306 377 313 368 c 1,152,153
 318 382 318 382 320 389 c 0,140,141
320 487 m 0,154,155
 321 492 321 492 321 499 c 0,156,157
 320 511 320 511 313 523 c 0,158,159
 277 585 277 585 226 586 c 1,160,161
 234 553 234 553 265 521 c 0,162,163
 279 507 279 507 285 499 c 0,164,165
 313 467 l 1,166,167
 318 479 318 479 320 487 c 0,154,155
320 586 m 0,168,169
 321 590 321 590 321 597 c 0,170,171
 320 608 320 608 313 621 c 0,172,173
 277 683 277 683 226 684 c 1,174,175
 234 651 234 651 265 619 c 0,176,177
 279 605 279 605 285 598 c 0,178,179
 306 575 306 575 313 565 c 1,180,181
 319 581 319 581 320 586 c 0,168,169
EndSplineSet
Validated: 1025
EndChar

StartChar: uniE1E4
Encoding: 185 57828 170
Width: 257
GlyphClass: 2
Flags: MW
HStem: 787 21G
VStem: 50 0<695 695 4.29497e+09 4.29497e+09> 50 0<695 695 4.29497e+09 4.29497e+09> 50 0<695 695 4.29497e+09 4.29497e+09> 50 0<695 695 4.29497e+09 4.29497e+09>
LayerCount: 3
Fore
SplineSet
207 744 m 0,0,1
 206 710 206 710 174 680 c 1,2,3
 180 646 180 646 180 630 c 2,4,-1
 180 624 l 2,5,6
 178 591 178 591 170 574 c 2,7,-1
 169 573 l 1,8,-1
 168 569 l 2,9,10
 167 567 167 567 167 566 c 0,11,12
 167 563 167 563 168 561 c 0,13,14
 168 559 l 0,15,16
 177 531 177 531 178 507 c 0,17,18
 178 495 178 495 177 490 c 1,19,20
 180 490 180 490 188 452 c 0,21,22
 192 431 192 431 192 415 c 0,23,24
 192 407 192 407 191 398 c 0,25,26
 188 382 188 382 184 372 c 1,27,28
 192 344 192 344 192 320 c 0,29,30
 192 313 192 313 191 302 c 0,31,32
 188 285 188 285 184 277 c 1,33,34
 192 251 192 251 192 225 c 0,35,36
 192 219 192 219 191 206 c 0,37,38
 188 189 188 189 184 181 c 1,39,40
 191 155 191 155 192 130 c 0,41,42
 192 122 192 122 191 112 c 0,43,44
 188 95 188 95 184 86 c 1,45,46
 192 58 192 58 192 34 c 0,47,48
 192 27 192 27 191 16 c 0,49,50
 185 -19 185 -19 155 -55 c 0,51,52
 148 -64 148 -64 135 -79 c 0,53,54
 128 -88 128 -88 113 -101 c 0,55,56
 82 -131 82 -131 73 -160 c 0,57,58
 70 -170 70 -170 68 -181 c 0,59,60
 65 -190 65 -190 57 -192 c 0,61,62
 55 -192 55 -192 53.5 -190 c 128,-1,63
 52 -188 52 -188 51 -186 c 2,64,-1
 50 -185 l 1,65,-1
 50 696 l 2,66,67
 50 744 50 744 94 773 c 0,68,69
 122 791 122 791 155 792 c 0,70,71
 195 792 195 792 205 759 c 0,72,73
 207 752 207 752 207 744 c 0,0,1
101 648 m 0,74,75
 78 649 78 649 64 662 c 1,76,-1
 64 504 l 1,77,78
 105 508 105 508 136 558 c 0,79,80
 141 567 141 567 146 576 c 0,81,82
 161 603 161 603 161 627 c 0,83,84
 161 632 161 632 155 665 c 1,85,86
 126 648 126 648 101 648 c 0,74,75
167 454 m 1,87,88
 158 436 158 436 127 400 c 0,89,90
 121 393 121 393 108 381 c 0,91,92
 79 354 79 354 71 328 c 0,93,94
 69 322 69 322 69 316 c 1,95,96
 127 318 127 318 165 385 c 0,97,98
 173 400 173 400 172 413 c 0,99,100
 172 415 172 415 172 419.5 c 128,-1,101
 172 424 172 424 172 426 c 0,102,103
 172 436 172 436 167 454 c 1,87,88
122 499 m 0,104,105
 116 492 116 492 105 481 c 0,106,107
 75 449 75 449 68 420 c 0,108,109
 70 414 70 414 75 413 c 2,110,-1
 79 413 l 2,111,112
 114 414 114 414 148 466 c 0,113,114
 160 487 160 487 160 507 c 0,115,116
 160 517 160 517 159 522 c 0,117,118
 159 524 159 524 157 533 c 0,119,120
 155 536 155 536 151 536 c 0,121,122
 149 535 149 535 148 535 c 0,123,124
 137 518 137 518 122 499 c 0,104,105
165 195 m 0,125,126
 173 210 173 210 172 224 c 0,127,128
 172 226 172 226 172 230 c 0,129,130
 172 234 172 234 172 235 c 0,131,132
 172 243 172 243 169 250 c 1,133,134
 159 235 159 235 138 210 c 2,135,-1
 135 206 l 2,136,137
 127 197 127 197 111 183 c 0,138,139
 78 155 78 155 70 128 c 0,140,141
 69 126 69 126 69 125 c 1,142,143
 129 129 129 129 165 195 c 0,125,126
165 5 m 0,144,145
 173 20 173 20 172 33 c 0,146,147
 172 35 172 35 172 39 c 0,148,149
 172 44 172 44 172 45 c 0,150,151
 172 52 172 52 169 59 c 1,152,153
 158 43 158 43 135 16 c 0,154,155
 132 12 132 12 100 -17 c 0,156,157
 76 -40 76 -40 68 -66 c 1,158,159
 129 -61 129 -61 165 5 c 0,144,145
165 99 m 0,160,161
 173 115 173 115 172 128 c 0,162,163
 172 130 172 130 172 134.5 c 128,-1,164
 172 139 172 139 172 140 c 0,165,166
 172 147 172 147 169 154 c 1,167,168
 158 138 158 138 135 112 c 0,169,170
 127 103 127 103 110 88 c 0,171,172
 77 58 77 58 69 30 c 1,173,174
 128 32 128 32 165 99 c 0,160,161
165 291 m 0,175,176
 173 306 173 306 172 319 c 0,177,178
 172 321 172 321 172 325 c 0,179,180
 172 329 172 329 172 331 c 0,181,182
 172 338 172 338 169 345 c 1,183,184
 160 332 160 332 139 306 c 2,185,-1
 135 301 l 2,186,187
 127 292 127 292 111 279 c 0,188,189
 78 251 78 251 70 223 c 0,190,191
 69 221 69 221 69 220 c 1,192,193
 129 225 129 225 165 291 c 0,175,176
EndSplineSet
Validated: 3073
EndChar

StartChar: uniE1E5
Encoding: 186 57829 171
Width: 384
GlyphClass: 2
Flags: MW
HStem: 418 0 418 0
VStem: 4.94465e+09 0 4.94465e+09 0 4.94465e+09 0 4.94465e+09 0
LayerCount: 3
Fore
SplineSet
333 -43 m 0,0,1
 333 -45 333 -45 333 -50 c 128,-1,2
 333 -55 333 -55 334 -57 c 0,3,4
 334 -96 334 -96 329 -103 c 0,5,6
 324 -111 324 -111 320 -111 c 0,7,8
 318 -111 318 -111 316 -110 c 0,9,10
 310 -107 310 -107 309 -99 c 0,11,12
 309 -96 309 -96 310 -95 c 0,13,14
 314 -73 314 -73 314 -54 c 0,15,16
 314 -18 314 -18 299 12 c 0,17,18
 266 73 266 73 216 77 c 1,19,-1
 216 -110 l 2,20,21
 216 -149 216 -149 168 -179 c 0,22,23
 136 -199 136 -199 105 -199 c 0,24,25
 64 -199 64 -199 53 -169 c 0,26,27
 51 -162 51 -162 50 -155 c 0,28,29
 50 -111 50 -111 96 -82 c 0,30,31
 126 -64 126 -64 161 -64 c 0,32,33
 185 -65 185 -65 201 -77 c 1,34,-1
 201 790 l 1,35,-1
 209 794 l 2,36,37
 216 794 216 794 217 788 c 0,38,39
 217 786 217 786 217 785 c 0,40,41
 223 751 223 751 256 721 c 0,42,43
 273 705 273 705 279 699 c 2,44,-1
 286 692 l 2,45,46
 322 654 322 654 329 635 c 0,47,48
 331 628 331 628 332 622 c 0,49,50
 333 613 333 613 333 609 c 0,51,52
 333 584 333 584 324 556 c 1,53,54
 330 545 330 545 332 533 c 0,55,56
 333 524 333 524 333 519 c 0,57,58
 333 495 333 495 324 467 c 1,59,60
 330 456 330 456 332 443 c 0,61,62
 333 434 333 434 333 430 c 0,63,64
 333 406 333 406 324 378 c 1,65,66
 330 367 330 367 332 354 c 0,67,68
 333 345 333 345 333 340 c 0,69,70
 333 317 333 317 324 288 c 1,71,72
 330 277 330 277 332 265 c 0,73,74
 333 256 333 256 333 251 c 0,75,76
 333 226 333 226 324 199 c 1,77,78
 330 188 330 188 332 175 c 0,79,80
 333 166 333 166 333 161 c 0,81,82
 333 138 333 138 324 111 c 1,83,84
 328 98 328 98 329 92 c 0,85,86
 331 83 331 83 331 74 c 0,87,88
 331 49 331 49 319 17 c 0,89,90
 318 16 318 16 319 15 c 0,91,92
 319 14 319 14 319 11 c 0,93,94
 331 -16 331 -16 333 -43 c 0,0,1
312 62 m 0,95,96
 313 68 313 68 313 72 c 0,97,98
 312 93 312 93 299 112 c 0,99,100
 267 158 267 158 229 158 c 2,101,-1
 226 158 l 2,102,103
 222 156 222 156 221 152 c 0,104,105
 227 125 227 125 256 98 c 0,106,107
 269 86 269 86 274 80 c 0,108,109
 291 61 291 61 299 49 c 0,110,111
 302 47 302 47 304 47 c 0,112,113
 308 48 308 48 309 51 c 0,114,115
 311 54 311 54 312 62 c 0,95,96
312 151 m 2,116,117
 314 157 314 157 314 162 c 0,118,119
 313 173 313 173 306 184 c 0,120,121
 270 239 270 239 221 241 c 1,122,123
 228 214 228 214 257 190 c 0,124,125
 273 177 273 177 279 170 c 0,126,127
 297 152 297 152 308 138 c 1,128,-1
 312 151 l 2,116,117
312 241 m 0,129,130
 314 247 314 247 314 251 c 0,131,132
 313 261 313 261 306 274 c 0,133,134
 270 330 270 330 221 330 c 1,135,136
 228 300 228 300 259 271 c 0,137,138
 273 258 273 258 279 252 c 0,139,140
 283 247 283 247 291 239 c 0,141,142
 302 227 302 227 306 223 c 1,143,144
 308 228 308 228 312 241 c 0,129,130
312 330 m 2,145,146
 314 335 314 335 314 341 c 0,147,148
 313 352 313 352 306 363 c 0,149,150
 270 419 270 419 221 419 c 1,151,152
 229 388 229 388 260 360 c 0,153,154
 274 347 274 347 279 342 c 2,155,-1
 306 312 l 1,156,-1
 312 330 l 2,145,146
312 419 m 0,157,158
 314 425 314 425 314 430 c 0,159,160
 313 440 313 440 306 452 c 0,161,162
 270 508 270 508 221 509 c 1,163,164
 228 479 228 479 259 450 c 0,165,166
 273 437 273 437 279 431 c 0,167,168
 283 426 283 426 291 418 c 0,169,170
 302 406 302 406 306 402 c 1,171,172
 308 406 308 406 312 419 c 0,157,158
312 509 m 2,173,174
 314 514 314 514 314 519 c 0,175,176
 313 529 313 529 306 541 c 0,177,178
 270 597 270 597 221 598 c 1,179,180
 229 567 229 567 260 539 c 0,181,182
 274 526 274 526 279 521 c 2,183,-1
 306 491 l 1,184,-1
 312 509 l 2,173,174
312 598 m 0,185,186
 314 604 314 604 314 609 c 0,187,188
 313 619 313 619 305 632 c 0,189,190
 270 688 270 688 221 688 c 1,191,192
 228 658 228 658 259 629 c 0,193,194
 273 616 273 616 279 610 c 0,195,196
 283 606 283 606 290 597 c 0,197,198
 301 585 301 585 306 580 c 1,199,200
 308 585 308 585 312 598 c 0,185,186
EndSplineSet
Validated: 3073
EndChar

StartChar: uniE1E6
Encoding: 187 57830 172
Width: 254
GlyphClass: 2
Flags: MW
HStem: 792 0
VStem: 50 0<705 705 4.29497e+09 4.29497e+09> 50 0<705 705 4.29497e+09 4.29497e+09> 50 0<705 705 4.29497e+09 4.29497e+09> 50 0<705 705 4.29497e+09 4.29497e+09>
LayerCount: 3
Fore
SplineSet
204 750 m 0,0,1
 203 717 203 717 170 690 c 1,2,3
 177 663 177 663 177 642 c 2,4,-1
 177 636 l 2,5,6
 175 604 175 604 166 588 c 2,7,-1
 165 585 l 2,8,9
 165 583 165 583 164 582 c 2,10,-1
 164 580 l 2,11,12
 164 578 164 578 165 578 c 2,13,-1
 165 577 l 2,14,15
 175 552 175 552 175 528 c 0,16,17
 175 518 175 518 174 513 c 1,18,19
 177 513 177 513 185 478 c 0,20,21
 189 459 189 459 189 444 c 0,22,23
 189 437 189 437 188 427 c 0,24,25
 185 411 185 411 181 404 c 1,26,27
 188 380 188 380 189 357 c 0,28,29
 189 350 189 350 188 340 c 0,30,31
 185 324 185 324 181 317 c 1,32,33
 188 292 188 292 189 269 c 0,34,35
 189 263 189 263 188 252 c 0,36,37
 185 236 185 236 181 229 c 1,38,39
 188 205 188 205 189 182 c 0,40,41
 189 175 189 175 188 165 c 0,42,43
 185 150 185 150 181 142 c 1,44,45
 188 117 188 117 189 95 c 0,46,47
 189 89 189 89 188 78 c 0,48,49
 185 64 185 64 181 53 c 1,50,51
 189 26 189 26 189 3 c 0,52,53
 189 -5 189 -5 188 -13 c 0,54,55
 182 -46 182 -46 152 -79 c 0,56,57
 145 -87 145 -87 133 -101 c 0,58,59
 126 -109 126 -109 112 -121 c 0,60,61
 81 -148 81 -148 72 -175 c 0,62,63
 69 -185 69 -185 68 -194 c 0,64,65
 65 -202 65 -202 57 -204 c 0,66,67
 55 -204 55 -204 53.5 -202.5 c 128,-1,68
 52 -201 52 -201 51 -199 c 2,69,-1
 50 -197 l 1,70,-1
 50 706 l 2,71,72
 50 751 50 751 95 778 c 0,73,74
 122 794 122 794 153 794 c 0,75,76
 193 794 193 794 202 763 c 0,77,78
 204 756 204 756 204 750 c 0,0,1
67 448 m 0,79,80
 69 443 69 443 74 443 c 2,81,-1
 78 443 l 2,82,83
 113 444 113 444 145 491 c 0,84,85
 157 510 157 510 158 529 c 0,86,87
 158 538 158 538 156 542 c 0,88,89
 156 544 156 544 155 553 c 0,90,91
 153 555 153 555 149 556 c 0,92,93
 147 555 147 555 145 554 c 0,94,95
 134 538 134 538 121 522 c 0,96,97
 115 516 115 516 104 505 c 0,98,99
 75 475 75 475 67 448 c 0,79,80
162 -24 m 0,100,101
 169 -11 169 -11 169 2 c 2,102,-1
 169 13 l 2,103,104
 169 17 169 17 167 28 c 1,105,106
 162 22 162 22 137 -5 c 2,107,-1
 133 -10 l 2,108,109
 126 -18 126 -18 109 -32 c 0,110,111
 77 -58 77 -58 69 -84 c 0,112,113
 68 -87 68 -87 68 -88 c 1,114,115
 126 -85 126 -85 162 -24 c 0,100,101
162 67 m 0,116,117
 169 79 169 79 169 92 c 2,118,-1
 169 104 l 2,119,120
 169 110 169 110 167 117 c 1,121,122
 156 102 156 102 133 78 c 0,123,124
 125 69 125 69 108 55 c 0,125,126
 75 27 75 27 68 3 c 1,127,128
 127 7 127 7 162 67 c 0,116,117
162 154 m 0,129,130
 169 167 169 167 169 179 c 2,131,-1
 169 192 l 2,132,133
 169 198 169 198 167 205 c 1,134,135
 158 192 158 192 133 165 c 0,136,137
 125 156 125 156 108 143 c 0,138,139
 75 115 75 115 68 90 c 1,140,141
 126 93 126 93 162 154 c 0,129,130
162 242 m 0,142,143
 169 254 169 254 169 267 c 2,144,-1
 169 279 l 2,145,146
 169 286 169 286 167 292 c 1,147,148
 157 278 157 278 136 256 c 2,149,-1
 133 252 l 2,150,151
 125 243 125 243 108 230 c 0,152,153
 76 203 76 203 68 178 c 1,154,155
 127 182 127 182 162 242 c 0,142,143
162 329 m 0,156,157
 169 342 169 342 169 354 c 2,158,-1
 169 367 l 2,159,160
 169 373 169 373 167 379 c 1,161,162
 160 368 160 368 137 344 c 2,163,-1
 133 340 l 2,164,165
 125 332 125 332 109 319 c 0,166,167
 77 293 77 293 69 268 c 0,168,169
 68 266 68 266 68 265 c 1,170,171
 127 268 127 268 162 329 c 0,156,157
169 454 m 2,172,173
 169 464 169 464 164 480 c 1,174,175
 155 464 155 464 125 430 c 0,176,177
 119 423 119 423 106 413 c 0,178,179
 77 388 77 388 71 363 c 0,180,181
 70 357 70 357 69 353 c 1,182,183
 126 355 126 355 162 417 c 0,184,185
 169 429 169 429 169 441 c 2,186,-1
 169 454 l 2,172,173
158 638 m 0,187,188
 158 651 158 651 152 678 c 1,189,190
 124 663 124 663 100 662 c 0,191,192
 78 663 78 663 64 675 c 1,193,-1
 64 526 l 1,194,195
 106 530 106 530 138 580 c 0,196,197
 142 586 142 586 144 591 c 0,198,199
 158 617 158 617 158 638 c 0,187,188
EndSplineSet
Validated: 3073
EndChar

StartChar: uniE1E7
Encoding: 188 57831 173
Width: 204
GlyphClass: 2
Flags: MW
HStem: 613 104<87.7002 116.3>
VStem: 50 104<650.7 679.3>
LayerCount: 3
Fore
SplineSet
154 665 m 0,0,1
 154 632 154 632 124 618 c 0,2,3
 113 613 113 613 102 613 c 0,4,5
 69 613 69 613 55 643 c 0,6,7
 50 654 50 654 50 665 c 0,8,9
 50 698 50 698 80 712 c 0,10,11
 91 717 91 717 102 717 c 0,12,13
 135 717 135 717 149 687 c 0,14,15
 154 676 154 676 154 665 c 0,0,1
EndSplineSet
Validated: 1
EndChar

StartChar: uniE1F3
Encoding: 189 57843 174
Width: 335
VWidth: 924
GlyphClass: 2
Flags: MW
HStem: 27 20G 674 122
VStem: 306 29
LayerCount: 3
Fore
SplineSet
0 800 m 1,0,-1
 335 800 l 1,1,-1
 335 -16 l 2,2,3
 334 -84 334 -84 261 -142 c 0,4,5
 190 -198 190 -198 116 -199 c 0,6,7
 49 -199 49 -199 22 -152 c 0,8,9
 11 -131 11 -131 10 -107 c 0,10,11
 10 -32 10 -32 77 24 c 0,12,13
 142 77 142 77 227 77 c 0,14,15
 274 76 274 76 306 52 c 1,16,-1
 306 674 l 1,17,-1
 0 674 l 1,18,-1
 0 800 l 1,0,-1
EndSplineSet
Validated: 1
EndChar

StartChar: uniE1F5
Encoding: 190 57845 175
Width: 335
VWidth: 924
GlyphClass: 2
Flags: MW
HStem: -509 20G -44 122 138 122
VStem: 306 29
LayerCount: 3
Fore
SplineSet
0 800 m 5,0,-1
 335 800 l 5,1,-1
 335 -16 l 6,2,3
 334 -84 334 -84 261 -142 c 4,4,5
 190 -198 190 -198 116 -199 c 4,6,7
 49 -199 49 -199 22 -152 c 4,8,9
 11 -131 11 -131 10 -107 c 4,10,11
 10 -32 10 -32 77 24 c 4,12,13
 142 77 142 77 227 77 c 4,14,15
 274 76 274 76 306 52 c 5,16,-1
 306 492 l 5,17,-1
 0 492 l 5,18,-1
 0 614 l 5,19,-1
 306 614 l 5,20,-1
 306 674 l 5,21,-1
 0 674 l 5,22,-1
 0 800 l 5,0,-1
EndSplineSet
Validated: 1
EndChar

StartChar: uniE1F6
Encoding: 191 57846 176
Width: 335
GlyphClass: 2
Flags: MW
HStem: -930 17G -684 108 -523 108 -359 108
VStem: 270 26
LayerCount: 3
Fore
SplineSet
0 800 m 1,0,-1
 335 800 l 1,1,-1
 335 -16 l 2,2,3
 334 -84 334 -84 261 -142 c 0,4,5
 190 -198 190 -198 116 -199 c 0,6,7
 49 -199 49 -199 22 -152 c 0,8,9
 11 -131 11 -131 10 -107 c 0,10,11
 10 -32 10 -32 77 24 c 0,12,13
 142 77 142 77 227 77 c 0,14,15
 274 76 274 76 306 52 c 1,16,-1
 306 312 l 1,17,-1
 0 312 l 1,18,-1
 0 432 l 1,19,-1
 306 432 l 1,20,-1
 306 492 l 1,21,-1
 0 492 l 1,22,-1
 0 614 l 1,23,-1
 306 614 l 1,24,-1
 306 674 l 1,25,-1
 0 674 l 1,26,-1
 0 800 l 1,0,-1
EndSplineSet
Validated: 1
EndChar

StartChar: uniE1F8
Encoding: 192 57848 177
Width: 335
VWidth: 924
GlyphClass: 2
Flags: MW
HStem: 674 122
VStem: 0 335
LayerCount: 3
Fore
SplineSet
335 800 m 5,0,-1
 335 674 l 5,1,-1
 0 674 l 5,2,-1
 0 800 l 5,3,-1
 335 800 l 5,0,-1
EndSplineSet
Validated: 1
EndChar

StartChar: uniE1FA
Encoding: 193 57850 178
Width: 335
VWidth: 924
GlyphClass: 2
Flags: MW
HStem: 492 122 674 122
VStem: 0 335
LayerCount: 3
Fore
SplineSet
335 614 m 1,0,-1
 335 492 l 1,1,-1
 0 492 l 5,2,-1
 0 614 l 1,3,-1
 335 614 l 1,0,-1
335 800 m 1,4,-1
 335 674 l 1,5,-1
 0 674 l 1,6,-1
 0 800 l 1,7,-1
 335 800 l 1,4,-1
EndSplineSet
Validated: 1
EndChar

StartChar: uniE1FB
Encoding: 194 57851 179
Width: 335
VWidth: 924
GlyphClass: 2
Flags: MW
HStem: 309 122 491 122<0 334.828 0 334.828> 676 122
VStem: 0 335
LayerCount: 3
Fore
SplineSet
335 432 m 5,0,-1
 335 312 l 1,1,-1
 0 312 l 1,2,-1
 0 431 l 1,3,-1
 335 432 l 5,0,-1
335 799 m 1,4,-1
 335 674 l 1,5,-1
 0 674 l 1,6,-1
 0 800 l 1,7,-1
 335 799 l 1,4,-1
335 614 m 1,8,-1
 335 492 l 1,9,-1
 0 492 l 1,10,-1
 0 614 l 1,11,-1
 335 614 l 1,8,-1
EndSplineSet
Validated: 1
EndChar

StartChar: uniE1FC
Encoding: 195 57852 180
Width: 204
GlyphClass: 2
Flags: MW
HStem: -88 104
VStem: 50 104<-50 -20.75>
LayerCount: 3
Fore
SplineSet
154 -36 m 0,0,1
 154 -69 154 -69 124 -83 c 0,2,3
 113 -88 113 -88 102 -88 c 0,4,5
 69 -88 69 -88 55 -57 c 0,6,7
 50 -46 50 -46 50 -36 c 0,8,9
 50 -1 50 -1 82 12 c 0,10,11
 92 16 92 16 102 16 c 0,12,13
 137 16 137 16 150 -15 c 0,14,15
 154 -26 154 -26 154 -36 c 0,0,1
EndSplineSet
Validated: 1
EndChar

StartChar: uniE1FD
Encoding: 196 57853 181
Width: 480
VWidth: 1009
GlyphClass: 2
Flags: MW
HStem: -200 53
VStem: 50 380
LayerCount: 3
Fore
SplineSet
430 -51 m 5,0,1
 396 -150 396 -150 308 -186 c 4,2,3
 272 -200 272 -200 235 -200 c 4,4,5
 144 -200 144 -200 87 -126 c 4,6,7
 63 -93 63 -93 50 -51 c 5,8,-1
 54 -51 l 5,9,10
 89 -122 89 -122 183 -142 c 4,11,12
 209 -147 209 -147 236 -147 c 4,13,14
 338 -147 338 -147 399 -85 c 4,15,16
 415 -69 415 -69 426 -51 c 5,17,-1
 430 -51 l 5,0,1
EndSplineSet
Validated: 1
EndChar

StartChar: uniE1FE
Encoding: -1 57854 182
Width: 330
VWidth: 1133
GlyphClass: 2
Flags: MW
HStem: 771.9 28.6
VStem: 0 28.6
LayerCount: 3
Fore
SplineSet
29 772 m 1,0,-1
 29 586 l 1,1,-1
 0 586 l 1,2,-1
 0 800 l 1,3,-1
 330 800 l 1,4,-1
 330 772 l 1,5,-1
 29 772 l 1,0,-1
EndSplineSet
Validated: 1
EndChar

StartChar: uniE1FF
Encoding: 198 57855 183
Width: 344
GlyphClass: 2
Flags: MW
HStem: 510 18 774 22
VStem: 50 68 131 65 188 57 240 55
LayerCount: 3
Fore
SplineSet
218 796 m 0,0,1
 266 796 266 796 287 754 c 0,2,3
 294 740 294 740 294 727 c 0,4,5
 292 677 292 677 233 649 c 0,6,7
 226 645 226 645 226 640 c 0,8,9
 226 639 226 639 228 637 c 0,10,11
 245 619 245 619 245 593 c 0,12,13
 245 548 245 548 204 525 c 0,14,15
 177 510 177 510 137 510 c 0,16,17
 55 515 55 515 50 566 c 0,18,19
 50 600 50 600 76 608 c 0,20,21
 80 609 80 609 85 609 c 0,22,23
 109 609 109 609 116 587 c 0,24,25
 117 582 117 582 118 578 c 0,26,27
 118 562 118 562 99 546 c 0,28,29
 95 542 95 542 94 540 c 0,30,31
 94 533 94 533 111 529 c 0,32,33
 117 528 117 528 123 528 c 0,34,35
 146 528 146 528 167 551 c 0,36,37
 187 574 187 574 188 608 c 0,38,39
 188 628 188 628 176.5 636.5 c 128,-1,40
 165 645 165 645 152 644.5 c 128,-1,41
 139 644 139 644 127.5 645.5 c 128,-1,42
 116 647 116 647 116 656 c 0,43,44
 116 677 116 677 140 679 c 0,45,46
 145 679 145 679 150 679 c 0,47,48
 154 679 154 679 164 679 c 0,49,50
 176 678 176 678 181 678 c 0,51,52
 207 678 207 678 226 702 c 0,53,54
 239 720 239 720 240 743 c 0,55,56
 239 768 239 768 222 774 c 1,57,-1
 215 774 l 1,58,59
 196 769 196 769 193 751 c 0,60,61
 193 748 193 748 194 744 c 0,62,63
 195 740 195 740 196 738 c 0,64,65
 196 715 196 715 173 707 c 0,66,67
 167 705 167 705 162 705 c 0,68,69
 139 705 139 705 132 728 c 0,70,71
 131 733 131 733 131 738 c 0,72,73
 131 779 131 779 181 792 c 0,74,75
 198 796 198 796 218 796 c 0,0,1
EndSplineSet
Validated: 1
EndChar

StartChar: uniE200
Encoding: -1 57856 184
Width: 330
VWidth: 1115
GlyphClass: 2
Flags: MW
HStem: 770.8 28.6
VStem: 301.6 28.6
LayerCount: 3
Fore
SplineSet
330 799 m 1,0,-1
 330 585 l 1,1,-1
 302 585 l 1,2,-1
 302 771 l 1,3,-1
 0 771 l 1,4,-1
 0 799 l 1,5,-1
 330 799 l 1,0,-1
EndSplineSet
Validated: 1
EndChar

StartChar: uniE220
Encoding: 200 57888 185
Width: 412
GlyphClass: 2
Flags: MW
HStem: 204 194
VStem: 50 312<267.5 267.5 267.5 333.8 333.8 333.8>
LayerCount: 3
Fore
SplineSet
362 268 m 1,0,-1
 50 204 l 1,1,-1
 50 334 l 1,2,-1
 362 398 l 1,3,-1
 362 268 l 1,0,-1
EndSplineSet
Validated: 1
EndChar

StartChar: uniE221
Encoding: 201 57889 186
Width: 412
GlyphClass: 2
Flags: MW
HStem: 300 21G<49.9998 49.9998>
VStem: 50 312
LayerCount: 3
Fore
SplineSet
362 365 m 1,0,-1
 50 300 l 1,1,-1
 50 430 l 1,2,-1
 362 495 l 1,3,-1
 362 365 l 1,0,-1
362 301 m 1,4,-1
 362 171 l 1,5,-1
 50 105 l 1,6,-1
 50 235 l 1,7,-1
 362 301 l 1,4,-1
EndSplineSet
Validated: 1
EndChar

StartChar: uniE222
Encoding: 202 57890 187
Width: 412
GlyphClass: 2
Flags: MW
HStem: 9 580
VStem: 50 312<73.7998 138.8 138.8 138.8 199.9 203.8 264.9 329.9 329.9 329.9 393.6 394.9 73.7998 458.6 458.6 523.6 523.6 523.6>
LayerCount: 3
Fore
SplineSet
362 459 m 1,0,-1
 50 394 l 1,1,-1
 50 524 l 1,2,-1
 362 589 l 1,3,-1
 362 459 l 1,0,-1
362 395 m 1,4,-1
 362 265 l 1,5,-1
 50 200 l 1,6,-1
 50 330 l 1,7,-1
 362 395 l 1,4,-1
362 204 m 1,8,-1
 362 74 l 1,9,-1
 50 9 l 1,10,-1
 50 139 l 1,11,-1
 362 204 l 1,8,-1
EndSplineSet
Validated: 1
EndChar

StartChar: uniE223
Encoding: 203 57891 188
Width: 412
GlyphClass: 2
Flags: MW
HStem: 300 21G<50 50>
VStem: 50 312<-19.7998 45.2002 45.2002 45.2002 106.3 110.2 171.3 236.3 236.3 236.3 300 301.3 -19.7998 365 365 430 430 430 558.7 625 625 625>
LayerCount: 3
Fore
SplineSet
362 365 m 1,0,-1
 50 300 l 1,1,-1
 50 430 l 1,2,-1
 362 495 l 1,3,-1
 362 365 l 1,0,-1
362 301 m 1,4,-1
 362 171 l 1,5,-1
 50 106 l 1,6,-1
 50 236 l 1,7,-1
 362 301 l 1,4,-1
362 110 m 1,8,-1
 362 -20 l 1,9,-1
 50 -85 l 1,10,-1
 50 45 l 1,11,-1
 362 110 l 1,8,-1
362 559 m 1,12,-1
 50 495 l 1,13,-1
 50 625 l 1,14,-1
 362 689 l 1,15,-1
 362 559 l 1,12,-1
EndSplineSet
Validated: 1
EndChar

StartChar: uniE224
Encoding: 204 57892 189
Width: 413
GlyphClass: 2
Flags: MW
HStem: -178 967
VStem: 51 312<-113.4 -48.4004 -48.4004 -48.4004 12.7002 16.5996 77.7002 142.7 142.7 142.7 206.4 207.7 -113.4 271.4 271.4 336.4 336.4 336.4>
LayerCount: 3
Fore
SplineSet
363 271 m 1,0,-1
 51 206 l 1,1,-1
 51 336 l 1,2,-1
 363 401 l 1,3,-1
 363 271 l 1,0,-1
363 208 m 1,4,-1
 363 78 l 1,5,-1
 51 13 l 1,6,-1
 51 143 l 1,7,-1
 363 208 l 1,4,-1
363 17 m 1,8,-1
 363 -113 l 1,9,-1
 51 -178 l 1,10,-1
 51 -48 l 1,11,-1
 363 17 l 1,8,-1
362 659 m 1,12,-1
 50 594 l 1,13,-1
 50 724 l 1,14,-1
 362 789 l 1,15,-1
 362 659 l 1,12,-1
362 595 m 1,16,-1
 362 465 l 1,17,-1
 50 400 l 1,18,-1
 50 530 l 1,19,-1
 362 595 l 1,16,-1
EndSplineSet
Validated: 1
EndChar

StartChar: uniE22A
Encoding: 205 57898 190
Width: 423
GlyphClass: 2
Flags: MW
HStem: 29 51 220 51
VStem: 50 324
LayerCount: 3
Fore
SplineSet
374 29 m 1,0,-1
 50 29 l 1,1,-1
 50 80 l 1,2,-1
 275 220 l 1,3,-1
 50 220 l 1,4,-1
 50 271 l 1,5,-1
 374 271 l 1,6,-1
 374 220 l 1,7,-1
 145 80 l 1,8,-1
 374 80 l 1,9,-1
 374 29 l 1,0,-1
EndSplineSet
Validated: 1
EndChar

StartChar: uniE22C
Encoding: 206 57900 191
Width: 431
GlyphClass: 2
Flags: MW
HStem: -191 681 228 23
VStem: 60 70 60 79 300 73
LayerCount: 3
Fore
SplineSet
60 272 m 1,0,-1
 60 337 l 2,1,2
 61 349 61 349 72 353 c 0,3,4
 210 374 210 374 273 424 c 0,5,6
 290 438 290 438 316 463 c 2,7,-1
 327 474 l 2,8,9
 343 490 343 490 357 491 c 0,10,11
 376 491 376 491 379 474 c 0,12,13
 382 465 382 465 382 444 c 2,14,-1
 382 439 l 2,15,16
 382 389 382 389 337 352 c 0,17,18
 327 344 327 344 315 336 c 0,19,20
 227 278 227 278 131 276 c 1,21,-1
 144 274 l 1,22,23
 300 254 300 254 356 251 c 0,24,25
 372 249 372 249 372 233 c 2,26,-1
 372 158 l 2,27,28
 371 150 371 150 361 144 c 2,29,-1
 140 69 l 1,30,31
 298 60 298 60 358 43 c 0,32,33
 372 37 372 37 372 24 c 2,34,-1
 372 -40 l 2,35,36
 372 -54 372 -54 356 -58 c 0,37,38
 210 -88 210 -88 108 -174 c 0,39,40
 90 -191 90 -191 67 -191 c 0,41,42
 50 -190 50 -190 50 -122 c 0,43,44
 50 -87 50 -87 66 -72 c 0,45,46
 74 -64 74 -64 92 -52 c 0,47,48
 159 -5 159 -5 300 24 c 1,49,50
 276 27 276 27 225 32 c 0,51,52
 124 42 124 42 77 49 c 0,53,54
 61 54 61 54 60 66 c 2,55,-1
 60 142 l 2,56,57
 61 152 61 152 71 158 c 0,58,59
 103 167 103 167 156 184.5 c 128,-1,60
 209 202 209 202 247 215 c 2,61,-1
 284 228 l 1,62,63
 163 234 163 234 78 254 c 0,64,65
 75 255 75 255 73 255 c 0,66,67
 61 259 61 259 60 272 c 1,0,-1
EndSplineSet
Validated: 1
EndChar

StartChar: uniE4A0
Encoding: 224 58528 192
Width: 452
GlyphClass: 2
Flags: MW
HStem: 521 254
VStem: 50 352
LayerCount: 3
Fore
SplineSet
389 629 m 2,0,-1
 71 523 l 2,1,2
 69 522 69 522 67 521 c 0,3,4
 58 522 58 522 53 537 c 0,5,6
 51 542 51 542 50 546 c 0,7,8
 50 555 50 555 62 561 c 0,9,10
 64 562 l 0,11,12
 298 641 l 0,13,14
 306 643 306 643 307 647 c 0,15,16
 307 653 307 653 300 655 c 2,17,-1
 64 736 l 2,18,19
 50 742 50 742 50 750 c 0,20,21
 50 753 50 753 53 760 c 0,22,23
 59 774 59 774 68 775 c 0,24,25
 69 775 69 775 77 772 c 2,26,-1
 389 667 l 2,27,28
 402 662 402 662 402 647 c 0,29,30
 402 632 402 632 391 630 c 0,31,32
 390 629 390 629 389 629 c 2,0,-1
EndSplineSet
Validated: 1
EndChar

StartChar: uniE4A4
Encoding: 225 58532 193
Width: 452
GlyphClass: 2
Flags: MW
HStem: 520 49
VStem: 50 352
LayerCount: 3
Fore
SplineSet
378 520 m 2,0,-1
 75 520 l 1,1,2
 52 528 52 528 50 545 c 0,3,4
 50 564 50 564 61 568 c 0,5,6
 67 570 67 570 75 569 c 2,7,-1
 378 569 l 1,8,9
 401 561 401 561 402 545 c 0,10,11
 402 525 402 525 390 521 c 0,12,13
 384 520 384 520 378 520 c 2,0,-1
EndSplineSet
Validated: 1
EndChar

StartChar: uniE4A6
Encoding: 226 58534 194
Width: 202
GlyphClass: 2
Flags: MW
HStem: 492 307
VStem: 50 103
LayerCount: 3
Fore
SplineSet
101 799 m 1,0,1
 150 797 150 797 153 776 c 0,2,3
 153 727 153 727 133 602 c 0,4,5
 116 494 116 494 101 492 c 0,6,7
 79 492 79 492 54 731 c 0,8,9
 50 769 50 769 50 777 c 1,10,11
 62 796 62 796 101 799 c 1,0,1
EndSplineSet
Validated: 1
EndChar

StartChar: uniE4A8
Encoding: 227 58536 195
Width: 191
GlyphClass: 2
Flags: MW
HStem: 495 302
VStem: 88 16
LayerCount: 3
Fore
SplineSet
50 794 m 0,0,1
 51 796 51 796 51 797 c 0,2,3
 54 796 l 0,4,5
 78 793 78 793 96 793 c 0,6,7
 113 793 113 793 137 796 c 0,8,9
 140 796 140 796 140 797 c 2,10,-1
 141 794 l 1,11,12
 118 733 118 733 107 571 c 0,13,14
 104 530 104 530 103 498 c 0,15,16
 102 496 102 496 96 495 c 0,17,18
 89 496 89 496 88 498 c 0,19,20
 86 638 86 638 60 757 c 0,21,22
 55 781 55 781 50 794 c 0,0,1
EndSplineSet
Validated: 1
EndChar

StartChar: uniE4AA
Encoding: 228 58538 196
Width: 149
GlyphClass: 2
Flags: MW
HStem: 495 302
VStem: 50 49
LayerCount: 3
Fore
SplineSet
99 788 m 1,0,-1
 99 504 l 2,1,2
 97 496 97 496 90 495 c 2,3,-1
 59 495 l 2,4,5
 51 497 51 497 50 504 c 2,6,-1
 50 788 l 2,7,8
 52 796 52 796 59 797 c 2,9,-1
 90 797 l 2,10,11
 98 795 98 795 99 788 c 1,0,-1
EndSplineSet
Validated: 1
EndChar

StartChar: uniE4AC
Encoding: 229 58540 197
Width: 345
GlyphClass: 2
Flags: MW
HStem: 519 264
VStem: 50 246
LayerCount: 3
Fore
SplineSet
183 777 m 1,0,-1
 294 537 l 2,1,2
 295 535 295 535 296 532 c 0,3,4
 296 522 296 522 284 520 c 2,5,-1
 214 520 l 2,6,7
 207 520 207 520 202 526 c 0,8,9
 142 654 l 0,10,11
 140 657 140 657 137 658 c 0,12,13
 133 657 133 657 132 654 c 2,14,-1
 75 526 l 2,15,16
 70 519 70 519 63 519 c 0,17,18
 59 520 59 520 58 520 c 0,19,20
 51 523 51 523 50 532 c 0,21,22
 51 535 51 535 51 537 c 2,23,-1
 162 777 l 1,24,25
 168 782 l 0,26,27
 170 782 170 782 172 783 c 0,28,29
 179 781 179 781 183 777 c 1,0,-1
EndSplineSet
Validated: 1
EndChar

StartChar: uniE4AE
Encoding: 230 58542 198
Width: 345
GlyphClass: 2
Flags: MW
HStem: 340 87
VStem: 131 87
LayerCount: 3
Fore
SplineSet
183 795 m 1,0,-1
 294 554 l 2,1,2
 295 552 295 552 296 549 c 0,3,4
 296 539 296 539 284 538 c 2,5,-1
 214 538 l 2,6,7
 207 539 207 539 202 544 c 0,8,9
 142 672 l 0,10,11
 140 675 140 675 137 675 c 0,12,13
 133 674 133 674 132 672 c 2,14,-1
 75 544 l 2,15,16
 70 537 70 537 63 536 c 0,17,18
 59 537 59 537 58 538 c 0,19,20
 51 541 51 541 50 549 c 0,21,22
 51 552 51 552 51 554 c 2,23,-1
 162 795 l 2,24,25
 166 796 166 796 172 800 c 1,26,27
 179 799 179 799 183 795 c 1,0,-1
218 384 m 0,28,29
 218 354 218 354 191 343 c 0,30,31
 182 340 182 340 174 340 c 0,32,33
 146 340 146 340 134 367 c 0,34,35
 131 376 131 376 131 384 c 0,36,37
 131 412 131 412 157 424 c 0,38,39
 166 427 166 427 174 427 c 0,40,41
 203 427 203 427 214 401 c 0,42,43
 218 392 218 392 218 384 c 0,28,29
EndSplineSet
Validated: 1
EndChar

StartChar: uniE4B0
Encoding: 231 58544 199
Width: 452
GlyphClass: 2
Flags: MW
HStem: 360 87
VStem: 184 87
LayerCount: 3
Fore
SplineSet
389 651 m 2,0,-1
 71 545 l 2,1,2
 69 544 69 544 67 543 c 0,3,4
 58 544 58 544 53 559 c 0,5,6
 51 564 51 564 50 568 c 0,7,8
 50 577 50 577 62 583 c 0,9,10
 64 584 l 0,11,12
 298 663 l 0,13,14
 306 665 306 665 307 669 c 0,15,16
 307 675 307 675 300 677 c 2,17,-1
 64 758 l 2,18,19
 50 764 50 764 50 772 c 0,20,21
 50 775 50 775 53 782 c 0,22,23
 59 796 59 796 68 797 c 0,24,25
 69 797 69 797 77 794 c 2,26,-1
 389 689 l 2,27,28
 402 684 402 684 402 669 c 0,29,30
 402 654 402 654 391 652 c 0,31,32
 390 651 390 651 389 651 c 2,0,-1
271 404 m 0,33,34
 271 375 271 375 245 363 c 0,35,36
 237 360 237 360 228 360 c 0,37,38
 198 360 198 360 187 387 c 0,39,40
 184 396 184 396 184 404 c 0,41,42
 184 432 184 432 211 444 c 0,43,44
 220 447 220 447 228 447 c 0,45,46
 256 447 256 447 267 421 c 0,47,48
 271 412 271 412 271 404 c 0,33,34
EndSplineSet
Validated: 1
EndChar

StartChar: uniE4B2
Encoding: 232 58546 200
Width: 452
GlyphClass: 2
Flags: MW
HStem: 520 87 720 49
VStem: 186 87
LayerCount: 3
Fore
SplineSet
378 720 m 2,0,-1
 75 720 l 1,1,2
 52 728 52 728 50 745 c 0,3,4
 50 765 50 765 63 768 c 0,5,6
 69 769 69 769 75 770 c 2,7,-1
 378 770 l 1,8,9
 401 762 401 762 402 745 c 0,10,11
 402 726 402 726 392 722 c 0,12,13
 386 720 386 720 378 720 c 2,0,-1
274 564 m 0,14,15
 274 535 274 535 247 523 c 0,16,17
 239 520 239 520 231 520 c 0,18,19
 201 520 201 520 190 547 c 0,20,21
 186 556 186 556 186 564 c 0,22,23
 186 592 186 592 213 604 c 0,24,25
 222 607 222 607 231 607 c 0,26,27
 259 607 259 607 270 581 c 0,28,29
 274 572 274 572 274 564 c 0,14,15
EndSplineSet
Validated: 1
EndChar

StartChar: uniE4B4
Encoding: 233 58548 201
Width: 453
GlyphClass: 2
Flags: MW
HStem: 440 49
VStem: 50 354
LayerCount: 3
Fore
SplineSet
391 653 m 2,0,-1
 72 547 l 2,1,2
 70 546 70 546 68 545 c 0,3,4
 59 546 59 546 54 561 c 0,5,6
 52 566 52 566 51 570 c 0,7,8
 51 579 51 579 63 585 c 0,9,10
 65 586 65 586 66 586 c 0,11,12
 300 665 l 0,13,14
 308 667 308 667 309 671 c 0,15,16
 309 677 309 677 301 679 c 2,17,-1
 66 760 l 2,18,19
 52 766 52 766 51 774 c 0,20,21
 51 777 51 777 54 784 c 0,22,23
 60 798 60 798 70 799 c 0,24,25
 71 799 71 799 79 796 c 2,26,-1
 391 691 l 2,27,28
 404 686 404 686 404 671 c 0,29,30
 404 656 404 656 393 654 c 0,31,32
 392 653 392 653 391 653 c 2,0,-1
378 440 m 2,33,-1
 75 440 l 1,34,35
 52 448 52 448 50 465 c 0,36,37
 50 484 50 484 61 488 c 0,38,39
 67 490 67 490 75 489 c 2,40,-1
 378 489 l 1,41,42
 401 481 401 481 402 465 c 0,43,44
 402 445 402 445 390 441 c 0,45,46
 384 440 384 440 378 440 c 2,33,-1
EndSplineSet
Validated: 1
EndChar

StartChar: uniE4B6
Encoding: 234 58550 202
Width: 341
GlyphClass: 2
Flags: MW
HStem: 525 242
VStem: 50 242
LayerCount: 3
Fore
SplineSet
268 742 m 0,0,1
 291 719 291 719 292 699 c 0,2,3
 291 692 291 692 288 689 c 128,-1,4
 285 686 285 686 264 668.5 c 128,-1,5
 243 651 243 651 212 627 c 128,-1,6
 181 603 181 603 150 580 c 128,-1,7
 119 557 119 557 92 541 c 128,-1,8
 65 525 65 525 55 525 c 0,9,10
 52 526 52 526 51 526 c 0,11,12
 51 527 51 527 50 529 c 0,13,14
 50 559 50 559 189 731 c 0,15,16
 210 757 210 757 215 762 c 0,17,18
 224 767 224 767 226 767 c 0,19,20
 244 766 244 766 268 742 c 0,0,1
EndSplineSet
Validated: 1
EndChar

StartChar: uniE4B8
Encoding: 235 58552 203
Width: 497
GlyphClass: 2
Flags: MW
HStem: 520 34
VStem: 50 34 414 34
LayerCount: 3
Fore
SplineSet
50 736 m 1,0,-1
 84 736 l 1,1,-1
 84 719 l 2,2,3
 84 638 84 638 148 588 c 0,4,5
 193 554 193 554 249 554 c 0,6,7
 329 554 329 554 378 616 c 0,8,9
 413 661 413 661 414 719 c 2,10,-1
 414 736 l 1,11,-1
 448 736 l 1,12,-1
 448 719 l 2,13,14
 448 627 448 627 378 568 c 0,15,16
 322 521 322 521 249 520 c 0,17,18
 158 520 158 520 98 590 c 0,19,20
 51 646 51 646 50 719 c 2,21,-1
 50 736 l 1,0,-1
EndSplineSet
Validated: 1
EndChar

StartChar: uniE4BA
Encoding: 236 58554 204
Width: 480
GlyphClass: 2
Flags: MW
HStem: 616 53
VStem: 50 381
LayerCount: 3
Fore
SplineSet
50 521 m 1,0,1
 84 619 84 619 172 655 c 0,2,3
 207 669 207 669 244 669 c 0,4,5
 336 669 336 669 393 595 c 0,6,7
 417 563 417 563 431 521 c 1,8,-1
 426 521 l 1,9,10
 391 593 391 593 294 611 c 0,11,12
 269 616 269 616 244 616 c 0,13,14
 140 616 140 616 79 554 c 0,15,16
 64 538 64 538 54 521 c 1,17,-1
 50 521 l 1,0,1
EndSplineSet
Validated: 1
EndChar

StartChar: uniE4BC
Encoding: 237 58556 205
Width: 452
VWidth: 1350
GlyphClass: 2
Flags: MW
HStem: 900 49
VStem: 50 352
LayerCount: 3
Fore
SplineSet
238 788 m 1,0,-1
 350 548 l 2,1,2
 351 545 351 545 352 542 c 0,3,4
 352 532 352 532 340 531 c 2,5,-1
 270 531 l 2,6,7
 264 532 264 532 258 537 c 0,8,9
 200 665 l 0,10,11
 196 668 196 668 193 668 c 0,12,13
 189 668 189 668 189 665 c 2,14,-1
 131 537 l 2,15,16
 126 530 126 530 119 529 c 0,17,18
 115 530 115 530 114 531 c 0,19,20
 107 534 107 534 106 542 c 0,21,22
 107 546 107 546 107 548 c 2,23,-1
 218 788 l 1,24,25
 223 793 l 0,26,27
 226 794 226 794 228 795 c 0,28,29
 234 793 234 793 238 788 c 1,0,-1
378 350 m 2,30,-1
 75 350 l 1,31,32
 52 358 52 358 50 375 c 0,33,34
 50 394 50 394 61 398 c 0,35,36
 67 400 67 400 75 399 c 2,37,-1
 378 399 l 1,38,39
 401 391 401 391 402 375 c 0,40,41
 402 355 402 355 390 351 c 0,42,43
 385 350 385 350 378 350 c 2,30,-1
EndSplineSet
Validated: 1
EndChar

StartChar: uniE4C0
Encoding: 238 58560 206
Width: 508
VWidth: 699
GlyphClass: 2
Flags: MW
HStem: 320 79 483 78
VStem: 214 79
LayerCount: 3
Fore
SplineSet
446 340 m 0,0,1
 408 483 408 483 256.5 482.5 c 128,-1,2
 105 482 105 482 61 342 c 1,3,-1
 60 335 l 1,4,5
 53 321 53 321 45 320 c 0,6,7
 36 321 36 321 35 329 c 0,8,9
 35 335 35 335 36 337 c 0,10,11
 69 502 69 502 182 547 c 0,12,13
 217 561 217 561 254 561 c 0,14,15
 337 561 337 561 394 501.5 c 128,-1,16
 451 442 451 442 473 337 c 0,17,18
 478 322 478 322 464 320 c 0,19,20
 457 320 457 320 453 327 c 128,-1,21
 449 334 449 334 448 335 c 0,22,23
 447 340 447 340 446 340 c 0,0,1
293 360 m 0,24,25
 293 336 293 336 272 325 c 0,26,27
 263 321 263 321 253 320 c 0,28,29
 230 320 230 320 219 342 c 0,30,31
 215 351 215 351 214 360 c 0,32,33
 214 383 214 383 235 395 c 0,34,35
 244 399 244 399 253 399 c 0,36,37
 277 399 277 399 289 378 c 0,38,39
 293 369 293 369 293 360 c 0,24,25
EndSplineSet
Validated: 33
EndChar

